<?xml version="1.0" encoding="utf-8"?>
<!-- Generator: Adobe Illustrator 27.5.0, SVG Export Plug-In . SVG Version: 6.00 Build 0)  -->
<svg version="1.1" xmlns="http://www.w3.org/2000/svg" xmlns:xlink="http://www.w3.org/1999/xlink" x="0px" y="0px"
	 viewBox="0 0 3710 3710" style="enable-background:new 0 0 3710 3710;" xml:space="preserve">
<g id="Background">
	<g>
		<g>
			<rect style="fill:#FFFFFF;" width="3710" height="3710"/>
		</g>
	</g>
</g>
<g id="Illustration">
	<g>
		<path style="fill:#F4F7FA;" d="M3224.79,1539.202c-30.818-373.578-46.226-560.367-117.947-681.224
			c-205.355-346.033-802.394-428.324-1179.473-396.773c-504.819,42.238-1082.331,327.577-1336.538,878.501
			c-230.891,500.394-124.427,1066.798,223.473,1437.316c637.753,679.217,1953.303,557.948,2274.663,112.264
			c128.252-177.869,137.496-461.969,151.077-879.295C3246.583,1809.096,3233.847,1649.007,3224.79,1539.202z"/>
		<g>
			<g>
				<g style="opacity:0.3;">
					<defs>
						<path id="SVGID_1_" style="opacity:0.3;" d="M1781.533,2859.837c-82.992-101.512-188.909-262.551-218.424-474.309
							c-38.708-277.718,88.004-398.667,135.865-853.82c30.262-287.788,48.482-488.935-81.902-615.101
							c-102.175-98.87-283.376-139.855-404.992-76.893c-101.12,52.353-172.886,182.7-202.231,278.643
							c-23.917,78.193-20.918,137.668-72.594,173.677c-52.811,36.801-100.431,5.69-148.702,31.733
							c-97.894,52.815-74.568,273.845-70.797,309.568c41.938,397.372,362.296,704.095,503.649,836.205
							C1338.276,2578.774,1521.696,2728.002,1781.533,2859.837z"/>
					</defs>
					
						<linearGradient id="SVGID_00000155139169497351358480000013519845277922356887_" gradientUnits="userSpaceOnUse" x1="912.3393" y1="1061.9712" x2="1395.4735" y2="1688.4532">
						<stop  offset="0" style="stop-color:#AA80F9"/>
						<stop  offset="0.9964" style="stop-color:#6165D7"/>
					</linearGradient>
					
						<use xlink:href="#SVGID_1_"  style="overflow:visible;fill:url(#SVGID_00000155139169497351358480000013519845277922356887_);"/>
					<clipPath id="SVGID_00000156586941235007510010000016962807508274455995_">
						<use xlink:href="#SVGID_1_"  style="overflow:visible;"/>
					</clipPath>
					<g style="clip-path:url(#SVGID_00000156586941235007510010000016962807508274455995_);">
						<path style="fill:#FFFFFF;" d="M1880.672,2944.87c-156.898-84.684-289.174-178.433-393.153-278.634
							c-153.888-148.298-240.973-306.765-258.831-470.994c-13.966-128.449,15.214-261.808,52.157-430.648
							c30.625-139.963,64.924-236.318,95.188-321.327c39.232-110.208,70.22-197.259,74.131-328.563
							c3.971-133.399-22.095-270.03-77.473-406.099l6.379-2.596c55.743,136.963,81.979,274.535,77.977,408.896
							c-3.942,132.391-35.091,219.892-74.526,330.672c-30.195,84.818-64.418,180.954-94.948,320.49
							c-38.25,174.801-65.884,301.099-52.039,428.429c37.651,346.247,373.39,595.873,648.41,744.315L1880.672,2944.87z"/>
						<path style="fill:#FFFFFF;" d="M1306.542,1666.584l-0.612-3.84c-42.354-266.287-158.143-444.73-247.822-547.534
							c-97.09-111.298-185.132-160.228-186.01-160.709l3.309-6.039c0.889,0.488,90.005,50.01,187.889,162.222
							c89.832,102.979,205.685,281.314,248.804,547.05c18.916-6.113,107.063-37.108,200.983-111.267
							c97.276-76.809,220.854-217,257.167-448.704l6.802,1.069c-36.678,234.038-161.595,375.641-259.93,453.22
							c-106.545,84.058-205.85,113.177-206.84,113.46L1306.542,1666.584z"/>
						<path style="fill:#FFFFFF;" d="M1234.123,2045.854l-2.288-1.016c-149.023-66.066-279.962-298.412-363.565-481.693
							c-90.412-198.204-146.506-383.277-147.063-385.123l6.594-1.984c0.555,1.843,56.538,186.533,146.765,384.32
							c118.401,259.545,242.062,424.444,357.795,477.168c14.497-15.888,119.754-129.657,246.353-224.724
							c136.365-102.401,422.728-106.052,425.604-106.076l0.061,6.886c-2.855,0.023-286.978,3.658-421.529,104.697
							c-135.203,101.526-245.953,224.451-247.056,225.682L1234.123,2045.854z"/>
						<path style="fill:#FFFFFF;" d="M1449.854,2623.404l-6.616-1.658c-1.384-0.346-140.316-35.639-315.934-123.248
							c-162.12-80.877-389.634-224.176-552.843-447.558l-315.157-431.354l5.561-4.062l315.157,431.354
							c162.352,222.212,388.809,364.848,550.195,445.376c153.35,76.52,278.558,112.982,308.094,121.055
							c-29.988-76.281-34.657-152.266-13.867-225.961c17.069-60.511,51.244-119.559,101.573-175.504
							c85.508-95.05,189.618-149.001,190.66-149.532l3.141,6.126c-1.031,0.531-104.156,53.991-188.806,148.15
							c-77.797,86.533-155.48,226.26-83.756,400.507L1449.854,2623.404z"/>
					</g>
				</g>
			</g>
			<g>
				<g style="opacity:0.5;">
					<defs>
						<path id="SVGID_00000002378545348898849900000014016360220006800822_" style="opacity:0.5;" d="M1669.803,2759.496
							c-181.902,32.303-417.499,43.945-654.12-32.663c-60.386-19.55-433.424-140.323-414.735-328.858
							c6.584-66.412,56.213-85.145,66.377-173.774c12.043-105.018-49.928-145.936-104.237-265.053
							c-32.406-71.077-127.245-279.084-26.82-420.21c60.011-84.333,187.035-140.967,290.31-131.399
							c151.482,14.035,222.187,167.75,337.853,430.226c102.534,232.675,91.579,295.921,167.991,461.981
							C1389.131,2422.99,1487.676,2589.201,1669.803,2759.496z"/>
					</defs>
					
						<linearGradient id="SVGID_00000016063206253624667780000001882750371987910816_" gradientUnits="userSpaceOnUse" x1="491.3775" y1="2095.4407" x2="1669.8029" y2="2095.4407">
						<stop  offset="0" style="stop-color:#FF9085"/>
						<stop  offset="1" style="stop-color:#FB6FBB"/>
					</linearGradient>
					
						<use xlink:href="#SVGID_00000002378545348898849900000014016360220006800822_"  style="overflow:visible;fill:url(#SVGID_00000016063206253624667780000001882750371987910816_);"/>
					<clipPath id="SVGID_00000083073023713051091240000015588404454593638039_">
						<use xlink:href="#SVGID_00000002378545348898849900000014016360220006800822_"  style="overflow:visible;"/>
					</clipPath>
					<g style="clip-path:url(#SVGID_00000083073023713051091240000015588404454593638039_);">
						<path style="fill:#FFFFFF;" d="M1975.851,2807.493c-32.223,0-64.359-1.621-96.393-4.859
							c-254.224-25.713-488.252-156.815-695.583-389.673c-215.469-241.997-348.173-533.368-421.557-735.187
							c-51.094-140.521-65.013-303.21-41.368-483.556l6.829,0.894c-23.5,179.24-9.702,340.836,41.012,480.308
							c89.262,245.484,433.205,1051.776,1111.361,1120.36c189.475,19.179,382.805-18.867,574.6-113.05l3.036,6.18
							C2297.219,2767.762,2135.533,2807.49,1975.851,2807.493z"/>
						<path style="fill:#FFFFFF;" d="M944.645,2069.872l-3.045-1.577c-428.518-221.98-466.034-554.35-467.326-650.93
							c-0.025-1.981-0.03-3.248-0.087-3.756l6.827-0.901c0.091,0.676,0.108,1.701,0.146,4.566
							c1.274,95.376,38.325,423.092,460.518,643.3c7.816-15.753,43.48-90.803,67.708-194.613
							c25.074-107.431,42.68-268.55-15.837-426.008l6.456-2.401c59.139,159.135,41.367,321.761,16.042,430.167
							c-27.419,117.374-69.393,198.312-69.815,199.115L944.645,2069.872z"/>
						<path style="fill:#FFFFFF;" d="M915.834,2458.418c-96.903,0-172.234-21.382-226.343-45.474
							c-104.843-46.674-155.022-113.493-155.516-114.166l5.538-4.092c0.486,0.659,49.82,66.237,153.155,112.138
							c95.154,42.266,256.857,75.992,487.334-2.852c6.084-23.826,69.247-285.144,6.372-610.331l-66.572-344.316l6.762-1.305
							l66.572,344.317c65.961,341.156-6.209,612.497-6.945,615.197l-0.479,1.759l-1.723,0.592
							C1081.213,2445.248,991.879,2458.418,915.834,2458.418z"/>
					</g>
				</g>
			</g>
		</g>
		<g>
			
				<linearGradient id="SVGID_00000037693306229607803730000015538630044959495327_" gradientUnits="userSpaceOnUse" x1="1545.9756" y1="1536.1375" x2="2671.3381" y2="1536.1375">
				<stop  offset="0.0036" style="stop-color:#E38DDD"/>
				<stop  offset="1" style="stop-color:#9571F6"/>
			</linearGradient>
			<path style="fill:url(#SVGID_00000037693306229607803730000015538630044959495327_);" d="M2619.166,1031.866l-911.78,7.343
				c-30.016,0.242-58.012,31.495-62.614,69.769l-98.154,816.259c-4.569,38.01,15.719,69.825,45.412,71.267l901.747,43.848
				c33.071,1.607,64.205-30,69.215-70.299l107.652-865.386C2675.693,1064.072,2652.613,1031.597,2619.166,1031.866z"/>
			
				<linearGradient id="SVGID_00000159436650778598156530000007354702939473076900_" gradientUnits="userSpaceOnUse" x1="1487.0023" y1="2381.0693" x2="2519.738" y2="2381.0693">
				<stop  offset="0.0036" style="stop-color:#E38DDD"/>
				<stop  offset="1" style="stop-color:#9571F6"/>
			</linearGradient>
			<path style="fill:url(#SVGID_00000159436650778598156530000007354702939473076900_);" d="M2468.101,2253.548l-899.985-54.634
				c-29.636-1.801-57.243,26.375-61.805,64.305l-18.666,154.451c-4.552,37.87,15.539,72.934,45.078,75.249l896.972,70.249
				c32.893,2.576,63.845-31.197,68.835-71.343l20.523-164.069C2524.052,2287.541,2501.107,2255.551,2468.101,2253.548z"/>
			
				<linearGradient id="SVGID_00000066501954006282099280000001762233826391669121_" gradientUnits="userSpaceOnUse" x1="1437.2012" y1="2803.2454" x2="2464.946" y2="2803.2454">
				<stop  offset="0.0036" style="stop-color:#E38DDD"/>
				<stop  offset="1" style="stop-color:#9571F6"/>
			</linearGradient>
			<path style="fill:url(#SVGID_00000066501954006282099280000001762233826391669121_);" d="M2413.745,2686.876l-895.67-76.472
				c-29.497-2.519-57.033,26.494-61.578,64.296l-18.656,155.456c-4.538,37.743,15.542,70.78,44.944,73.812l892.695,92.009
				c32.733,3.375,63.388-26.297,68.36-66.294l20.42-164.61C2469.24,2725.013,2446.59,2689.68,2413.745,2686.876z"/>
		</g>
		<g>
			<g>
				<g>
					
						<linearGradient id="SVGID_00000046321528969897255900000007750638629962693555_" gradientUnits="userSpaceOnUse" x1="1345.0769" y1="1930.2136" x2="939.299" y2="1974.4801" gradientTransform="matrix(-1 0 0 1 3475.8816 0)">
						<stop  offset="0" style="stop-color:#444B8C"/>
						<stop  offset="0.9964" style="stop-color:#26264F"/>
					</linearGradient>
					<path style="fill:url(#SVGID_00000046321528969897255900000007750638629962693555_);" d="M1646.285,907.872l-247.207,2054.736
						c-3.706,30.808,17.528,58.425,47.272,61.376L2476,3137.025c63.076,3.923,97.611-28.302,101.503-61.062l259.539-2184.527
						c3.87-32.577-27.075-62.08-90.419-62.08l-1039.017,21.883C1677.528,851.743,1649.973,877.226,1646.285,907.872z"/>
					
						<linearGradient id="SVGID_00000134228500023617246230000001776082344042760859_" gradientUnits="userSpaceOnUse" x1="1702.6056" y1="907.3696" x2="699.2344" y2="4323.2666" gradientTransform="matrix(-1 0 0 1 3475.8816 0)">
						<stop  offset="0" style="stop-color:#444B8C"/>
						<stop  offset="0.9964" style="stop-color:#26264F"/>
					</linearGradient>
					<path style="fill:url(#SVGID_00000134228500023617246230000001776082344042760859_);" d="M1599.945,904.336L1351.38,2969.35
						c-3.727,30.963,17.579,58.723,47.433,61.695l1067.457,106.277c33.467,3.331,64.136-20.878,68.051-53.807l260.997-2195.816
						c3.891-32.745-20.69-59.066-54.522-58.495l-1079.289,18.21C1631.316,847.923,1603.652,873.537,1599.945,904.336z"/>
					
						<linearGradient id="SVGID_00000018208576317883980910000012736121701446393017_" gradientUnits="userSpaceOnUse" x1="1389.4181" y1="2021.4302" x2="2742.9797" y2="2021.4302">
						<stop  offset="0.0036" style="stop-color:#E38DDD"/>
						<stop  offset="1" style="stop-color:#9571F6"/>
					</linearGradient>
					<path style="fill:url(#SVGID_00000018208576317883980910000012736121701446393017_);" d="M1620.199,1018.24l-230.387,1914.677
						c-3.48,28.927,16.472,54.814,44.417,57.531l1003.907,97.587c31.111,3.024,59.621-19.574,63.266-50.225l241.198-2028.425
						c3.626-30.492-19.195-55.163-50.62-54.828l-1014.21,10.8C1649.536,965.658,1623.663,989.454,1620.199,1018.24z"/>
					
						<linearGradient id="SVGID_00000076577056079114098900000007374323422733321354_" gradientUnits="userSpaceOnUse" x1="1326.6187" y1="823.2334" x2="147.3866" y2="4016.9866" gradientTransform="matrix(-1 0 0 1 3475.8816 0)">
						<stop  offset="0" style="stop-color:#FFC444"/>
						<stop  offset="0.9964" style="stop-color:#F36F56"/>
					</linearGradient>
					<path style="fill:url(#SVGID_00000076577056079114098900000007374323422733321354_);" d="M2158.547,902.917
						c-1.316,10.993,6.573,19.792,17.632,19.653c11.072-0.139,21.124-9.183,22.441-20.197c1.318-11.015-6.601-19.813-17.673-19.651
						C2169.886,882.883,2159.862,891.925,2158.547,902.917z"/>
					<g style="opacity:0.2;">
						<path style="fill:#FFFFFF;" d="M1793.766,2303.492c205.522-379.981,512.54-493.719,604.976-885.331
							c49.966-211.682,15.923-414.289-41.413-582.488l383.467-6.471c33.832-0.57,58.413,25.75,54.521,58.495l-260.996,2195.817
							c-3.914,32.929-34.583,57.139-68.051,53.807l-839.125-83.544C1620.939,2713.3,1702.152,2472.871,1793.766,2303.492z"/>
					</g>
				</g>
			</g>
			<g>
				<path style="fill:#FFFFFF;" d="M2562.925,1953.465c-5.009,40.283-36.135,71.88-69.2,70.276l-901.553-43.727
					c-29.687-1.44-49.972-33.239-45.403-71.232l98.131-815.921c4.601-38.258,32.591-69.501,62.602-69.746l911.585-7.44
					c33.44-0.273,56.514,32.185,51.469,72.764L2562.925,1953.465z"/>
				<path style="fill:#FFFFFF;" d="M2498.477,2475.019c-4.989,40.128-35.934,73.89-68.821,71.319l-896.778-70.118
					c-29.533-2.309-49.62-37.356-45.068-75.21l18.662-154.387c4.559-37.914,32.161-66.08,61.791-64.285l899.791,54.51
					c32.999,1.999,55.939,33.972,50.942,74.169L2498.477,2475.019z"/>
				<path style="fill:#FFFFFF;" d="M2443.797,2912.692c-4.971,39.981-35.619,69.643-68.345,66.274l-892.501-91.87
					c-29.395-3.026-49.472-36.047-44.935-73.774l18.653-155.391c4.544-37.785,32.073-66.789,61.564-64.275l895.477,76.339
					c32.838,2.799,55.482,38.114,50.503,78.159L2443.797,2912.692z"/>
				<g>
					<g>
						
							<linearGradient id="SVGID_00000008849654847605791610000009043484755708372382_" gradientUnits="userSpaceOnUse" x1="1675.8062" y1="1075.3654" x2="2976.6533" y2="2738.7456">
							<stop  offset="0.0036" style="stop-color:#E38DDD"/>
							<stop  offset="1" style="stop-color:#9571F6"/>
						</linearGradient>
						<path style="fill:url(#SVGID_00000008849654847605791610000009043484755708372382_);" d="M1732.089,1195.737l-6.599-54.959
							l-0.338,0c-0.872,11.176-1.534,18.632-1.984,22.368l-3.927,32.565l-10.392-0.021l8.437-69.982l15.85-0.034l6.548,53.582
							l0.226,0l20.299-53.64l15.93-0.034l-8.482,70.224l-10.904-0.022l4.01-33.213c0.189-1.568,0.427-3.376,0.711-5.424
							c0.285-2.048,1.112-7.489,2.48-16.323l-0.34,0l-20.84,54.932L1732.089,1195.737z"/>
						
							<linearGradient id="SVGID_00000168805286433537817040000012586336127173113989_" gradientUnits="userSpaceOnUse" x1="1718.7954" y1="1041.7455" x2="3019.6431" y2="2705.1262">
							<stop  offset="0.0036" style="stop-color:#E38DDD"/>
							<stop  offset="1" style="stop-color:#9571F6"/>
						</linearGradient>
						<path style="fill:url(#SVGID_00000168805286433537817040000012586336127173113989_);" d="M1838.118,1160.6
							c-1.412,11.669-4.781,20.634-10.103,26.893c-5.319,6.256-12.231,9.374-20.732,9.356c-8.492-0.017-14.63-3.157-18.417-9.415
							c-3.785-6.256-4.971-15.23-3.557-26.927c1.414-11.698,4.77-20.635,10.072-26.813c5.305-6.182,12.217-9.284,20.742-9.302
							c8.533-0.019,14.688,3.084,18.46,9.31C1838.355,1139.932,1839.534,1148.899,1838.118,1160.6z M1797.6,1160.603
							c-0.95,7.857-0.491,13.774,1.377,17.753c1.869,3.98,5.141,5.973,9.818,5.979c9.388,0.012,15.044-7.899,16.96-23.734
							c1.92-15.87-1.794-23.799-11.137-23.785c-4.68,0.007-8.449,2.009-11.308,6.007
							C1800.453,1146.819,1798.55,1152.746,1797.6,1160.603z"/>
						
							<linearGradient id="SVGID_00000150814019520234419240000006525311613216974220_" gradientUnits="userSpaceOnUse" x1="1758.8972" y1="1010.3837" x2="3059.7441" y2="2673.7637">
							<stop  offset="0.0036" style="stop-color:#E38DDD"/>
							<stop  offset="1" style="stop-color:#9571F6"/>
						</linearGradient>
						<path style="fill:url(#SVGID_00000150814019520234419240000006525311613216974220_);" d="M1896.897,1196.066l-15.089-0.03
							l-17.831-53.449l-0.344,0c-0.659,9.432-1.233,16.161-1.72,20.185l-4.024,33.217l-10.563-0.021l8.545-70.552l14.925-0.032
							l17.871,52.915l0.268,0c0.731-9.189,1.328-15.686,1.789-19.491l4.059-33.475l10.696-0.023L1896.897,1196.066z"/>
						
							<linearGradient id="SVGID_00000048471519894817204240000008481630875260798094_" gradientUnits="userSpaceOnUse" x1="1793.8209" y1="983.072" x2="3094.6685" y2="2646.4526">
							<stop  offset="0.0036" style="stop-color:#E38DDD"/>
							<stop  offset="1" style="stop-color:#9571F6"/>
						</linearGradient>
						<path style="fill:url(#SVGID_00000048471519894817204240000008481630875260798094_);" d="M1964.085,1160.009
							c-1.421,11.69-5.154,20.639-11.197,26.847c-6.038,6.204-14.039,9.294-23.996,9.274l-15.913-0.032l8.596-70.823l17.658-0.037
							c9.196-0.02,15.972,3.024,20.323,9.133C1963.909,1140.484,1965.419,1149.031,1964.085,1160.009z M1951.609,1160.399
							c1.852-15.242-2.57-22.857-13.256-22.842l-6.352,0.009l-5.603,46.149l5.117,0.006
							C1943.016,1183.736,1949.718,1175.963,1951.609,1160.399z"/>
						
							<linearGradient id="SVGID_00000137821218141412917270000014949853110190294191_" gradientUnits="userSpaceOnUse" x1="1828.17" y1="956.2084" x2="3129.0215" y2="2619.594">
							<stop  offset="0.0036" style="stop-color:#E38DDD"/>
							<stop  offset="1" style="stop-color:#9571F6"/>
						</linearGradient>
						<path style="fill:url(#SVGID_00000137821218141412917270000014949853110190294191_);" d="M2008.054,1196.288l-2.052-16.952
							l-20.664-0.021l-6.162,16.915l-12.915-0.026l28.65-71.377l14.703-0.031l11.419,71.518L2008.054,1196.288z M2004.671,1166.675
							c-1.934-15.352-3.018-24.032-3.251-26.043c-0.233-2.011-0.383-3.601-0.447-4.769c-1.359,4.155-5.051,14.427-11.075,30.808
							L2004.671,1166.675z"/>
						
							<linearGradient id="SVGID_00000133493062068050202180000003798540930050891948_" gradientUnits="userSpaceOnUse" x1="1873.9017" y1="920.4439" x2="3174.751" y2="2583.8269">
							<stop  offset="0.0036" style="stop-color:#E38DDD"/>
							<stop  offset="1" style="stop-color:#9571F6"/>
						</linearGradient>
						<path style="fill:url(#SVGID_00000133493062068050202180000003798540930050891948_);" d="M2053.031,1154.385l15.498-29.421
							l13.066-0.028l-24.285,43.659l-3.388,27.785l-12.014-0.024l3.325-27.278l-13.527-44.036l13.089-0.028L2053.031,1154.385z"/>
					</g>
					
						<linearGradient id="SVGID_00000177451971808419347830000014349170475622571672_" gradientUnits="userSpaceOnUse" x1="1507.594" y1="1206.9167" x2="2808.4419" y2="2870.2979">
						<stop  offset="0.0036" style="stop-color:#E38DDD"/>
						<stop  offset="1" style="stop-color:#9571F6"/>
					</linearGradient>
					<polygon style="fill:url(#SVGID_00000177451971808419347830000014349170475622571672_);" points="2494.533,1938.74 
						1602.845,1899.757 1606.893,1866.402 2499.046,1903.633 					"/>
					
						<linearGradient id="SVGID_00000006699818655184336450000010027447279219928727_" gradientUnits="userSpaceOnUse" x1="1396.6041" y1="1293.7169" x2="2697.4531" y2="2957.0994">
						<stop  offset="0.0036" style="stop-color:#E38DDD"/>
						<stop  offset="1" style="stop-color:#9571F6"/>
					</linearGradient>
					<polygon style="fill:url(#SVGID_00000006699818655184336450000010027447279219928727_);" points="1733.427,1827.879 
						1643.632,1824.363 1676.516,1549.955 1766.572,1552.017 					"/>
					
						<linearGradient id="SVGID_00000000923210695971461050000007140869310560898187_" gradientUnits="userSpaceOnUse" x1="1510.3254" y1="1204.7793" x2="2811.176" y2="2868.1641">
						<stop  offset="0.0036" style="stop-color:#E38DDD"/>
						<stop  offset="1" style="stop-color:#9571F6"/>
					</linearGradient>
					<polygon style="fill:url(#SVGID_00000000923210695971461050000007140869310560898187_);" points="1851.056,1832.485 
						1760.019,1828.92 1811.958,1401.283 1903.421,1402.565 					"/>
					
						<linearGradient id="SVGID_00000066504096329032613820000010644290058288570765_" gradientUnits="userSpaceOnUse" x1="1517.63" y1="1199.0663" x2="2818.4851" y2="2862.4568">
						<stop  offset="0.0036" style="stop-color:#E38DDD"/>
						<stop  offset="1" style="stop-color:#9571F6"/>
					</linearGradient>
					<polygon style="fill:url(#SVGID_00000066504096329032613820000010644290058288570765_);" points="1973.054,1837.262 
						1880.718,1833.646 1904.193,1638.769 1996.693,1641.337 					"/>
					
						<linearGradient id="SVGID_00000010306478743952934460000005916847881390568354_" gradientUnits="userSpaceOnUse" x1="1633.1163" y1="1108.7522" x2="2933.9661" y2="2772.1357">
						<stop  offset="0.0036" style="stop-color:#E38DDD"/>
						<stop  offset="1" style="stop-color:#9571F6"/>
					</linearGradient>
					<polygon style="fill:url(#SVGID_00000010306478743952934460000005916847881390568354_);" points="2094.033,1841.999 
						2000.401,1838.333 2042.961,1491.269 2136.946,1493.056 					"/>
					
						<linearGradient id="SVGID_00000042016774809509254320000002317911959833055902_" gradientUnits="userSpaceOnUse" x1="1688.0923" y1="1065.7583" x2="2988.9424" y2="2729.1423">
						<stop  offset="0.0036" style="stop-color:#E38DDD"/>
						<stop  offset="1" style="stop-color:#9571F6"/>
					</linearGradient>
					<polygon style="fill:url(#SVGID_00000042016774809509254320000002317911959833055902_);" points="2216.72,1846.803 
						2121.765,1843.085 2156.05,1560.935 2251.287,1563.115 					"/>
					
						<linearGradient id="SVGID_00000129916645469028818610000002809191208586793869_" gradientUnits="userSpaceOnUse" x1="1740.7778" y1="1024.5529" x2="3041.6323" y2="2687.9424">
						<stop  offset="0.0036" style="stop-color:#E38DDD"/>
						<stop  offset="1" style="stop-color:#9571F6"/>
					</linearGradient>
					<polygon style="fill:url(#SVGID_00000129916645469028818610000002809191208586793869_);" points="2344.001,1851.787 
						2247.663,1848.015 2271.794,1648.974 2368.306,1651.653 					"/>
					
						<linearGradient id="SVGID_00000026883350041974218280000006089186301923055291_" gradientUnits="userSpaceOnUse" x1="1885.4404" y1="911.4216" x2="3186.2905" y2="2574.8054">
						<stop  offset="0.0036" style="stop-color:#E38DDD"/>
						<stop  offset="1" style="stop-color:#9571F6"/>
					</linearGradient>
					<polygon style="fill:url(#SVGID_00000026883350041974218280000006089186301923055291_);" points="2470.257,1856.731 
						2372.538,1852.905 2427.362,1409.909 2525.549,1411.285 					"/>
					
						<linearGradient id="SVGID_00000163778563016684289410000006629271084469322625_" gradientUnits="userSpaceOnUse" x1="2111.7683" y1="734.42" x2="3412.6228" y2="2397.8093">
						<stop  offset="0.0036" style="stop-color:#E38DDD"/>
						<stop  offset="1" style="stop-color:#9571F6"/>
					</linearGradient>
					<polygon style="fill:url(#SVGID_00000163778563016684289410000006629271084469322625_);" points="2588.976,1180.609 
						2298.615,1180.302 2303.028,1143.773 2593.527,1143.476 					"/>
				</g>
				<g>
					
						<linearGradient id="SVGID_00000081618632539353755680000014524892129187160721_" gradientUnits="userSpaceOnUse" x1="1784.9792" y1="1803.9413" x2="2736.6262" y2="3096.7969">
						<stop  offset="0.0036" style="stop-color:#E38DDD"/>
						<stop  offset="1" style="stop-color:#9571F6"/>
					</linearGradient>
					<path style="fill:url(#SVGID_00000081618632539353755680000014524892129187160721_);" d="M2187.115,2431.105l36.546-72.07
						l-36.027-2.465l1.971-16.021l52.477,3.541l-1.478,11.989l-37.315,76.201L2187.115,2431.105z"/>
					
						<linearGradient id="SVGID_00000093154474093986046250000010649782375908935608_" gradientUnits="userSpaceOnUse" x1="1834.1248" y1="1767.7654" x2="2785.7717" y2="3060.6206">
						<stop  offset="0.0036" style="stop-color:#E38DDD"/>
						<stop  offset="1" style="stop-color:#9571F6"/>
					</linearGradient>
					<path style="fill:url(#SVGID_00000093154474093986046250000010649782375908935608_);" d="M2320.56,2440.803l-2.697-21.986
						l-26.938-1.925l-8.009,21.175l-16.825-1.223l37.246-89.118l19.17,1.293l14.984,93.014L2320.56,2440.803z M2316.113,2402.414
						c-2.542-19.916-3.965-31.172-4.272-33.779c-0.308-2.607-0.503-4.667-0.589-6.173c-1.766,5.219-6.567,18.088-14.399,38.594
						L2316.113,2402.414z"/>
					
						<linearGradient id="SVGID_00000134244663466752788650000009063936568115639936_" gradientUnits="userSpaceOnUse" x1="1895.9899" y1="1722.2285" x2="2847.6326" y2="3015.0781">
						<stop  offset="0.0036" style="stop-color:#E38DDD"/>
						<stop  offset="1" style="stop-color:#9571F6"/>
					</linearGradient>
					<path style="fill:url(#SVGID_00000134244663466752788650000009063936568115639936_);" d="M2380.935,2445.191l-9.093-72.691
						l-0.458-0.031c-1.154,14.571-2.031,24.282-2.631,29.136l-5.239,42.32l-14.083-1.023l11.25-90.932l21.487,1.45l9.022,70.887
						l0.307,0.022l27.403-68.431l21.629,1.459l-11.33,91.341l-14.805-1.076l5.355-43.188c0.253-2.039,0.571-4.39,0.952-7.049
						c0.382-2.662,1.49-9.721,3.324-21.182l-0.461-0.032l-28.136,70.072L2380.935,2445.191z"/>
				</g>
				<g>
					
						<linearGradient id="SVGID_00000146500624753840059580000000721937728589556367_" gradientUnits="userSpaceOnUse" x1="1677.2861" y1="2239.0205" x2="2199.7595" y2="2974.7473">
						<stop  offset="0.0036" style="stop-color:#E38DDD"/>
						<stop  offset="1" style="stop-color:#9571F6"/>
					</linearGradient>
					<path style="fill:url(#SVGID_00000146500624753840059580000000721937728589556367_);" d="M2086.743,2858.135l-15.241-1.489
						l6.357-51.765l1.192-8.49l1.39-9.281c-2.917,2.903-4.929,4.8-6.035,5.685l-9.289,7.479l-5.938-12.062l26.023-20.781
						l12.543,1.16L2086.743,2858.135z"/>
					
						<linearGradient id="SVGID_00000066504258303693883230000014918258006661271470_" gradientUnits="userSpaceOnUse" x1="1711.4865" y1="2214.7329" x2="2233.957" y2="2950.4563">
						<stop  offset="0.0036" style="stop-color:#E38DDD"/>
						<stop  offset="1" style="stop-color:#9571F6"/>
					</linearGradient>
					<path style="fill:url(#SVGID_00000066504258303693883230000014918258006661271470_);" d="M2165.163,2820.304
						c-1.934,15.704-5.449,27.125-10.542,34.262c-5.09,7.133-11.957,10.273-20.597,9.429c-8.368-0.818-14.195-5.319-17.482-13.501
						c-3.287-8.179-3.998-19.848-2.133-35.016c1.946-15.823,5.443-27.293,10.497-34.417c5.056-7.124,11.885-10.288,20.494-9.493
						c8.384,0.775,14.243,5.295,17.573,13.564C2166.301,2793.408,2167.032,2805.131,2165.163,2820.304z M2129.624,2816.925
						c-1.354,11.008-1.555,18.966-0.604,23.88c0.95,4.918,3.245,7.55,6.886,7.903c3.575,0.346,6.455-1.817,8.64-6.498
						c2.185-4.678,3.948-12.469,5.29-23.364c1.357-11.021,1.528-19.013,0.513-23.98c-1.016-4.963-3.296-7.611-6.84-7.942
						c-3.609-0.337-6.488,1.829-8.634,6.492C2132.729,2798.082,2130.978,2805.916,2129.624,2816.925z"/>
					
						<linearGradient id="SVGID_00000132064564399534310070000017956401458432218045_" gradientUnits="userSpaceOnUse" x1="1763.1307" y1="2178.0579" x2="2285.604" y2="2913.7847">
						<stop  offset="0.0036" style="stop-color:#E38DDD"/>
						<stop  offset="1" style="stop-color:#9571F6"/>
					</linearGradient>
					<path style="fill:url(#SVGID_00000132064564399534310070000017956401458432218045_);" d="M2249.013,2873.987l-2.674-22.02
						l-26.755-2.581l-7.959,20.948l-16.71-1.632l37.012-88.077l19.04,1.76l14.863,93.245L2249.013,2873.987z M2244.604,2835.544
						c-2.52-19.948-3.931-31.223-4.236-33.834c-0.305-2.611-0.498-4.672-0.584-6.179c-1.755,5.168-6.526,17.901-14.309,38.186
						L2244.604,2835.544z"/>
					
						<linearGradient id="SVGID_00000165925383391563348960000015256623481494179261_" gradientUnits="userSpaceOnUse" x1="1825.0494" y1="2134.0872" x2="2347.5227" y2="2869.814">
						<stop  offset="0.0036" style="stop-color:#E38DDD"/>
						<stop  offset="1" style="stop-color:#9571F6"/>
					</linearGradient>
					<path style="fill:url(#SVGID_00000165925383391563348960000015256623481494179261_);" d="M2308.978,2879.844l-9.015-72.807
						l-0.455-0.042c-1.149,14.521-2.022,24.197-2.62,29.029l-5.212,42.13l-13.987-1.366l11.193-90.523l21.341,1.973l8.945,71.004
						l0.305,0.03l27.23-67.66l21.481,1.987l-11.273,90.929l-14.703-1.436l5.328-42.994c0.251-2.029,0.568-4.37,0.947-7.015
						c0.38-2.649,1.482-9.67,3.305-21.069l-0.458-0.043l-27.959,69.281L2308.978,2879.844z"/>
				</g>
				<g>
					
						<linearGradient id="SVGID_00000163070383181983048160000003940926822402856598_" gradientUnits="userSpaceOnUse" x1="1516.4592" y1="2001.5942" x2="2468.104" y2="3294.4465">
						<stop  offset="0.0036" style="stop-color:#E38DDD"/>
						<stop  offset="1" style="stop-color:#9571F6"/>
					</linearGradient>
					<polygon style="fill:url(#SVGID_00000163070383181983048160000003940926822402856598_);" points="1903.655,2335.595 
						1555.616,2311.818 1562.351,2257.275 1910.526,2279.925 					"/>
					
						<linearGradient id="SVGID_00000165213264037562556900000010757504515688914091_" gradientUnits="userSpaceOnUse" x1="1423.6774" y1="2069.8889" x2="2375.323" y2="3362.7424">
						<stop  offset="0.0036" style="stop-color:#E38DDD"/>
						<stop  offset="1" style="stop-color:#9571F6"/>
					</linearGradient>
					<polygon style="fill:url(#SVGID_00000165213264037562556900000010757504515688914091_);" points="1735.549,2407.853 
						1546.182,2393.984 1553.164,2332.318 1742.6,2345.493 					"/>
				</g>
				<g>
					
						<linearGradient id="SVGID_00000173159540851933365360000008289101562038990269_" gradientUnits="userSpaceOnUse" x1="1452.9211" y1="2398.3521" x2="1975.3939" y2="3134.0781">
						<stop  offset="0.0036" style="stop-color:#E38DDD"/>
						<stop  offset="1" style="stop-color:#9571F6"/>
					</linearGradient>
					<polygon style="fill:url(#SVGID_00000173159540851933365360000008289101562038990269_);" points="1851.769,2765.611 
						1505.279,2733.17 1512.055,2677.375 1858.701,2708.666 					"/>
					
						<linearGradient id="SVGID_00000147907774902503922070000007726725177533218214_" gradientUnits="userSpaceOnUse" x1="1361.1271" y1="2463.5391" x2="1883.6002" y2="3199.2659">
						<stop  offset="0.0036" style="stop-color:#E38DDD"/>
						<stop  offset="1" style="stop-color:#9571F6"/>
					</linearGradient>
					<polygon style="fill:url(#SVGID_00000147907774902503922070000007726725177533218214_);" points="1684.571,2828.698 
						1496.046,2810.171 1502.831,2754.146 1691.451,2772.044 					"/>
				</g>
			</g>
			<g style="opacity:0.3;">
				<path style="fill:#FFFFFF;" d="M1797.097,2303.434c205.522-379.981,512.54-493.719,604.976-885.331
					c49.966-211.682,15.923-414.289-41.414-582.487l383.467-6.471c33.832-0.57,58.413,25.75,54.521,58.495l-260.996,2195.816
					c-3.914,32.929-34.583,57.139-68.051,53.807l-839.125-83.544C1624.271,2713.242,1705.484,2472.813,1797.097,2303.434z"/>
			</g>
		</g>
		<g>
			<g>
				<g>
					
						<linearGradient id="SVGID_00000159470020570574000280000012133520625936089011_" gradientUnits="userSpaceOnUse" x1="614.2487" y1="957.8254" x2="1301.7954" y2="957.8254">
						<stop  offset="0" style="stop-color:#311944"/>
						<stop  offset="1" style="stop-color:#893976"/>
					</linearGradient>
					<path style="fill:url(#SVGID_00000159470020570574000280000012133520625936089011_);" d="M1301.795,745.355
						c0-22.895-18.702-42.259-41.756-43.263l-598.257-26.021c-25.927-1.129-47.534,17.757-47.534,42.185v477.523
						c0,24.428,21.535,44.059,47.464,43.847l14.01-0.153l0.659-1.046l583.223-11.53c23.055-0.188,42.19-11.099,42.19-33.994V745.355
						z M778.517,784.19c-22.279-0.757-40.408-18.569-40.408-39.78c0-21.211,18.129-37.662,40.408-36.747
						c22.187,0.911,40.109,18.715,40.109,39.769C818.626,768.485,800.704,784.944,778.517,784.19z M969.206,790.669
						c-21.497-0.731-38.991-18.215-38.991-39.05c0-20.835,17.493-37.007,38.991-36.124c21.411,0.879,38.706,18.357,38.706,39.04
						S990.617,791.397,969.206,790.669z M1153.271,796.924c-20.756-0.705-37.645-17.875-37.645-38.347s16.889-36.374,37.645-35.521
						c20.674,0.849,37.375,18.012,37.375,38.337C1190.646,781.717,1173.944,797.626,1153.271,796.924z"/>
					
						<linearGradient id="SVGID_00000145765489572449150100000009820270846937696436_" gradientUnits="userSpaceOnUse" x1="629.8748" y1="752.4417" x2="1314.2961" y2="752.4417">
						<stop  offset="0" style="stop-color:#FF9085"/>
						<stop  offset="1" style="stop-color:#FB6FBB"/>
					</linearGradient>
					<path style="fill:url(#SVGID_00000145765489572449150100000009820270846937696436_);" d="M1314.296,828.231V745.35
						c0-22.862-18.17-41.708-41.162-42.71l-596.153-25.937c-10.889-0.474-21.062,2.395-29.058,7.969
						c-10.922,7.603-18.049,19.629-18.049,33.7v109.858H1314.296z M1166.488,723.598c20.618,0.847,37.289,17.979,37.289,38.296
						c0,20.295-16.671,36.177-37.289,35.476c-20.7-0.704-37.559-17.843-37.559-38.285
						C1128.929,738.622,1145.788,722.748,1166.488,723.598z M982.896,716.057c21.35,0.877,38.613,18.323,38.613,38.997
						c0,20.652-17.263,36.803-38.613,36.077c-21.439-0.729-38.9-18.182-38.9-38.986
						C943.995,731.319,961.457,715.177,982.896,716.057z M792.702,708.245c22.125,0.909,40.013,18.68,40.013,39.725
						c0,21.022-17.888,37.451-40.013,36.699c-22.215-0.755-40.312-18.534-40.312-39.713
						C752.39,723.753,770.486,707.332,792.702,708.245z"/>
					<path style="fill:#FFFFFF;" d="M629.875,803.273v392.372c0,24.39,20.298,44.037,46.154,43.826l596.767-4.841
						c22.999-0.188,41.5-18.853,41.5-41.724V824.964L629.875,803.273z"/>
					<g>
						<path style="fill:#BFC8D6;" d="M1073.655,881.705c0-5.439-3.978-9.943-9.551-10.091l-59.04-1.533
							c-5.639-0.15-12.665,4.14-12.665,9.619v55.299c0,5.478,7.297,10.051,12.936,10.161l57.408,1.101
							c5.573,0.108,10.912-4.214,10.912-9.653V881.705z"/>
						<path style="fill:#BFC8D6;" d="M1176.787,884.343c0-5.386-4.583-9.859-10.048-10.005l-55.219-1.441
							c-5.529-0.147-9.738,4.166-9.738,9.59v54.755c0,5.424,4.135,9.883,9.664,9.991l55.465,1.061
							c5.465,0.106,9.875-4.193,9.875-9.58V884.343z"/>
						<path style="fill:#BFC8D6;" d="M1279.919,886.997c0-5.333-4.753-9.772-10.111-9.915l-54.737-1.474
							c-5.42-0.144-10.157,4.065-10.157,9.435v54.212c0,5.371,4.533,9.839,9.952,9.945l54.873,1.077
							c5.358,0.104,10.18-4.116,10.18-9.449V886.997z"/>
						<path style="fill:#BFC8D6;" d="M1073.655,982.127c0-5.439-3.978-9.904-9.551-9.999l-59.04-0.994
							c-5.639-0.096-12.665,4.235-12.665,9.714v55.299c0,5.478,7.297,10.007,12.936,10.063l57.408,0.564
							c5.573,0.055,10.912-4.305,10.912-9.744V982.127z"/>
						<path style="fill:#BFC8D6;" d="M1176.787,983.793c0-5.386-4.583-9.823-10.048-9.916l-55.219-0.917
							c-5.529-0.094-9.738,4.254-9.738,9.679v54.755c0,5.424,4.135,9.845,9.664,9.899l55.465,0.538
							c5.465,0.054,9.875-4.28,9.875-9.667V983.793z"/>
						<path style="fill:#BFC8D6;" d="M1279.919,985.46c0-5.333-4.753-9.734-10.111-9.825l-54.737-0.957
							c-5.42-0.092-10.157,4.155-10.157,9.525v54.212c0,5.371,4.533,9.8,9.952,9.853l54.873,0.561
							c5.358,0.053,10.18-4.204,10.18-9.537V985.46z"/>
						<path style="fill:#BFC8D6;" d="M751.758,977.032c0-5.606-5.211-10.266-11.133-10.366l-59.701-1.058
							c-5.994-0.102-10.421,4.359-10.421,10.007v57.018c0,5.648,4.215,10.296,10.21,10.355l60.236,0.635
							c5.921,0.059,10.81-4.398,10.81-10.004V977.032z"/>
						<path style="fill:#BFC8D6;" d="M861.141,978.71c0-5.549-4.23-10.107-10.032-10.205l-59.752-1.016
							c-5.872-0.1-11.472,4.336-11.472,9.927v56.431c0,5.59,5.838,10.193,11.709,10.252l58.979,0.578
							c5.802,0.057,10.568-4.4,10.568-9.949V978.71z"/>
						<path style="fill:#BFC8D6;" d="M967.398,980.533c0-5.494-4.319-10.066-10.006-10.163l-59.286-1.034
							c-5.755-0.098-11.964,4.258-11.964,9.793v55.869c0,5.535,6.353,10.097,12.108,10.154l58.301,0.628
							c5.687,0.056,10.846-4.295,10.846-9.789V980.533z"/>
						<path style="fill:#BFC8D6;" d="M1073.655,1082.549c0-5.439-3.978-9.866-9.551-9.907l-59.04-0.456
							c-5.639-0.042-12.665,4.33-12.665,9.808v55.299c0,5.478,7.297,9.964,12.936,9.966l57.408,0.027
							c5.573,0.002,10.912-4.397,10.912-9.836V1082.549z"/>
						<path style="fill:#BFC8D6;" d="M1176.787,1083.243c0-5.386-4.583-9.787-10.048-9.827l-55.219-0.393
							c-5.529-0.041-9.738,4.343-9.738,9.767v54.755c0,5.424,4.135,9.806,9.664,9.808l55.465,0.014
							c5.465,0.002,9.875-4.367,9.875-9.753V1083.243z"/>
						<path style="fill:#BFC8D6;" d="M751.758,1080.533c0-5.606-5.211-10.214-11.133-10.258l-59.701-0.482
							c-5.994-0.045-10.421,4.463-10.421,10.112v57.018c0,5.649,4.215,10.251,10.21,10.253l60.236,0.055
							c5.921,0.002,10.81-4.505,10.81-10.111V1080.533z"/>
						<path style="fill:#BFC8D6;" d="M861.141,1081.167c0-5.549-4.23-10.067-10.032-10.11l-59.752-0.454
							c-5.872-0.044-11.472,4.437-11.472,10.027v56.431c0,5.59,5.838,10.146,11.709,10.148l58.979,0.018
							c5.802,0.002,10.568-4.496,10.568-10.046V1081.167z"/>
						<path style="fill:#BFC8D6;" d="M967.398,1081.971c0-5.494-4.319-10.024-10.006-10.066l-59.286-0.479
							c-5.755-0.043-11.964,4.359-11.964,9.894v55.869c0,5.535,6.353,10.05,12.108,10.052l58.301,0.076
							c5.687,0.002,10.846-4.393,10.846-9.887V1081.971z"/>
					</g>
					<path style="fill:#BFC8D6;" d="M788.963,605.599c-37.375-1.891-68.302,28.535-71.293,72.891l31.568,1.374
						c2.575-26.503,19.743-46.118,39.725-45.161c21.595,1.034,39.772,26.13,39.772,54.946c0,28.815-18.177,52.409-39.772,51.589
						c-11.246-0.427-21.599-7.459-28.971-18.151c-4.272,5.883-11.637,19.42-4.665,36.218c10.049,6.607,21.503,10.557,33.635,10.985
						c39.051,1.379,70.613-34.142,70.613-79.312C859.576,645.806,828.014,607.575,788.963,605.599z"/>
					<path style="fill:#BFC8D6;" d="M978.959,615.112c-36.08-1.825-65.931,28.093-68.819,71.673l30.47,1.326
						c2.486-26.041,19.059-45.327,38.349-44.403c20.849,0.998,38.399,25.643,38.399,53.958c0,28.314-17.55,51.51-38.399,50.718
						c-10.857-0.413-20.851-7.314-27.967-17.815c-4.124,5.782-11.233,19.087-4.503,35.587c9.7,6.486,20.758,10.359,32.47,10.773
						c37.702,1.331,68.178-33.593,68.178-77.98C1047.137,654.56,1016.662,617.019,978.959,615.112z"/>
					<path style="fill:#BFC8D6;" d="M1163.004,624.52c-34.821-1.761-63.628,27.654-66.415,70.466l29.404,1.28
						c2.399-25.584,18.393-44.544,37.011-43.652c20.123,0.964,37.064,25.163,37.064,52.982c0,27.818-16.941,50.62-37.064,49.855
						c-10.479-0.398-20.124-7.172-26.992-17.483c-3.98,5.683-10.841,18.759-4.346,34.963c9.361,6.365,20.034,10.164,31.338,10.563
						c36.392,1.285,65.811-33.048,65.811-76.66C1228.815,663.221,1199.396,626.361,1163.004,624.52z"/>
					<path style="opacity:0.3;fill:#BFC8D6;" d="M1314.296,1177.861v15.056c0,22.862-18.17,41.545-41.162,41.733l-596.753,4.823
						c-25.846,0.211-46.506-19.437-46.506-43.816V718.373c0-14.071,6.947-26.339,17.869-33.942
						c23.733,8.535,54.298,32.356,69.952,96.923c27.603,113.784,51.355,162.38,157.79,159.961
						c68.031-1.548,120.199,1.584,152.714,31.566c17.456,16.072,29.332,39.949,34.967,75.074
						c3.297,20.553,18.055,33.659,39.125,43.27c20.63,9.44,47.438,15.519,75.332,22.073
						C1228.837,1125.299,1286.169,1138.913,1314.296,1177.861z"/>
				</g>
			</g>
			<g>
				<path style="fill:#BFC8D6;" d="M1822.547,1091.121c-2.67,0-5.255-1.754-6.631-4.262l-137.586-251.335h-312.766
					c-4.171,0-7.553-2.715-7.553-6.886s3.382-6.886,7.553-6.886h317.24c2.759,0,5.296,1.175,6.624,3.595l139.737,254.756
					c2.006,3.655,0.664,8.164-2.995,10.171C1825.018,1090.904,1823.775,1091.121,1822.547,1091.121z"/>
			</g>
		</g>
		<g>
			<g>
				
					<linearGradient id="SVGID_00000003062963096586983700000012084890434014046353_" gradientUnits="userSpaceOnUse" x1="1973.8873" y1="1588.0504" x2="1865.2938" y2="1890.969">
					<stop  offset="0" style="stop-color:#FFC444"/>
					<stop  offset="0.9964" style="stop-color:#F36F56"/>
				</linearGradient>
				<path style="fill:url(#SVGID_00000003062963096586983700000012084890434014046353_);" d="M1884.867,1761.744
					c0,0,14.06-21.607,22.768-37.492c8.708-15.887,52.063-62.365,52.063-62.365s4.263,6.287-4.911,17.91
					c-9.175,11.622-28.889,31.931-23.195,39.151c5.694,7.223,20.267,12.656,11.649,28.183c-8.62,15.527-27.045,7.297-34.83,19.837
					c-7.786,12.539-15.685,26.16-15.685,26.16L1884.867,1761.744z"/>
				<path style="fill:#FFFFFF;" d="M1914.55,1795.13c-8.068,33.959-22.986,81.472-52.247,132.929
					c-12.909,22.697-53.285,89.503-127.011,147.271c-59.992,46.975-151.503,95.348-229.137,112.452
					c-52.354,11.547-98.433,8.821-124.25-18.145c-57.267-59.776,10.936-211.314,23.558-238.567
					c32.057,11.402,84.268,25.532,149.46,23.739c21.372-0.611,76.916-2.654,137.229-27.827
					c111.701-46.58,166.886-142.107,185.175-177.716c8.284,10.22,16.567,20.44,24.851,30.623
					C1906.301,1784.981,1910.425,1790.038,1914.55,1795.13z"/>
				
					<linearGradient id="SVGID_00000023266216026913987620000001058064693451116438_" gradientUnits="userSpaceOnUse" x1="1442.226" y1="1983.8358" x2="1914.5499" y2="1983.8358">
					<stop  offset="0" style="stop-color:#AA80F9"/>
					<stop  offset="0.9964" style="stop-color:#6165D7"/>
				</linearGradient>
				<path style="opacity:0.1;fill:url(#SVGID_00000023266216026913987620000001058064693451116438_);" d="M1914.55,1795.13
					c-8.068,33.959-22.986,81.472-52.247,132.929c-12.909,22.697-53.285,89.503-127.011,147.271
					c-59.992,46.975-151.503,95.348-229.137,112.452c-32.094-43.318-63.865-86.311-63.899-86.348
					c-1.471-1.972,52.065-32.845,55.222-34.423c34.782-17.033,72.183-26.931,111.162-23.058
					c54.325,5.451,84.016-32.954,116.432-68.813c37.58-41.525,87.208-69.315,123.462-112.417
					c20.941-24.922,38.979-53.538,53.644-82.834C1906.301,1784.981,1910.425,1790.038,1914.55,1795.13z"/>
				
					<linearGradient id="SVGID_00000181065943158596817240000007446682176708830615_" gradientUnits="userSpaceOnUse" x1="1390.449" y1="3200.0933" x2="1472.6708" y2="3200.0933" gradientTransform="matrix(-0.996 0.0897 0.0897 0.996 2456.5469 -160.4537)">
					<stop  offset="0" style="stop-color:#444B8C"/>
					<stop  offset="0.9964" style="stop-color:#26264F"/>
				</linearGradient>
				<path style="fill:url(#SVGID_00000181065943158596817240000007446682176708830615_);" d="M1281.831,3139.398
					c-4.266,3.922-4.536,13.083-4.711,19.07c-0.08,2.675-0.119,4.012,0.236,4.935c2.586,6.721,15.922,6.631,36.895,7.49
					c33.144,1.358,43.103,3.353,45.383-1.706c2.135-4.741-4.17-11.906-4.878-12.696c-3.811-4.242-8.254-5.599-16.821-7.851
					c-15.852-4.167-26.522-6.328-29.753-6.983C1288.007,3137.568,1284.632,3136.824,1281.831,3139.398z"/>
				
					<linearGradient id="SVGID_00000052788806993123318180000004895088165383077789_" gradientUnits="userSpaceOnUse" x1="950.2767" y1="3157.2007" x2="986.3503" y2="3082.5366" gradientTransform="matrix(-0.9976 0.0694 0.0694 0.9976 2040.621 -60.6691)">
					<stop  offset="0" style="stop-color:#FFC444"/>
					<stop  offset="0.9964" style="stop-color:#F36F56"/>
				</linearGradient>
				<path style="fill:url(#SVGID_00000052788806993123318180000004895088165383077789_);" d="M1305.077,3106.348l1.292,37.727
					c-1.033,1.764-12.485,6.607-21.101,1.469l-6.502-37.364L1305.077,3106.348z"/>
				
					<linearGradient id="SVGID_00000169517964726923508960000003844107403702596230_" gradientUnits="userSpaceOnUse" x1="1032.5656" y1="3201.5781" x2="1119.9204" y2="3201.5781" gradientTransform="matrix(-0.977 0.2133 0.2133 0.977 1968.0525 -210.6557)">
					<stop  offset="0" style="stop-color:#444B8C"/>
					<stop  offset="0.9964" style="stop-color:#26264F"/>
				</linearGradient>
				<path style="fill:url(#SVGID_00000169517964726923508960000003844107403702596230_);" d="M1561.017,3134.182
					c-5.698,5.656-7.51,16.534-3.118,22.175c4.316,5.546,11.445,1.94,31.029,3.572c20.977,1.751,26.199,7.005,40.688,3.829
					c5.854-1.286,16.248-4.61,16.275-8.739c0.019-2.904-5.088-4.677-22.102-11.406c-24.15-9.55-24.018-9.995-29.193-11.139
					C1581.597,3129.601,1568.544,3126.716,1561.017,3134.182z"/>
				
					<linearGradient id="SVGID_00000066495169194726611160000005753471491760553112_" gradientUnits="userSpaceOnUse" x1="857.2936" y1="3186.0649" x2="894.1309" y2="3109.8206" gradientTransform="matrix(-0.9894 0.1453 0.1453 0.9894 1974.5804 -128.6684)">
					<stop  offset="0" style="stop-color:#FFC444"/>
					<stop  offset="0.9964" style="stop-color:#F36F56"/>
				</linearGradient>
				<path style="fill:url(#SVGID_00000066495169194726611160000005753471491760553112_);" d="M1576.309,3100.632l8.667,35.619
					c-0.897,1.837-11.945,7.538-20.928,3.074l-13.834-34.861L1576.309,3100.632z"/>
				
					<linearGradient id="SVGID_00000078758107080171762440000011028421393260890811_" gradientUnits="userSpaceOnUse" x1="2016.5697" y1="2909.9019" x2="1783.5773" y2="2384.6814" gradientTransform="matrix(0.9986 0.0533 -0.0533 0.9986 -237.5799 -19.3005)">
					<stop  offset="0" style="stop-color:#AA80F9"/>
					<stop  offset="0.9964" style="stop-color:#6165D7"/>
				</linearGradient>
				<path style="fill:url(#SVGID_00000078758107080171762440000011028421393260890811_);" d="M1523.672,2327.864
					c-4.781,117.894-3.816,250.79,7.79,395.736c11.468,143.258,31.323,273.207,54.432,387.778c-13.64,2.9-27.278,5.8-40.917,8.699
					c-32.414-33.63-72.773-85.999-89.759-157.866c-10.542-44.605-5.042-66.944-10.332-121.397
					c-8.423-86.704-32.381-133.172-55.927-203.983c-21.159-63.631-45.219-156.643-54.209-279.733
					C1397.725,2347.353,1460.699,2337.608,1523.672,2327.864z"/>
				
					<linearGradient id="SVGID_00000132084121093391797610000000954511567725873309_" gradientUnits="userSpaceOnUse" x1="1980.4382" y1="2925.929" x2="1747.446" y2="2400.7092" gradientTransform="matrix(0.9986 0.0533 -0.0533 0.9986 -237.5799 -19.3005)">
					<stop  offset="0" style="stop-color:#AA80F9"/>
					<stop  offset="0.9964" style="stop-color:#6165D7"/>
				</linearGradient>
				<path style="opacity:0.3;fill:url(#SVGID_00000132084121093391797610000000954511567725873309_);" d="M1504.834,2878.833
					c-15.018-59.476-43.951-75.202-44.981-131.343c-0.729-39.71,13.542-42.957,12.595-80.967
					c-1.436-57.653-35.21-87.883-52.178-124.147c-17.92-38.301-24.786-99.821,23.51-202.15
					c-36.343,5.624-72.686,11.249-109.029,16.871c8.99,123.089,33.051,216.103,54.209,279.732
					c23.546,70.812,47.504,117.281,55.927,203.983c5.29,54.454-0.21,76.792,10.332,121.397
					c16.986,71.868,57.345,124.237,89.759,157.867c3.469-0.738,6.938-1.475,10.407-2.212c-35.04-41.825-47.404-79.177-50.55-109.486
					C1499.717,2959.069,1519.975,2938.801,1504.834,2878.833z"/>
				
					<linearGradient id="SVGID_00000156589763575711339430000005875544625521704333_" gradientUnits="userSpaceOnUse" x1="1443.4674" y1="3037.595" x2="1210.4694" y2="2512.3616" gradientTransform="matrix(0.9976 -0.0694 0.0694 0.9976 -160.8932 92.9864)">
					<stop  offset="0" style="stop-color:#AA80F9"/>
					<stop  offset="0.9964" style="stop-color:#6165D7"/>
				</linearGradient>
				<path style="fill:url(#SVGID_00000156589763575711339430000005875544625521704333_);" d="M1387.35,2320.494
					c-16.231,149.398-31.151,301.664-44.574,456.72c-10.074,116.354-19.046,231.286-26.989,344.751
					c-13.825,0.962-27.651,1.925-41.476,2.886c-11.952-25.417-27.562-64.136-37.052-113.2c-11.526-59.59-6.266-94.33-9.442-155.622
					c-3.566-68.743-13.254-84.196-27.218-171.419c-28.343-177.019-42.514-265.529,2.434-317.715
					C1217.624,2349.955,1262.775,2307.912,1387.35,2320.494z"/>
				<path style="fill:#FFFFFF;" d="M1162.411,1958.659c-43.26,38.985-50.213,93.09-57.145,147.039
					c-11.581,90.131,8.697,178.415,15.682,208.829c10.228,44.528,19.338,63.593,15.397,100.111
					c-4.893,45.333-24.833,70.608-11.338,89.72c9.22,13.059,27.97,14.637,61.242,14.751c72.397,0.248,95.128-7.975,148.422-9.292
					c35.009-0.865,74.551-1.843,125.101,8.797c40.631,8.551,70.491,20.842,97.494,5.308c18.909-10.878,26.895-29.894,28.953-34.906
					c12.925-31.481,0.715-63.753-4.21-77.661c-6.701-18.923-17.88-91.44-40.236-236.474c-6.558-42.541-10.715-76.782-26.148-126.01
					c-10.946-34.915-16.419-52.372-26.659-66.475c-45.445-62.582-140.23-63.689-174.209-64.084
					C1268.197,1917.768,1208.56,1917.071,1162.411,1958.659z"/>
				
					<linearGradient id="SVGID_00000071554385905406739810000002540107791034313872_" gradientUnits="userSpaceOnUse" x1="2105.6702" y1="2236.8289" x2="1810.0255" y2="2744.6421" gradientTransform="matrix(0.9921 0.1254 -0.1254 0.9921 -342.8332 -378.4023)">
					<stop  offset="0" style="stop-color:#AA80F9"/>
					<stop  offset="0.9964" style="stop-color:#6165D7"/>
				</linearGradient>
				<path style="opacity:0.1;fill:url(#SVGID_00000071554385905406739810000002540107791034313872_);" d="M1577.453,2393.662
					c-24.888-13.668-43.626-28.742-57.92-42.792c-71.003-69.791-70.794-117.987-127.491-156.346
					c-51.005-34.509-76.081-8.133-127.534-36.427c-38.779-21.324-85.569-69.87-107.599-194.173
					c-38.349,38.513-45.018,90.21-51.644,141.774c-11.581,90.132,8.697,178.416,15.682,208.83
					c10.229,44.526,19.338,63.593,15.397,100.111c-4.893,45.332-24.833,70.607-11.337,89.72c9.219,13.059,27.97,14.638,61.243,14.75
					c72.397,0.249,95.128-7.975,148.421-9.291c35.01-0.864,74.551-1.843,125.102,8.797c40.63,8.551,70.491,20.842,97.494,5.307
					c18.908-10.878,26.895-29.895,28.953-34.906c12.924-31.481,0.715-63.752-4.21-77.662
					C1580.684,2407.613,1579.18,2401.74,1577.453,2393.662z"/>
				
					<linearGradient id="SVGID_00000178164912058926720970000016032206803694786454_" gradientUnits="userSpaceOnUse" x1="1284.6067" y1="1942.4835" x2="1286.9255" y2="1845.0929">
					<stop  offset="0" style="stop-color:#FFC444"/>
					<stop  offset="0.9964" style="stop-color:#F36F56"/>
				</linearGradient>
				<path style="fill:url(#SVGID_00000178164912058926720970000016032206803694786454_);" d="M1290.196,1883.393
					c-6.09,8.918-2.015,12.793-6.957,20.869c-3.263,5.333-9,10.11-48.695,20.869c-20.677,5.605-24.378,5.733-24.348,6.957
					c0.122,4.826,57.889,7.525,114.782,0c0,0,34.893-4.616,34.783-10.435c-0.089-4.71-24.473-2.271-34.783-17.391
					c-9.337-13.694,0.878-30.041-6.956-34.782C1311.373,1865.456,1297.214,1873.117,1290.196,1883.393z"/>
				<g>
					<g>
						<path style="fill:#FFFFFF;" d="M1262.939,1834.288c-8.867-11.099-10.45-32.597,1.17-43.069
							c6.878-6.198,18.252-8.417,26.693-4.928c9.354,3.867,8.712,12.099,18.524,15.363c7.933,2.64,10.595-1.997,20.87,0
							c2.698,0.525,14.03,2.727,19.306,11.436c7.384,12.186-3.721,28.21-7.963,37.354c-2.101,4.525-5.996,5.942-9.573,9.277
							c-4.956,4.627-12.711,11.984-25.356,24.296c-1.042-3.839-2.616-8.601-5.084-13.796c-0.949-1.999-4.761-9.807-10.458-16.39
							C1279.4,1840.348,1270.635,1843.921,1262.939,1834.288z"/>
						
							<linearGradient id="SVGID_00000135670027583525937050000005123635916724406457_" gradientUnits="userSpaceOnUse" x1="4766.8286" y1="-7.8205" x2="4763.6812" y2="245.7701" gradientTransform="matrix(-0.9971 -0.0753 -0.0753 0.9971 6056.3887 2194.3374)">
							<stop  offset="0" style="stop-color:#FFC444"/>
							<stop  offset="0.9964" style="stop-color:#F36F56"/>
						</linearGradient>
						<path style="fill:url(#SVGID_00000135670027583525937050000005123635916724406457_);" d="M1324.749,1873.985
							c0,0-7.424,11.176-22.432,16.075c-5.617,1.835-12.683,4.463-19.805,1.973c-13.928-4.871-17.37-25.158-18.403-31.248
							c-3.956-23.32,5.358-48.125,13.913-48.695c3.972-0.265,5.056,4.872,13.913,6.957c7.078,1.664,13.597,0.08,13.913,0
							c5.641-1.432,6.7-3.682,10.435-3.479c5.635,0.308,9.582,5.774,10.434,6.957c5.749,7.964,3.711,21.603-4.423,34.653
							c4.779-4.329,10.565-5.823,14.706-3.851c0.66,0.315,2.417,1.484,3.42,3.187
							C1344.05,1862.677,1338.211,1870.108,1324.749,1873.985z"/>
					</g>
					<path style="fill:#FFFFFF;" d="M1263.171,1854.698c0,0,0.938,16.521,7.894,13.043c6.957-3.479,13.913-6.957,20.869,0
						c6.957,6.956,36.738-22.029,36.738-22.029l5.001,4.638c0,0-13.913,6.957-13.913,13.913c0,6.957-12.941,29.487-17.391,38.261
						c-5.422,10.691-30.993,25.855-45.217-6.956C1252.165,1884.06,1263.171,1854.698,1263.171,1854.698z"/>
				</g>
				<path style="fill:#FFFFFF;" d="M1006.599,2514.348c-12.764-12.995-162.191-169.719-109.466-341.058
					c51.071-165.96,267.352-266.187,321.49-228.984c16.241,11.16,16.603,33.803,16.866,50.238
					c1.748,109.152-128.515,148.588-185.268,255.629c-26.431,49.852-45.339,130.25-0.874,260.105
					C1035.099,2511.634,1020.848,2512.991,1006.599,2514.348z"/>
				
					<linearGradient id="SVGID_00000044899460862725648440000011702068456076093856_" gradientUnits="userSpaceOnUse" x1="1281.0083" y1="1874.6238" x2="1283.7476" y2="1904.7562">
					<stop  offset="0" style="stop-color:#FFC444"/>
					<stop  offset="0.9964" style="stop-color:#F36F56"/>
				</linearGradient>
				<path style="fill:url(#SVGID_00000044899460862725648440000011702068456076093856_);" d="M1268.735,1874.291
					c0,0,13.336,7.144,24.767,3.096C1293.502,1877.387,1275.88,1890.961,1268.735,1874.291z"/>
				
					<linearGradient id="SVGID_00000055686161720519270790000000289559775326580874_" gradientUnits="userSpaceOnUse" x1="987.2289" y1="2898.5093" x2="1062.0022" y2="3056.7793" gradientTransform="matrix(0.9781 0.2084 -0.2084 0.9781 659.1533 -533.8928)">
					<stop  offset="0" style="stop-color:#FFC444"/>
					<stop  offset="0.9964" style="stop-color:#F36F56"/>
				</linearGradient>
				<path style="fill:url(#SVGID_00000055686161720519270790000000289559775326580874_);" d="M1049.348,2510.277
					c0,0,7.977,20.805-6.116,61.881c-14.093,41.076-30.422,19.966-32.58,10.691c-2.158-9.275,7.814-69.631,7.814-69.631
					L1049.348,2510.277z"/>
			</g>
			
				<linearGradient id="SVGID_00000090287421381105932560000017773416131841098379_" gradientUnits="userSpaceOnUse" x1="493.0883" y1="3001.9033" x2="511.6499" y2="3336.0144" gradientTransform="matrix(-1 0 0 1 1493.4886 0)">
				<stop  offset="0" style="stop-color:#444B8C"/>
				<stop  offset="0.9964" style="stop-color:#26264F"/>
			</linearGradient>
			<path style="fill:url(#SVGID_00000090287421381105932560000017773416131841098379_);" d="M953.903,3120.708
				c0,0-2.322,18.47-0.763,24.657c1.559,6.188,55.26,10.66,73.488,8.509c18.228-2.152-10.857-20.771-22.471-24.265
				C992.543,3126.113,953.903,3120.708,953.903,3120.708z"/>
			
				<linearGradient id="SVGID_00000041256567121448466210000011158728757877573012_" gradientUnits="userSpaceOnUse" x1="512.5538" y1="3109.0488" x2="540.3488" y2="3109.0488" gradientTransform="matrix(-1 0 0 1 1493.4886 0)">
				<stop  offset="0" style="stop-color:#FFC444"/>
				<stop  offset="0.9964" style="stop-color:#F36F56"/>
			</linearGradient>
			<path style="fill:url(#SVGID_00000041256567121448466210000011158728757877573012_);" d="M980.935,3089.896l-5.66,37.056
				c0,0-14.434,6.488-21.372,0.077l-0.763-38.788L980.935,3089.896z"/>
			
				<linearGradient id="SVGID_00000000204267370399369680000012488752976399923331_" gradientUnits="userSpaceOnUse" x1="829.0564" y1="2983.238" x2="847.618" y2="3317.3486" gradientTransform="matrix(-1 0 0 1 1493.4886 0)">
				<stop  offset="0" style="stop-color:#444B8C"/>
				<stop  offset="0.9964" style="stop-color:#26264F"/>
			</linearGradient>
			<path style="fill:url(#SVGID_00000000204267370399369680000012488752976399923331_);" d="M678.206,3088.24
				c0,0,11.394,8.456,8.356,18.582c-3.036,10.126-29.625,50.701-48.574,62.216c-18.948,11.518-13.008-12.476-7.494-27.419
				c5.514-14.942,19.604-47.861,25.105-53.379C661.098,3082.723,678.206,3088.24,678.206,3088.24z"/>
			
				<linearGradient id="SVGID_00000149373833986505623870000002732985883613255048_" gradientUnits="userSpaceOnUse" x1="794.7875" y1="3091.9097" x2="850.067" y2="3091.9097" gradientTransform="matrix(-1 0 0 1 1493.4886 0)">
				<stop  offset="0" style="stop-color:#FFC444"/>
				<stop  offset="0.9964" style="stop-color:#F36F56"/>
			</linearGradient>
			<path style="fill:url(#SVGID_00000149373833986505623870000002732985883613255048_);" d="M698.701,3047.529
				c-5.508,15.353-10.806,27.976-14.949,37.287c-9.169,20.597-14.18,28.326-19.855,35.027c-4.948,5.836-16.664,18.29-19.814,16.216
				c-3.198-2.103,5.373-17.244,21.895-61.587c2.399-6.437,9.976-26.943,9.976-26.943l0,0H698.701z"/>
			
				<linearGradient id="SVGID_00000093899910106273713080000007301095202089083830_" gradientUnits="userSpaceOnUse" x1="497.6364" y1="3075.5696" x2="488.3552" y2="2716.7085" gradientTransform="matrix(-1 0 0 1 1493.4886 0)">
				<stop  offset="0" style="stop-color:#311944"/>
				<stop  offset="1" style="stop-color:#893976"/>
			</linearGradient>
			<path style="fill:url(#SVGID_00000093899910106273713080000007301095202089083830_);" d="M1093.396,2405.988
				c3.931,38.591,7.701,98.488,2.064,171.184c-7.349,94.711-26.288,154.644-50.038,255.629
				c-14.515,61.715-34.071,152.548-51.772,266.148c-4.107,2.351-16.188,8.531-31.742,6.224c-8.711-1.293-15.224-4.757-19.07-7.245
				c-46.436-141.897-32.723-229.829-10.311-284.614c9.552-23.354,21.134-41.777,27.323-77.674
				c8.191-47.492-1.936-74.042-16.38-184.053c-10.296-78.409-8.515-90.53-1.663-102.289
				C969.188,2402.283,1052.936,2403.203,1093.396,2405.988z"/>
			
				<linearGradient id="SVGID_00000142147673769522643710000001748465367033721784_" gradientUnits="userSpaceOnUse" x1="703.9789" y1="3070.2336" x2="694.6977" y2="2711.3721" gradientTransform="matrix(-1 0 0 1 1493.4886 0)">
				<stop  offset="0" style="stop-color:#311944"/>
				<stop  offset="1" style="stop-color:#893976"/>
			</linearGradient>
			<path style="fill:url(#SVGID_00000142147673769522643710000001748465367033721784_);" d="M933.558,2422.489
				c-28.447,146.912-56.367,224.071-77.495,267.713c-5.211,10.763-22.596,45.487-39.031,95.269
				c-14.55,44.066-20.613,76.482-23.717,90.749c-9.808,45.031-34.047,110.783-99.268,197.025c-0.813,0.477-11.935,6.767-22.566,1.16
				c-5.381-2.841-8.064-7.365-9.129-9.475c8.526-82.452,18.314-151.739,26.81-205.212c1.783-11.215,9.634-60.284,21.945-125.112
				c4.819-25.371,11.878-62.543,20.335-100.724c10.529-47.547,26.677-112.229,51.561-189.738
				C833.187,2436.925,883.374,2429.711,933.558,2422.489z"/>
			
				<linearGradient id="SVGID_00000041272202635181538880000008435375416493152697_" gradientUnits="userSpaceOnUse" x1="1124.2686" y1="1995.2009" x2="1173.7899" y2="2376.8076">
				<stop  offset="0.0036" style="stop-color:#E38DDD"/>
				<stop  offset="1" style="stop-color:#9571F6"/>
			</linearGradient>
			<path style="fill:url(#SVGID_00000041272202635181538880000008435375416493152697_);" d="M1030.357,1988.164
				c96.179,40.369,153.199,95.726,183.52,131.085c33.459,39.019,67.314,79.706,58.261,128.173
				c-5.577,29.856-26.351,56.863-52.435,69.912c-59.155,29.595-146.185-12.32-177.694-69.912
				c-9.173-16.768-11.236-30.469-11.652-171.868C1030.254,2040.307,1030.291,2010.452,1030.357,1988.164z"/>
			<path style="fill:#FFFFFF;" d="M966.143,1943.299c-34.508,12.043-30.579,31.359-59.022,39.349
				c-27.29,7.666-65.299-0.452-81.368-25.842c-14.516-22.936-6.609-52.82-5.922-55.268c5.772-20.543,17.132-25.013,14.862-37.765
				c-3.19-17.911-27.174-17.928-30.914-35.327c-3.475-16.163,12.335-38.89,30.68-43.57c19.772-5.044,29.77,14.12,53.586,9.056
				c14.692-3.124,13.882-11.055,30.477-14.776c23.565-5.282,43.488,6.604,46.097,8.215c4.815,2.971,20.367,12.565,25.428,30.159
				c5.043,17.524-4.645,27.96,2.121,35.123c7.743,8.201,22.088-3.736,37.445,4.209c12.889,6.668,20.86,24.424,18.259,39.971
				c-2.728,16.307-16.487,25.257-24.674,30.595C1002.214,1941.11,990.61,1934.76,966.143,1943.299z"/>
			
				<linearGradient id="SVGID_00000103983635224163617540000002923317023116813704_" gradientUnits="userSpaceOnUse" x1="1121.665" y1="1995.5388" x2="1171.1863" y2="2377.1445">
				<stop  offset="0" style="stop-color:#AA80F9"/>
				<stop  offset="0.9964" style="stop-color:#6165D7"/>
			</linearGradient>
			<path style="fill:url(#SVGID_00000103983635224163617540000002923317023116813704_);" d="M1151.248,2222.662
				c-4.898-14.038-26.196-75.064-5.825-90.303c11.756-8.796,40.691-4.721,118.128,56.607
				c-11.295-24.545-30.541-47.404-49.673-69.716c-30.322-35.36-87.341-90.716-183.52-131.085c-0.066,22.287-0.103,52.142,0,87.39
				c0.417,141.399,2.479,155.1,11.652,171.868c30.58,55.893,113.45,97.011,172.386,72.334
				C1191.908,2298.085,1166.465,2266.267,1151.248,2222.662z"/>
			
				<linearGradient id="SVGID_00000051360864954280218370000008015747167684172217_" gradientUnits="userSpaceOnUse" x1="939.1095" y1="2149.552" x2="850.2067" y2="2825.9856">
				<stop  offset="0" style="stop-color:#AA80F9"/>
				<stop  offset="0.9964" style="stop-color:#6165D7"/>
			</linearGradient>
			<path style="fill:url(#SVGID_00000051360864954280218370000008015747167684172217_);" d="M1117.909,2393.189
				c-0.886-12.768-2.643-34.633-14.726-119.549c-17.554-123.373-16.834-96.021-20.391-133.999
				c-3.346-35.714-5.343-68.136-20.391-110.694c-5.271-14.906-10.664-26.879-14.564-34.957
				c-14.566-4.854-73.017-19.162-101.955-20.391c-33.25-1.411-64.384-2.727-88.913-1.242c-2.293-0.804-29.494,1.402-53.826,9.98
				c-19.891,7.012-35.729,14.64-46.608,20.391c17.962,13.935,42.004,37.34,46.608,69.912c5.129,36.286-18.542,50.853-40.782,119.434
				c-15.782,48.665-21.178,94.721-23.305,113.607c-6.881,61.119,0.314,79.024-17.478,104.869
				c-20.181,29.313-44.894,28.728-49.521,52.435c-5.116,26.21,19.839,53.837,37.869,66.999
				c37.594,27.442,80.847,12.553,145.651,2.913c165.632-24.639,230.721,14.929,259.939-29.616
				C1124.589,2489.449,1122.362,2457.362,1117.909,2393.189z"/>
			
				<linearGradient id="SVGID_00000127755612256912914930000016561981254817217953_" gradientUnits="userSpaceOnUse" x1="863.532" y1="2139.2271" x2="774.1994" y2="2818.9304">
				<stop  offset="0.0036" style="stop-color:#E38DDD"/>
				<stop  offset="1" style="stop-color:#9571F6"/>
			</linearGradient>
			<path style="opacity:0.3;fill:url(#SVGID_00000127755612256912914930000016561981254817217953_);" d="M768.186,2529.986
				c23.896-13.491,19.377-37.394,43.695-52.434c36.332-22.471,69.388,16.677,110.695,0c52.442-21.173,60.21-108.918,61.174-122.346
				c1.819-25.342,5.544-77.236-26.217-104.87c-40.079-34.87-101.583-0.588-122.347-32.042c-11.767-17.826,5.93-31.944,2.913-75.739
				c-2.186-31.726-15.476-82.193-44.252-97.865c4.487,8.409,7.85,17.729,9.296,27.953c5.129,36.286-18.541,50.853-40.782,119.434
				c-15.782,48.665-21.178,94.721-23.304,113.607c-6.881,61.119,0.314,79.024-17.478,104.869
				c-20.181,29.313-44.894,28.728-49.521,52.435c-5.116,26.21,19.838,53.837,37.869,66.999c1.389,1.015,2.793,1.979,4.211,2.896
				C733.007,2538.073,752.267,2538.974,768.186,2529.986z"/>
			
				<linearGradient id="SVGID_00000109731559141680935490000005915442090656625584_" gradientUnits="userSpaceOnUse" x1="895.4471" y1="2018.1556" x2="1028.1996" y2="1899.8958">
				<stop  offset="0" style="stop-color:#FFC444"/>
				<stop  offset="0.9964" style="stop-color:#F36F56"/>
			</linearGradient>
			<path style="fill:url(#SVGID_00000109731559141680935490000005915442090656625584_);" d="M968.464,1920.516
				c-2.913,2.913-14.564,26.217-32.043,40.783c-9.227,7.689-43.695,11.652-52.435,11.652c-8.739,0-2.912,8.74,37.87,14.565
				c40.782,5.826,67,5.826,75.738-2.913c0,0-29.13-5.826-20.391-26.217C985.943,1937.994,968.464,1920.516,968.464,1920.516z"/>
			
				<linearGradient id="SVGID_00000040571117838153427080000000344377614018479251_" gradientUnits="userSpaceOnUse" x1="3679.9431" y1="1965.4297" x2="3677.814" y2="2136.9683" gradientTransform="matrix(0.9919 -0.1271 0.1271 0.9919 -2930.2454 427.9954)">
				<stop  offset="0" style="stop-color:#FFC444"/>
				<stop  offset="0.9964" style="stop-color:#F36F56"/>
			</linearGradient>
			<path style="fill:url(#SVGID_00000040571117838153427080000000344377614018479251_);" d="M956,1938.335
				c0,0,7.573,17.556,26.215,15.169c16.691-2.138,16.492-44.045,5.289-51.352c-3.739-2.437-11.382-3.461-17.096-1.468
				c-4.018,1.4-16.065,10.957-13.635,25.271c-3.639-2.01-7.3-1.761-8.595-0.026c-1.643,2.201,0.903,6.279,1.479,7.203
				C951.654,1936.332,954.613,1937.771,956,1938.335z"/>
			
				<linearGradient id="SVGID_00000137836891601902875180000009961036770323326117_" gradientUnits="userSpaceOnUse" x1="-879.7664" y1="2404.6536" x2="-860.5284" y2="2437.4434" gradientTransform="matrix(-0.0199 0.9998 -0.9998 -0.0199 3435.3225 3186.1096)">
				<stop  offset="0" style="stop-color:#FFC444"/>
				<stop  offset="0.9964" style="stop-color:#F36F56"/>
			</linearGradient>
			<path style="fill:url(#SVGID_00000137836891601902875180000009961036770323326117_);" d="M1187.053,2165.936
				c0.866-2.483,3.07-4.353,5.686-4.084c2.931,0.301,5.85,2.06,5.734,7.92c-0.232,11.65-6.346,26.096-12.228,28.892
				c-5.883,2.797-14.563-0.289-11.419-11.881C1177.341,2177.51,1185.372,2170.75,1187.053,2165.936z"/>
			<g>
				<g>
					
						<linearGradient id="SVGID_00000165935203862277260420000017458414645807632816_" gradientUnits="userSpaceOnUse" x1="-186.1881" y1="2515.271" x2="-222.6885" y2="2463.4407" gradientTransform="matrix(0.229 -0.9731 -0.8037 -0.1892 3179.0959 2454.583)">
						<stop  offset="0" style="stop-color:#444B8C"/>
						<stop  offset="0.9964" style="stop-color:#26264F"/>
					</linearGradient>
					<path style="fill:url(#SVGID_00000165935203862277260420000017458414645807632816_);" d="M1156.818,2264.811l-89.35,7.956
						c-3.452,0.308-7.525-4.406-6.637-7.742l46.261-164.691c0.771-2.885,3.248-4.837,5.94-4.689l89.834,3.014
						c2.885,0.172,1.476,7.55,0.488,10.986l-39.286,148.054C1163.377,2260.095,1159.058,2264.612,1156.818,2264.811z"/>
					
						<linearGradient id="SVGID_00000109737431284432458020000003305979181422269572_" gradientUnits="userSpaceOnUse" x1="-255.6493" y1="2600.5159" x2="-171.2461" y2="2429.072" gradientTransform="matrix(0.2291 -0.9734 -0.8037 -0.1892 3179.1196 2455.2729)">
						<stop  offset="0" style="stop-color:#311944"/>
						<stop  offset="1" style="stop-color:#893976"/>
					</linearGradient>
					<path style="fill:url(#SVGID_00000109737431284432458020000003305979181422269572_);" d="M1159.565,2260.966l-89.8,9.164
						c-3.442,0.351-5.695-2.455-4.721-5.913l46.409-164.509c0.761-2.698,3.124-4.577,5.668-4.517l85.346,2.02
						c2.791,0.066,4.551,3.176,3.664,6.44l-41.426,152.528C1164.023,2258.692,1161.833,2260.735,1159.565,2260.966z"/>
				</g>
				
					<linearGradient id="SVGID_00000080924144792583254630000012526578742793165222_" gradientUnits="userSpaceOnUse" x1="-303.4337" y1="2487.489" x2="-119.3585" y2="2487.489" gradientTransform="matrix(0.2291 -0.9734 -0.8037 -0.1892 3179.1196 2455.2729)">
					<stop  offset="0" style="stop-color:#311944"/>
					<stop  offset="1" style="stop-color:#893976"/>
				</linearGradient>
				<path style="opacity:0.3;fill:url(#SVGID_00000080924144792583254630000012526578742793165222_);" d="M1118.133,2166.094
					c2.073,14.667,13.407,10.96,21.849,28.437c10.717,22.188-1.195,42.775,9.118,50.604c3.148,2.388,8.576,3.658,18.569,0.134
					l-2.964,10.911c-0.682,2.513-2.873,4.556-5.141,4.787l-89.8,9.164c-3.441,0.35-5.695-2.456-4.721-5.913l46.409-164.509
					c0.761-2.698,3.123-4.578,5.668-4.517l12.821,0.303c1.291,5.519,2.118,11.92,1.72,19.07
					C1130.294,2139.108,1115.705,2148.913,1118.133,2166.094z"/>
			</g>
			
				<linearGradient id="SVGID_00000135673066043810969140000011199612537812799674_" gradientUnits="userSpaceOnUse" x1="866.9705" y1="2203.8755" x2="603.3425" y2="2646.6548">
				<stop  offset="0" style="stop-color:#AA80F9"/>
				<stop  offset="0.9964" style="stop-color:#6165D7"/>
			</linearGradient>
			<path style="fill:url(#SVGID_00000135673066043810969140000011199612537812799674_);" d="M814.794,2081.381
				c-0.144,21.126-5.434,24.082-14.565,61.173c-10.871,44.159-18.748,76.154-5.826,99.043c16.322,28.912,59.71,32.457,90.304,34.956
				c74.539,6.09,138.417-18.743,182.026-42.864c0.987-0.546,2.104-0.792,3.227-0.694c9.795,0.858,12.235,2.535,19.987,3.621
				c3.232,0.453,5.454,3.489,4.894,6.706c-4.954,28.437-26.651,134.746-134.395,181.796c-15.867,6.929-99.658,41.495-192.259,2.913
				c-27.13-11.304-79.614-39.135-113.608-99.043c-38.187-67.298-37.382-147.377-8.738-209.738
				c20.511-44.654,50.439-69.651,78.651-93.216c34.279-28.633,46.748-27.608,52.434-26.217
				C802.329,2006.029,815.011,2049.558,814.794,2081.381z"/>
			
				<linearGradient id="SVGID_00000171700913242437304940000010217590341377763775_" gradientUnits="userSpaceOnUse" x1="866.8708" y1="2203.8162" x2="603.2432" y2="2646.5952">
				<stop  offset="0.0036" style="stop-color:#E38DDD"/>
				<stop  offset="1" style="stop-color:#9571F6"/>
			</linearGradient>
			<path style="opacity:0.3;fill:url(#SVGID_00000171700913242437304940000010217590341377763775_);" d="M951.706,2387.247
				c-31.061-2.948-37.776-19.279-87.391-29.13c-75-14.889-105.909,13.245-128.174-8.739c-25.641-25.319,11.403-66.538-11.652-134
				c-16.29-47.669-43.346-52.135-52.434-84.477c-4.512-16.055-4.059-37.163,9.304-65.139c-13.22,14.56-25.499,31.668-35.521,53.487
				c-28.644,62.36-29.449,142.44,8.738,209.738c33.994,59.908,86.479,87.739,113.608,99.043
				c92.601,38.582,176.392,4.016,192.259-2.913c45.525-19.88,75.646-50.34,95.675-81.033
				C1011.873,2382.297,977.256,2389.673,951.706,2387.247z"/>
			
				<linearGradient id="SVGID_00000164478670860973653120000004951490366107259825_" gradientUnits="userSpaceOnUse" x1="1110.2313" y1="2150.0381" x2="1053.9128" y2="2252.9651">
				<stop  offset="0" style="stop-color:#FFC444"/>
				<stop  offset="0.9964" style="stop-color:#F36F56"/>
			</linearGradient>
			<path style="fill:url(#SVGID_00000164478670860973653120000004951490366107259825_);" d="M1095.388,2187.521
				c0,0-3.857-12.924-15.509-12.924c-11.652,0-20.391,11.652-11.652,34.956c8.739,23.305,5.826,26.218,5.826,26.218
				s14.565,5.826,14.565,0c0-5.826-5.279-26.029-4.096-30.493C1085.704,2200.814,1087.593,2188.792,1095.388,2187.521z"/>
		</g>
		<g>
			
				<linearGradient id="SVGID_00000102544588968748197770000008293426459825164938_" gradientUnits="userSpaceOnUse" x1="2714.595" y1="3029.6807" x2="2731.5913" y2="3335.6174">
				<stop  offset="0" style="stop-color:#444B8C"/>
				<stop  offset="0.9964" style="stop-color:#26264F"/>
			</linearGradient>
			<path style="fill:url(#SVGID_00000102544588968748197770000008293426459825164938_);" d="M2757.17,3138.467
				c0,0,2.125,16.912,0.699,22.578c-1.429,5.667-50.598,9.76-67.289,7.79c-16.69-1.968,9.942-19.018,20.575-22.217
				C2721.789,3143.418,2757.17,3138.467,2757.17,3138.467z"/>
			
				<linearGradient id="SVGID_00000176013422313890786660000008026821684566197939_" gradientUnits="userSpaceOnUse" x1="2746.6948" y1="3180.4512" x2="2737.6658" y2="2767.386">
				<stop  offset="0" style="stop-color:#FFC444"/>
				<stop  offset="0.9964" style="stop-color:#F36F56"/>
			</linearGradient>
			<path style="fill:url(#SVGID_00000176013422313890786660000008026821684566197939_);" d="M2732.418,3110.255l5.183,33.93
				c0,0,13.216,5.939,19.569,0.07l0.699-35.516L2732.418,3110.255z"/>
			
				<linearGradient id="SVGID_00000093145328381497869740000008478584625313761956_" gradientUnits="userSpaceOnUse" x1="3022.2202" y1="3012.595" x2="3039.2158" y2="3318.5203">
				<stop  offset="0" style="stop-color:#444B8C"/>
				<stop  offset="0.9964" style="stop-color:#26264F"/>
			</linearGradient>
			<path style="fill:url(#SVGID_00000093145328381497869740000008478584625313761956_);" d="M3009.61,3108.739
				c0,0-10.434,7.743-7.652,17.014c2.781,9.271,27.126,46.423,44.477,56.968c17.349,10.545,11.911-11.424,6.862-25.106
				c-5.049-13.683-17.951-43.823-22.986-48.876C3025.274,3103.688,3009.61,3108.739,3009.61,3108.739z"/>
			
				<linearGradient id="SVGID_00000106863543221516220680000012925518529796597665_" gradientUnits="userSpaceOnUse" x1="3017.5344" y1="3174.5305" x2="3008.5056" y2="2761.4722">
				<stop  offset="0" style="stop-color:#FFC444"/>
				<stop  offset="0.9964" style="stop-color:#F36F56"/>
			</linearGradient>
			<path style="fill:url(#SVGID_00000106863543221516220680000012925518529796597665_);" d="M2990.842,3071.463
				c5.043,14.058,9.895,25.616,13.69,34.14c8.394,18.861,12.982,25.938,18.178,32.073c4.532,5.344,15.26,16.747,18.143,14.848
				c2.929-1.924-4.92-15.788-20.047-56.393c-2.198-5.891-9.136-24.669-9.136-24.669l0,0H2990.842z"/>
			
				<linearGradient id="SVGID_00000086660737261076891130000002769740824450850994_" gradientUnits="userSpaceOnUse" x1="2615.5515" y1="2911.9805" x2="2787.0967" y2="2681.7488">
				<stop  offset="0" style="stop-color:#444B8C"/>
				<stop  offset="0.9964" style="stop-color:#26264F"/>
			</linearGradient>
			<path style="fill:url(#SVGID_00000086660737261076891130000002769740824450850994_);" d="M2629.444,2484.043
				c-3.598,35.336-7.051,90.18-1.888,156.742c6.728,86.722,24.068,141.598,45.814,234.065
				c13.291,56.509,31.198,139.679,47.404,243.695c3.76,2.152,14.821,7.812,29.065,5.7c7.974-1.185,13.938-4.354,17.46-6.634
				c42.52-129.926,29.961-210.441,9.442-260.604c-8.746-21.383-19.35-38.251-25.019-71.12c-7.5-43.486,1.774-67.796,14.999-168.527
				c9.427-71.796,7.794-82.894,1.523-93.66C2743.174,2480.65,2666.491,2481.492,2629.444,2484.043z"/>
			
				<linearGradient id="SVGID_00000132054744247360271170000006617710687551971519_" gradientUnits="userSpaceOnUse" x1="1789.1097" y1="2251.7476" x2="1851.3953" y2="2632.6484" gradientTransform="matrix(0.981 -0.194 0.194 0.981 124.1931 236.6994)">
				<stop  offset="0" style="stop-color:#FFC444"/>
				<stop  offset="0.9964" style="stop-color:#F36F56"/>
			</linearGradient>
			<path style="fill:url(#SVGID_00000132054744247360271170000006617710687551971519_);" d="M2365.018,2120.474
				c0,0-5.968-23.406-15.899-29.585c-9.931-6.177-23.968-12.782-27.185-15.496c-3.217-2.714-6.973,5.399,2.296,11.606
				c9.266,6.208,9.266,6.208,9.266,6.208c0.195,1.712-0.066,3.044-0.379,3.981c-1.469,4.395-6.477,7.407-12.667,7.977
				c-23.78,4.98-33.071,5.224-36.697,4.162c-0.538-0.157-2.606-0.829-3.48,0.091c-1.399,1.474,1.117,6.145,2.19,7.782
				c6.434,9.827,28.767,14.101,45.487,6.415c6.108-2.805,8.446-5.819,12.903-5.063c7.077,1.201,11.424,10.538,13.996,18.267
				L2365.018,2120.474z"/>
			
				<linearGradient id="SVGID_00000089556201691650965920000016761441719228607925_" gradientUnits="userSpaceOnUse" x1="2742.9836" y1="2940.5535" x2="3144.7603" y2="2565.863">
				<stop  offset="0" style="stop-color:#444B8C"/>
				<stop  offset="0.9964" style="stop-color:#26264F"/>
			</linearGradient>
			<path style="fill:url(#SVGID_00000089556201691650965920000016761441719228607925_);" d="M2775.798,2499.153
				c26.048,134.516,51.612,205.167,70.959,245.127c4.771,9.854,20.69,41.65,35.737,87.233
				c13.322,40.347,18.874,70.029,21.717,83.093c8.98,41.233,31.174,101.438,90.894,180.403c0.744,0.439,10.928,6.198,20.662,1.064
				c4.927-2.6,7.383-6.745,8.359-8.676c-7.808-75.497-16.771-138.938-24.549-187.9c-1.634-10.269-8.822-55.199-20.094-114.557
				c-4.412-23.23-10.877-57.266-18.62-92.227c-9.64-43.535-24.425-102.762-47.211-173.731
				C2867.701,2512.369,2821.749,2505.763,2775.798,2499.153z"/>
			<path style="fill:#FFFFFF;" d="M2345.838,2127.896c6.771-6.019,13.543-12.038,20.314-18.057
				c2.479,2.504,38.626,37.778,89.158,27.086c34.793-7.364,54.862-35.936,67.716-54.173c38.61-54.779,15.518-94.973,57.09-132.195
				c11.545-10.335,34.191-22.851,48.997-19.035c35.277,9.094,55.586,115.184,21.444,198.631
				c-6.891,16.843-44.838,109.583-130.917,119.63C2450.139,2257.895,2376.44,2208.926,2345.838,2127.896z"/>
			
				<linearGradient id="SVGID_00000078034689520751024670000002184862128431790472_" gradientUnits="userSpaceOnUse" x1="3023.6802" y1="2269.7427" x2="2904.7092" y2="2101.2007">
				<stop  offset="0" style="stop-color:#444B8C"/>
				<stop  offset="0.9964" style="stop-color:#26264F"/>
			</linearGradient>
			<path style="fill:url(#SVGID_00000078034689520751024670000002184862128431790472_);" d="M2753.609,1967.085
				c-14.772-13.655-43.033-29.395-57.208-65.988c-4.267-11.014-19.383-50.041,2.915-79.894
				c13.235-17.721,37.818-29.754,59.486-25.494c18.516,3.64,21.411,16.536,52.875,42.491c12.248,10.101,31.933,26.34,53.843,35.367
				c37.536,15.47,60.087,0.914,97.771,2.574c46.295,2.041,100.076,27.878,125.986,65.449c45.99,66.684-20.631,134.329,29.743,212.45
				c16.506,25.592,24.641,19.855,63.734,69.399c39.146,49.61,58.719,74.412,55.237,104.809
				c-4.834,42.185-50.272,82.482-93.061,85.221c-41.798,2.678-68.366-30.206-89.646-15.821
				c-15.146,10.234-6.486,30.145-22.571,54.073c-20.736,30.851-61.492,36.998-68.074,37.987
				c-61.095,9.217-143.469-62.424-178.456-147.297C2723.095,2189.36,2833.917,2041.32,2753.609,1967.085z"/>
			
				<linearGradient id="SVGID_00000140002718277309122370000016479183557843546804_" gradientUnits="userSpaceOnUse" x1="2637.4338" y1="2928.2852" x2="2808.9785" y2="2698.0537">
				<stop  offset="0" style="stop-color:#444B8C"/>
				<stop  offset="0.9964" style="stop-color:#26264F"/>
			</linearGradient>
			<path style="opacity:0.3;fill:url(#SVGID_00000140002718277309122370000016479183557843546804_);" d="M2776.742,2857.007
				c-8.746-21.384-19.35-38.253-25.019-71.12c-7.5-43.486,1.774-67.796,14.999-168.527c9.427-71.796,7.794-82.894,1.523-93.66
				c-13.625-23.393-42.497-33.774-71.962-38.014c0.394,1.511,0.791,3.025,1.111,4.487c15.46,70.604-43.542,113.683-16.928,191.294
				c13.12,38.265,34.057,47.03,38.934,91.416c4.57,41.578-12.003,50.24-8.463,88.03c5.291,56.49,45.421,70.162,55.864,113.422
				c6.785,28.11,1.071,69.214-48.487,128.711c0.824,5.126,1.645,10.267,2.461,15.498c3.762,2.152,14.821,7.812,29.065,5.7
				c7.974-1.185,13.938-4.354,17.46-6.634C2809.82,2987.684,2797.261,2907.169,2776.742,2857.007z"/>
			
				<linearGradient id="SVGID_00000175292224836564791470000008365235906374000826_" gradientUnits="userSpaceOnUse" x1="2345.8384" y1="2130.3748" x2="2668.1011" y2="2130.3748">
				<stop  offset="0" style="stop-color:#AA80F9"/>
				<stop  offset="0.9964" style="stop-color:#6165D7"/>
			</linearGradient>
			<path style="opacity:0.15;fill:url(#SVGID_00000175292224836564791470000008365235906374000826_);" d="M2621.213,2033.095
				c-63.619,50.249-56.538,146.626-95.648,151.512c-11.946,1.493-11.289-7.665-39.782-16.928
				c-41.675-13.55-61.253,0.136-90.569-10.158c-12.141-4.263-27.935-13.37-43.49-34.858c-1.962,1.745-3.926,3.489-5.886,5.232
				c30.602,81.031,104.3,130,173.802,121.887c86.079-10.047,124.026-102.788,130.917-119.63
				c16.021-39.155,20.051-83.294,16.173-120.06C2652.045,2014.378,2636.093,2021.342,2621.213,2033.095z"/>
			<path style="fill:#FFFFFF;" d="M2575.063,1956.915c3.899-6.055,16.293-22.835,68.892-35.202
				c26.362-6.197,75.101-16.815,137.822-3.525c86.143,18.251,139.792,69.942,159.985,91.669
				c-16.536,10.767-62.165,43.618-84.763,105.943c-7.031,19.391-27.802,85.682,1.904,147.773
				c17.116,35.779,47.395,62.639,70.391,83.043c34.493,30.598,52.356,35.302,63.919,62.717
				c12.593,29.853-0.096,44.409,15.542,64.847c16.795,21.947,36.473,11.745,64.941,33.941
				c29.161,22.733,18.784,41.444,45.323,66.568c38.562,36.503,89.682,24.647,92.061,41.073
				c2.049,14.129-34.283,33.299-65.151,41.073c-61.128,15.397-114.447-10.446-130.302-18.413
				c-43.897-22.053-36.314-36.327-69.782-53.139c-56.04-28.151-94.34,3.175-221.979,6.4c-69.122,1.749-104.073,2.142-123.22-21.244
				c-17.487-21.362-8.295-44.793,2.199-145.772c0,0,0-0.003,0.001-0.012c3.372-33.724,10.434-104.332,10.475-144.57
				c0.026-23.78-8.221-62.633-24.715-140.34c-0.974-4.583-9.9-46.565-17.112-102.648
				C2565,1986.598,2565.941,1971.09,2575.063,1956.915z"/>
			<g style="opacity:0.15;">
				
					<linearGradient id="SVGID_00000142857379792187296730000015383029201851898500_" gradientUnits="userSpaceOnUse" x1="2895.2891" y1="1912.7247" x2="2993.4871" y2="2513.2458">
					<stop  offset="0" style="stop-color:#AA80F9"/>
					<stop  offset="0.9964" style="stop-color:#6165D7"/>
				</linearGradient>
				<path style="fill:url(#SVGID_00000142857379792187296730000015383029201851898500_);" d="M3119.02,2574.688
					c-26.538-25.124-16.161-43.835-45.323-66.568c-28.468-22.196-48.146-11.994-64.941-33.941
					c-15.638-20.438-2.949-34.994-15.542-64.847c-11.563-27.415-29.426-32.117-63.919-62.718
					c-22.996-20.404-53.275-47.263-70.391-83.042c-29.707-62.091-8.936-128.382-1.904-147.773
					c22.597-62.325,68.227-95.176,84.763-105.943c-1.592-1.716-3.469-3.669-5.478-5.727
					c-108.941,14.971-172.459,77.92-180.314,96.56c-18.16,43.085,10.588,58.916,11.33,183.18
					c0.354,59.397-6.053,82.85,13.219,107.642c22.041,28.353,47.441,19.579,79.314,56.652c24.49,28.481,20.568,46.54,43.435,58.541
					c24.588,12.901,40.25-2.136,67.983,3.779c46.333,9.88,56.237,63.303,86.867,92.531c23.162,22.102,65.986,37.554,150.444,20.969
					c1.953-2.844,2.897-5.62,2.52-8.221C3208.699,2599.336,3157.582,2611.191,3119.02,2574.688z"/>
			</g>
			<g>
				
					<linearGradient id="SVGID_00000038403109961478813710000017060376834526639507_" gradientUnits="userSpaceOnUse" x1="2730.4214" y1="1961.9323" x2="2894.8379" y2="2967.406">
					<stop  offset="0" style="stop-color:#AA80F9"/>
					<stop  offset="0.9964" style="stop-color:#6165D7"/>
				</linearGradient>
				<path style="fill:url(#SVGID_00000038403109961478813710000017060376834526639507_);" d="M2647.169,2107.581
					c0,0,119.345-155.83,187.183-172.883c-15.939-6.673-33.406-12.447-52.575-16.509c-53.899-11.42-97.424-5.187-125.344,0.725
					C2650.039,1939.446,2624.935,2026.323,2647.169,2107.581z"/>
			</g>
			<path style="fill:#FFFFFF;" d="M2789.015,2134.21c-11.58,24.593,41.635,81.871,100.782,109.069
				c12.051,5.544,98.591,45.334,137.161,7.072c31.87-31.619,11.302-96.998,3.959-120.338
				c-36.059-114.613-146.795-172.915-193.203-193.942c-34.635,86.601-14.237,125.189-6.208,137.239
				c8.387,12.586,31.794,39.026,56.653,62.319c17.487,16.382,28.375,24.355,26.911,26.91c-1.822,3.181-22.319-2.826-101.932-41.578
				C2803.909,2122.455,2792.974,2125.813,2789.015,2134.21z"/>
			
				<linearGradient id="SVGID_00000019670023137511006400000016477358191949601156_" gradientUnits="userSpaceOnUse" x1="2732.0667" y1="1934.2323" x2="2837.0242" y2="1781.8745">
				<stop  offset="0" style="stop-color:#FFC444"/>
				<stop  offset="0.9964" style="stop-color:#F36F56"/>
			</linearGradient>
			<path style="fill:url(#SVGID_00000019670023137511006400000016477358191949601156_);" d="M2746.416,1850.847
				c0,0,5.494,43.921,21.705,53.985c16.212,10.057,42.419,23.203,45.306,26.772c2.886,3.563-100.425,14.672-151.624-11.165l0,0
				c16.872-3.518,21.46-4.813,21.46-4.813c4.58-1.295,13.121-3.702,21.685-8.582c5.828-3.318,15.223-9.803,23.84-22.047
				l-0.188-24.32L2746.416,1850.847z"/>
			
				<linearGradient id="SVGID_00000074414271938645753380000014627021030513445021_" gradientUnits="userSpaceOnUse" x1="2722.5532" y1="1856.9526" x2="2888.4563" y2="1757.0721">
				<stop  offset="0" style="stop-color:#FFC444"/>
				<stop  offset="0.9964" style="stop-color:#F36F56"/>
			</linearGradient>
			<path style="fill:url(#SVGID_00000074414271938645753380000014627021030513445021_);" d="M2748.882,1866.403
				c0,0-10.57,14.508-27.145,8.462c-14.842-5.412-5.984-43.746,5.789-48.119c3.926-1.458,11.137-0.813,15.958,2.194
				c3.391,2.115,12.443,13.36,7.253,25.964c3.75-1.087,7.05-0.101,7.876,1.757c1.05,2.355-2.126,5.563-2.844,6.29
				C2753.276,1865.469,2750.268,1866.173,2748.882,1866.403z"/>
			
				<linearGradient id="SVGID_00000052085660788226272120000015449503605912721075_" gradientUnits="userSpaceOnUse" x1="2644.6616" y1="2478.2776" x2="2664.8884" y2="2300.7288">
				<stop  offset="0" style="stop-color:#FF9085"/>
				<stop  offset="1" style="stop-color:#FB6FBB"/>
			</linearGradient>
			<path style="fill:url(#SVGID_00000052085660788226272120000015449503605912721075_);" d="M2592.123,1990.474l140.919,13.198
				c2.955,0.276,5.437,2.337,6.255,5.19l52.588,183.628c1.392,4.86-2.524,9.605-7.56,9.16l-142.077-12.536
				c-2.988-0.264-5.5-2.351-6.306-5.24l-51.43-184.29C2583.154,1994.718,2587.094,1990.003,2592.123,1990.474z"/>
			
				<linearGradient id="SVGID_00000133492854498053258080000010180647212778243235_" gradientUnits="userSpaceOnUse" x1="2767.9497" y1="2089.8545" x2="2839.4778" y2="2527.2781">
				<stop  offset="0" style="stop-color:#FFC444"/>
				<stop  offset="0.9964" style="stop-color:#F36F56"/>
			</linearGradient>
			<path style="fill:url(#SVGID_00000133492854498053258080000010180647212778243235_);" d="M2809.123,2128.459
				c0,0-48.53-49.657-68.281-56.992c-19.749-7.337-2.263,45.04,9.309,52.427c11.57,7.387,16.086,10.209,25.115,11.336
				c9.028,1.13,9.028,1.13,9.028,1.13l11.851,6.318C2796.146,2142.678,2811.381,2140.874,2809.123,2128.459z"/>
			
				<linearGradient id="SVGID_00000109723167391368402300000009580832968449031592_" gradientUnits="userSpaceOnUse" x1="2606.3066" y1="2473.9067" x2="2626.5337" y2="2296.3582">
				<stop  offset="0" style="stop-color:#FF9085"/>
				<stop  offset="1" style="stop-color:#FB6FBB"/>
			</linearGradient>
			<path style="opacity:0.3;fill:url(#SVGID_00000109723167391368402300000009580832968449031592_);" d="M2685.918,2149.303
				c-5.315-29.028,11.063-51.537-4.632-78.745c-16.145-27.99-44.49-23.265-64.849-46.321c-6.481-7.339-12.297-17.737-15.154-32.906
				l-9.16-0.858c-5.029-0.471-8.969,4.244-7.611,9.11l51.43,184.29c0.806,2.889,3.318,4.977,6.306,5.24l72.148,6.366
				C2696.04,2179.006,2688.454,2163.149,2685.918,2149.303z"/>
		</g>
		<g>
			<g>
				<g>
					<g>
						
							<linearGradient id="SVGID_00000009551576957085900170000007721094723853782966_" gradientUnits="userSpaceOnUse" x1="2685.0903" y1="1066.149" x2="2736.512" y2="1017.176" gradientTransform="matrix(0.9992 -0.0396 0.0396 0.9992 158.4824 22.5709)">
							<stop  offset="0" style="stop-color:#FF9085"/>
							<stop  offset="1" style="stop-color:#FB6FBB"/>
						</linearGradient>
						<path style="fill:url(#SVGID_00000009551576957085900170000007721094723853782966_);" d="M3220.114,1042.381
							c8.668,218.49-162.222,400.782-383.696,407.218c-223.717,6.501-413.902-168.564-422.73-391.079
							c-8.827-222.515,167.177-404.908,391.055-407.365C3026.376,648.723,3211.446,823.891,3220.114,1042.381z"/>
						
							<linearGradient id="SVGID_00000031194507182196007780000012299895031590501777_" gradientUnits="userSpaceOnUse" x1="2527.248" y1="749.2466" x2="2704.3389" y2="1515.4758" gradientTransform="matrix(0.9992 -0.0396 0.0396 0.9992 158.4824 22.5709)">
							<stop  offset="0" style="stop-color:#FF9085"/>
							<stop  offset="1" style="stop-color:#FB6FBB"/>
						</linearGradient>
						<path style="fill:url(#SVGID_00000031194507182196007780000012299895031590501777_);" d="M3211.783,1042.548
							c8.487,213.935-158.859,392.392-375.698,398.652c-218.989,6.322-405.119-165.062-413.759-382.853
							c-8.64-217.791,163.607-396.347,382.75-398.793C3022.068,657.131,3203.296,828.613,3211.783,1042.548z"/>
						<path style="opacity:0.5;fill:#FFFFFF;" d="M3171.504,1043.354c7.613,191.907-142.588,351.849-337.028,357.284
							c-196.167,5.483-362.747-148.12-370.483-343.125c-7.736-195.005,146.402-355.026,342.692-357.397
							C3001.248,697.766,3163.891,851.447,3171.504,1043.354z"/>
						<path style="opacity:0.5;fill:#FFFFFF;" d="M2871.125,1324.322c-23.075-42.958-18.468-64.407-41.544-226.781
							c-34.339-241.621-57.023-282.024-75.389-307.322c-18.757-25.836-52.02-62.088-112.959-93.184
							c-134.823,63.844-225.218,202.212-218.906,361.312c8.64,217.791,194.77,389.175,413.759,382.853
							c42.296-1.221,82.696-8.99,120.265-22.276C2922.059,1394.309,2892.104,1363.38,2871.125,1324.322z"/>
					</g>
				</g>
				<g>
					<g>
						<path style="fill:#FFFFFF;" d="M2801.555,811.857l-91.798,33.054c28.134,31.904,46.081,70.393,55.042,111.81l78.712-28.342
							c32.043-11.538,48.821-47.195,37.283-79.239l0,0C2869.256,817.096,2833.598,800.318,2801.555,811.857z"/>
						<path style="opacity:0.49;fill:#D8DEE8;" d="M2809.659,888.882c-9.831,14.482-28.09,16.953-41.167,14.823
							c-29.884-7.021-68.34-15.058-88.632,4.558c-24.173,23.694-51.378,38.97-85.395,39.085c0.409,1.469,0.854,2.935,1.379,4.393
							c11.538,32.044,47.196,48.821,79.239,37.283l168.427-60.646c32.043-11.538,48.821-47.195,37.283-79.239
							c-2.14-5.943-5.113-11.357-8.734-16.166C2847.704,845.993,2826.442,864.412,2809.659,888.882z"/>
						
							<linearGradient id="SVGID_00000170240705216810579000000000696875902622525059_" gradientUnits="userSpaceOnUse" x1="2518.1763" y1="768.0381" x2="2782.6836" y2="1025.0735" gradientTransform="matrix(0.9409 -0.3388 0.3388 0.9409 -86.0092 989.5967)">
							<stop  offset="0" style="stop-color:#AA80F9"/>
							<stop  offset="0.9964" style="stop-color:#6165D7"/>
						</linearGradient>
						<path style="fill:url(#SVGID_00000170240705216810579000000000696875902622525059_);" d="M2709.757,844.91l-76.629,27.592
							c-32.043,11.538-48.821,47.195-37.283,79.239l0,0c11.538,32.044,47.196,48.821,79.239,37.283l89.714-32.304
							C2755.838,915.304,2737.891,876.814,2709.757,844.91z"/>
						
							<linearGradient id="SVGID_00000003106268415601459590000004079843502060167868_" gradientUnits="userSpaceOnUse" x1="2535.9836" y1="895.977" x2="2695.6719" y2="895.977" gradientTransform="matrix(0.9409 -0.3388 0.3388 0.9409 -86.0092 989.5967)">
							<stop  offset="0" style="stop-color:#FF9085"/>
							<stop  offset="1" style="stop-color:#FB6FBB"/>
						</linearGradient>
						<path style="opacity:0.3;fill:url(#SVGID_00000003106268415601459590000004079843502060167868_);" d="M2745.167,898.748
							c-24.458-4.345-50.03-5.252-65.306,9.516c-24.173,23.694-51.378,38.97-85.395,39.085c0.188,0.677,0.387,1.354,0.596,2.03
							c0.249,0.789,0.501,1.578,0.783,2.363c11.538,32.044,47.196,48.821,79.239,37.283l89.714-32.304
							C2760.437,936.559,2753.927,917.1,2745.167,898.748z"/>
					</g>
					<g>
						<path style="fill:#FFFFFF;" d="M3032.082,1003.208l-96.373-15.221c9.301,41.508,6.502,83.883-5.583,124.499l82.635,13.051
							c33.64,5.313,65.511-17.864,70.825-51.505l0,0C3088.9,1040.392,3065.722,1008.521,3032.082,1003.208z"/>
						<path style="opacity:0.49;fill:#D8DEE8;" d="M3002.105,1074.622c-15.589,7.961-32.782,1.337-43.219-6.826
							c-22.813-20.54-52.65-46.098-79.88-38.673c-32.594,9.131-63.794,9.424-93.665-6.852c-0.349,1.485-0.664,2.984-0.906,4.514
							c-5.313,33.641,17.864,65.512,51.505,70.825l176.821,27.926c33.64,5.313,65.511-17.864,70.825-51.505
							c0.985-6.239,0.986-12.415,0.127-18.374C3056.098,1055.344,3028.595,1061.253,3002.105,1074.622z"/>
						
							<linearGradient id="SVGID_00000013888643130995555940000013525064166843539870_" gradientUnits="userSpaceOnUse" x1="2811.5906" y1="938.2608" x2="3076.0969" y2="1195.2954" gradientTransform="matrix(0.9878 0.156 -0.156 0.9878 152.2883 -445.0218)">
							<stop  offset="0" style="stop-color:#FF9085"/>
							<stop  offset="1" style="stop-color:#FB6FBB"/>
						</linearGradient>
						<path style="fill:url(#SVGID_00000013888643130995555940000013525064166843539870_);" d="M2935.709,987.987l-80.448-12.706
							c-33.64-5.313-65.511,17.864-70.824,51.505l0,0c-5.313,33.641,17.864,65.512,51.505,70.825l94.186,14.875
							C2942.211,1071.87,2945.01,1029.495,2935.709,987.987z"/>
						
							<linearGradient id="SVGID_00000085218792827118657130000011062315091734237846_" gradientUnits="userSpaceOnUse" x1="2829.3979" y1="1066.1992" x2="2989.0854" y2="1066.1992" gradientTransform="matrix(0.9878 0.156 -0.156 0.9878 152.2883 -445.0218)">
							<stop  offset="0" style="stop-color:#FF9085"/>
							<stop  offset="1" style="stop-color:#FB6FBB"/>
						</linearGradient>
						<path style="opacity:0.3;fill:url(#SVGID_00000085218792827118657130000011062315091734237846_);" d="M2940.828,1052.222
							c-19.346-15.583-41.323-28.688-61.822-23.098c-32.594,9.131-63.794,9.424-93.665-6.852c-0.161,0.685-0.312,1.373-0.455,2.066
							c-0.162,0.812-0.321,1.624-0.451,2.448c-5.313,33.641,17.864,65.512,51.505,70.825l94.186,14.875
							C2936.01,1092.714,2939.671,1072.525,2940.828,1052.222z"/>
					</g>
				</g>
			</g>
			<g>
				
					<linearGradient id="SVGID_00000039133279655846509830000012214509500147720894_" gradientUnits="userSpaceOnUse" x1="2644.7246" y1="1205.2332" x2="2847.0247" y2="1205.2332">
					<stop  offset="0" style="stop-color:#D8DEE8"/>
					<stop  offset="0.9964" style="stop-color:#97A6B7"/>
				</linearGradient>
				<path style="fill:url(#SVGID_00000039133279655846509830000012214509500147720894_);" d="M2845.894,1204.571
					c8.806,51.063-35.113,94.288-87.02,99.178c-52.831,4.978-103.725-33.66-112.817-86.381
					c-9.092-52.721,29.402-107.629,82.522-110.935C2780.77,1103.186,2837.088,1153.508,2845.894,1204.571z"/>
				<path style="fill:#FFFFFF;" d="M2848.756,1191.833c8.806,51.063-25.473,96.361-77.379,101.252
					c-52.831,4.978-103.725-33.66-112.817-86.382c-9.092-52.721,27.299-98.184,80.418-101.49
					C2791.168,1101.966,2839.95,1140.77,2848.756,1191.833z"/>
				<path style="opacity:0.3;fill:#D8DEE8;" d="M2762.178,1285.182c-22.105,0-44.054-8.119-61.805-22.863
					c-17.887-14.857-29.819-35.112-33.6-57.032c-3.967-23.005,1.383-45.207,15.067-62.516c13.752-17.397,34.228-27.78,57.655-29.238
					c1.853-0.115,3.736-0.173,5.596-0.173c45.798,0,87.726,35.092,95.451,79.89c3.878,22.486-1.246,44.36-14.428,61.59
					c-13.14,17.176-32.858,27.812-55.52,29.947C2767.813,1285.049,2764.981,1285.182,2762.178,1285.182z"/>
				<path style="fill:#D8DEE8;" d="M2741.674,1120.845c-4.783,0.31-8.006,4.387-7.192,9.104l23.644,137.103
					c0.813,4.717,5.338,8.19,10.1,7.756c4.754-0.433,7.944-4.597,7.133-9.301l-23.575-136.706
					C2750.971,1124.098,2746.448,1120.535,2741.674,1120.845z"/>
				<path style="opacity:0.3;fill:#D8DEE8;" d="M2775.358,1265.508l-23.575-136.707c-0.811-4.704-5.334-8.266-10.109-7.956
					c-1.642,0.107-3.093,0.664-4.267,1.533c0.277-0.046,0.559-0.08,0.848-0.099c4.775-0.309,9.298,3.253,10.109,7.957
					l23.576,136.706c0.544,3.157-0.719,6.066-3.043,7.771C2773.273,1273.967,2776.13,1269.986,2775.358,1265.508z"/>
			</g>
		</g>
	</g>
</g>
</svg>
