<svg xmlns="http://www.w3.org/2000/svg" viewBox="0 0 500 500"><g id="freepik--background-complete--inject-17"><polygon points="359.22 369.44 353.2 370.55 351.85 376.9 350.5 370.55 344.48 369.43 350.48 367.97 351.85 361.97 353.22 367.97 359.22 369.44" style="fill:#ebebeb"></polygon><polygon points="414.81 169.25 408.79 170.36 407.44 176.71 406.1 170.36 400.07 169.25 406.07 167.78 407.44 161.79 408.81 167.78 414.81 169.25" style="fill:#ebebeb"></polygon><polygon points="214.92 141.84 208.9 142.95 207.55 149.3 206.21 142.95 200.19 141.83 206.18 140.37 207.55 134.37 208.93 140.37 214.92 141.84" style="fill:#ebebeb"></polygon><polygon points="430.59 186.62 427.22 187.24 426.47 190.79 425.72 187.24 422.35 186.62 425.7 185.8 426.47 182.45 427.24 185.8 430.59 186.62" style="fill:#ebebeb"></polygon><polygon points="176.87 203.11 173.51 203.73 172.75 207.28 172 203.73 168.64 203.11 171.99 202.29 172.75 198.94 173.52 202.29 176.87 203.11" style="fill:#ebebeb"></polygon><polygon points="162.03 325.17 158.66 325.79 157.91 329.34 157.16 325.79 153.79 325.17 157.14 324.35 157.91 321 158.68 324.35 162.03 325.17" style="fill:#ebebeb"></polygon><polygon points="253.65 108 250.28 108.62 249.53 112.17 248.78 108.62 245.41 108 248.77 107.18 249.53 103.83 250.3 107.18 253.65 108" style="fill:#ebebeb"></polygon><polygon points="326.79 351.44 323.43 352.06 322.68 355.61 321.92 352.06 318.56 351.44 321.91 350.62 322.68 347.27 323.44 350.62 326.79 351.44" style="fill:#ebebeb"></polygon><polygon points="376.31 199.07 372.95 199.69 372.2 203.24 371.44 199.69 368.08 199.07 371.43 198.25 372.2 194.9 372.96 198.25 376.31 199.07" style="fill:#ebebeb"></polygon><path d="M312,325.17a1,1,0,0,0,0,1.95A1,1,0,0,0,312,325.17Z" style="fill:#ebebeb"></path><path d="M334.23,139.88a1,1,0,0,0,0,2A1,1,0,0,0,334.23,139.88Z" style="fill:#ebebeb"></path><path d="M100.73,290.08a1,1,0,0,0,0,1.95A1,1,0,0,0,100.73,290.08Z" style="fill:#ebebeb"></path><path d="M158.85,157.7a1,1,0,0,0,0,2A1,1,0,0,0,158.85,157.7Z" style="fill:#ebebeb"></path><path d="M428.12,158a.69.69,0,0,0,0,1.38A.69.69,0,0,0,428.12,158Z" style="fill:#ebebeb"></path><path d="M146.29,375.72a.69.69,0,0,0,0,1.38A.69.69,0,0,0,146.29,375.72Z" style="fill:#ebebeb"></path><path d="M85.56,204.86a.69.69,0,0,0,0,1.38A.69.69,0,0,0,85.56,204.86Z" style="fill:#ebebeb"></path><path d="M124.23,359.38a1.87,1.87,0,0,0,0,3.74A1.87,1.87,0,0,0,124.23,359.38Z" style="fill:#ebebeb"></path><path d="M71.22,190.49a1.87,1.87,0,0,0,0,3.74A1.87,1.87,0,0,0,71.22,190.49Z" style="fill:#ebebeb"></path><path d="M77.59,356.81l-13.12.28-6.66.11c-2.23.05-4.47,0-6.7.06h-.44v-.45l-.06-11.19v-.5h.5l13.24.06c4.42,0,8.83.12,13.24.17h.28v.27c0,1.9-.09,3.79-.13,5.65Zm0,0-.14-5.65c0-1.87-.11-3.71-.13-5.54l.27.27c-4.41.05-8.82.16-13.24.17l-13.24.06.5-.5,0,11.19-.45-.45c2.18,0,4.36,0,6.55.06l6.58.11Z" style="fill:#ebebeb"></path><path d="M62.82,370.92l-13.12.28-6.66.11c-2.23.05-4.47,0-6.7.06H35.9v-.45l-.06-11.19v-.5h.5l13.24.06c4.41,0,8.83.12,13.24.17h.28v.27c0,1.9-.08,3.79-.13,5.65Zm0,0-.14-5.65c0-1.87-.11-3.71-.13-5.54l.27.27c-4.41.05-8.83.16-13.24.17l-13.24.06.5-.5-.05,11.19-.45-.45c2.18,0,4.36,0,6.55.06l6.58.11Z" style="fill:#ebebeb"></path><path d="M356,166.43l-13.13.28-6.66.11c-2.22.05-4.46,0-6.69.06h-.45v-.45l-.05-11.19v-.5h.5l13.24.06c4.41,0,8.83.11,13.24.16h.27v.27c0,1.9-.08,3.79-.13,5.66Zm0,0-.14-5.65c-.05-1.86-.12-3.7-.13-5.54l.27.28c-4.41,0-8.83.16-13.24.16l-13.24.06.5-.5L330,166.43l-.44-.44c2.18,0,4.36,0,6.54,0l6.58.12Z" style="fill:#ebebeb"></path><path d="M341.26,180.54l-13.13.28-6.66.11c-2.22,0-4.46,0-6.69.06h-.45v-.45l-.05-11.19v-.5h.51l13.24.07c4.41,0,8.82.11,13.24.16h.27v.27c0,1.9-.09,3.79-.13,5.66Zm0,0-.14-5.65c-.05-1.86-.12-3.7-.14-5.54l.28.28c-4.42.05-8.83.16-13.24.16l-13.24.06.5-.5-.06,11.19-.44-.44c2.18,0,4.35,0,6.54.05l6.58.12Z" style="fill:#ebebeb"></path><path d="M326.54,166.43l-13.12.28-6.66.11c-2.23.05-4.47,0-6.7.06h-.44v-.45l-.06-11.19v-.5h.5l13.24.06c4.42,0,8.83.11,13.24.16h.28v.27c0,1.9-.09,3.79-.13,5.66Zm0,0-.14-5.65c0-1.86-.11-3.7-.13-5.54l.27.28c-4.41,0-8.82.16-13.24.16l-13.24.06.5-.5-.05,11.19-.45-.44c2.18,0,4.36,0,6.55,0l6.58.12Z" style="fill:#ebebeb"></path><path d="M463.66,370.92l-13.13.28-6.66.11c-2.22.05-4.46,0-6.69.06h-.45v-.45l-.05-11.19v-.5h.5l13.24.06c4.41,0,8.83.12,13.24.17h.27v.27c0,1.9-.08,3.79-.13,5.65Zm0,0-.14-5.65c0-1.87-.12-3.71-.13-5.54l.27.27c-4.41.05-8.83.16-13.24.17l-13.24.06.5-.5-.06,11.19-.44-.45c2.18,0,4.36,0,6.54.06l6.58.11Z" style="fill:#ebebeb"></path><path d="M448.89,55.52l-13.13.28-6.66.11c-2.22.05-4.46,0-6.69.06H422v-.45l0-11.19v-.5h.51l13.24.06c4.41,0,8.82.12,13.24.17h.27v.27c0,1.9-.09,3.79-.13,5.66Zm0,0-.14-5.65c-.05-1.87-.12-3.71-.14-5.54l.28.27c-4.42.06-8.83.16-13.24.17l-13.24.06.5-.5-.06,11.19-.44-.44c2.18,0,4.35,0,6.54.05l6.58.11Z" style="fill:#ebebeb"></path><path d="M463.66,69.63l-13.13.28-6.66.11c-2.22,0-4.46,0-6.69.06h-.45v-.45l-.05-11.19v-.5h.5l13.24.06c4.41,0,8.83.12,13.24.17h.27v.27c0,1.9-.08,3.79-.13,5.66Zm0,0L463.52,64c0-1.87-.12-3.71-.13-5.54l.27.27c-4.41.06-8.83.16-13.24.17l-13.24.06.5-.5-.06,11.19-.44-.44c2.18,0,4.36,0,6.54,0l6.58.11Z" style="fill:#ebebeb"></path><path d="M77.59,55.52l-13.12.28-6.66.11c-2.23.05-4.47,0-6.7.06h-.44v-.45l-.06-11.19v-.5h.5l13.24.06c4.42,0,8.83.12,13.24.17h.28v.27c0,1.9-.09,3.79-.13,5.66Zm0,0-.14-5.65c0-1.87-.11-3.71-.13-5.54l.27.27c-4.41.06-8.82.16-13.24.17l-13.24.06.5-.5,0,11.19-.45-.44c2.18,0,4.36,0,6.55.05l6.58.11Z" style="fill:#ebebeb"></path><rect x="62" y="117.45" width="181.13" height="7.78" style="fill:#ebebeb"></rect><polygon points="88.33 155.84 81.28 155.84 78.45 125.22 88.33 125.22 88.33 155.84" style="fill:#ebebeb"></polygon><polygon points="216.79 155.84 223.85 155.84 226.68 125.22 216.79 125.22 216.79 155.84" style="fill:#ebebeb"></polygon><polygon points="78.45 125.23 88.33 125.23 88.33 135.77 79.42 135.77 78.45 125.23" style="fill:#dbdbdb"></polygon><polygon points="226.68 125.23 225.7 135.77 216.79 135.77 216.79 125.23 226.68 125.23" style="fill:#dbdbdb"></polygon><path d="M127.59,70.79c-8,10.88-16.42,23.52-18.46,37.17,0,.2.31.27.35.07A82.07,82.07,0,0,1,113,97.1c5.28-1.46,10.47-2.65,13.24-7.9s2.47-12.42,1.94-18.29C128.18,70.6,127.75,70.58,127.59,70.79Z" style="fill:#ebebeb"></path><path d="M113.12,97c3.61-8.1,8.24-16.23,14.14-22.9,0,0,.1,0,.06.07a96.17,96.17,0,0,0-9.65,15.17c2.66-2.7,5.58-5.12,8.1-8,0,0,.13,0,.08.08-2.5,3-5.24,6.27-8.5,8.5-.87,1.61-1.76,3.23-2.65,4.85.22-.13.45-.24.67-.35a0,0,0,0,1,0,.06c-.24.13-.49.26-.75.37-.42.76-.84,1.53-1.28,2.3C113.28,97.32,113,97.17,113.12,97Z" style="fill:#a6a6a6"></path><path d="M115.8,94.17A46.66,46.66,0,0,0,122,90.05c.06,0,.13,0,.08.08a32.33,32.33,0,0,1-6.16,4.19A.09.09,0,0,1,115.8,94.17Z" style="fill:#a6a6a6"></path><path d="M108.25,107.83c0,.17.3.17.29,0,0-4.5,0-9,.08-13.53,1.15-2.32,3.62-3.61,5.34-5.47a23.56,23.56,0,0,0,3.2-4.46A32,32,0,0,0,120.88,72c.48-4.8-1.35-20.67-3.37-20.12-1.06.29-4.46,8.14-5.36,10.74A74.73,74.73,0,0,0,109,75.75C107.31,86.32,107.45,97.19,108.25,107.83Z" style="fill:#ebebeb"></path><path d="M108.22,88.44l0,0c.24-5.69,1.53-11.43,2.73-17,1.29-5.94,2.8-11.54,5.86-16.84,0-.09.2,0,.15.09a62.7,62.7,0,0,0-4.71,12.93c.2-.32.45-.63.67-.93.08-.12.28,0,.19.12a8.61,8.61,0,0,1-.95,1.35h0c-1,4.25-1.81,8.6-2.46,12.93l.15-.16s.09,0,.06,0-.17.28-.25.43c-.33,2.2-.63,4.39-.94,6.57a30.89,30.89,0,0,0,9.15-12.16s.05,0,0,0a25.27,25.27,0,0,1-9.25,12.59c-.08.59-.16,1.17-.25,1.75,0,.13-.21.09-.2,0,0-.52,0-1,0-1.56A.12.12,0,0,1,108.22,88.44Z" style="fill:#a6a6a6"></path><path d="M110.06,80.2a90.14,90.14,0,0,0,8-13.75s.12,0,.1,0a44.44,44.44,0,0,1-7.93,13.81C110.14,80.4,110,80.29,110.06,80.2Z" style="fill:#a6a6a6"></path><path d="M114,65.35c1.24-2.19,2.55-4.33,3.72-6.57,0-.06.11,0,.09.06a34,34,0,0,1-3.62,6.62A.11.11,0,0,1,114,65.35Z" style="fill:#a6a6a6"></path><path d="M113.56,66.31a0,0,0,0,1,0,0S113.53,66.31,113.56,66.31Z" style="fill:#a6a6a6"></path><path d="M106.05,96.31a46.22,46.22,0,0,1-1,8.86c0,.32.09.64.14,1a41.91,41.91,0,0,0,1.58-9.87.31.31,0,0,0,0-.31h0a65.27,65.27,0,0,0-1-13.37c-1.39-8.26-4.43-16.19-10.19-22.39a.41.41,0,0,0-.64.14c-2.32,5.91-1.51,13,.47,18.86a34.61,34.61,0,0,0,4.57,9C101.93,90.93,104.44,93.28,106.05,96.31Z" style="fill:#ebebeb"></path><path d="M96.23,63c5.46,8.86,9.26,19.37,9.72,29.84,0,.18-.3.23-.33,0-.12-.94-.27-1.87-.42-2.8h0A35.45,35.45,0,0,1,99,82.89s0-.1.07-.06a76.21,76.21,0,0,0,6,6.55c-.39-2.32-.85-4.59-1.4-6.84l-.43-.51c-.1-.11.06-.27.16-.16l.13.15A80.11,80.11,0,0,0,100.7,73a27.28,27.28,0,0,1-4-5.08,0,0,0,0,1,.07-.05,41.39,41.39,0,0,0,2.53,3.35c.36.43.77.82,1.15,1.23A70.88,70.88,0,0,0,96,63.08C95.94,63,96.15,62.83,96.23,63Z" style="fill:#a6a6a6"></path><path d="M97.33,73.89c1.77,2.38,3.78,4.65,5.42,7.1,0,.07,0,.14-.11.09A36.2,36.2,0,0,1,97.22,74C97.17,73.89,97.28,73.82,97.33,73.89Z" style="fill:#a6a6a6"></path><path d="M103,81.54l.07.08c.06,0,0,.13-.08.08l-.07-.08C102.87,81.57,103,81.49,103,81.54Z" style="fill:#a6a6a6"></path><path d="M86.83,77.76a27.27,27.27,0,0,0,5.76,13.52,14.34,14.34,0,0,0,4.68,3.64c2,1,4.14,2.16,6.23,3a41,41,0,0,1,2.21,7.84c.07-.23.14-.46.2-.69C104.57,93.5,97.1,83.64,87.54,77.3A.47.47,0,0,0,86.83,77.76Z" style="fill:#ebebeb"></path><path d="M90.13,81.17c-.06-.06,0-.18.1-.13a39.11,39.11,0,0,1,12.18,15c.07.16-.15.29-.24.14-.45-.78-.9-1.54-1.36-2.28h0a13.18,13.18,0,0,1-5.86-3.4s0-.11.06-.07a13.48,13.48,0,0,0,2.76,1.94c.89.45,1.85.74,2.77,1.1-.8-1.29-1.65-2.52-2.53-3.71a25.59,25.59,0,0,1-6.55-3.68c-.06,0,0-.15.06-.11a64.9,64.9,0,0,0,6.09,3.26,54.85,54.85,0,0,0-4.3-5c-.74-.39-1.49-.78-2.21-1.2a.06.06,0,0,1,0-.11,8.33,8.33,0,0,1,1.7.83C92,82.87,91.08,82,90.13,81.17Z" style="fill:#a6a6a6"></path><path d="M90.34,85.15a2.42,2.42,0,0,1,.36.27s0,.07,0,.06a3,3,0,0,1-.39-.22C90.21,85.22,90.27,85.11,90.34,85.15Z" style="fill:#a6a6a6"></path><polygon points="117.66 117.45 97.98 117.45 98.95 104.55 99.32 100.34 116.14 100.34 116.52 104.55 117.66 117.45" style="fill:#dbdbdb"></polygon><polygon points="116.52 104.55 98.95 104.55 99.32 100.34 116.14 100.34 116.52 104.55" style="fill:#c7c7c7"></polygon><rect x="97.98" y="96.89" width="19.5" height="4.31" style="fill:#dbdbdb"></rect><rect x="136.16" y="88.11" width="46.83" height="11.79" transform="translate(253.58 -65.57) rotate(90)" style="fill:#c7c7c7"></rect><rect x="157" y="64.76" width="5.15" height="11.79" transform="translate(230.23 -88.92) rotate(90)" style="fill:#dbdbdb"></rect><rect x="158.62" y="74.88" width="1.91" height="11.79" transform="translate(240.35 -78.79) rotate(90)" style="fill:#dbdbdb"></rect><rect x="157" y="102.81" width="5.15" height="11.79" transform="translate(268.28 -50.87) rotate(90)" style="fill:#dbdbdb"></rect><rect x="142.28" y="85.98" width="54.63" height="8.24" transform="translate(259.7 -79.49) rotate(90)" style="fill:#dbdbdb"></rect><rect x="159.05" y="75.96" width="21.01" height="4.95" transform="translate(247.99 -91.12) rotate(90)" style="fill:#ebebeb"></rect><rect x="182.78" y="91.1" width="54.63" height="8.24" transform="translate(127.61 -120.19) rotate(44.67)" style="fill:#c7c7c7"></rect><rect x="202.45" y="95.54" width="21.01" height="4.95" transform="translate(130.39 -121.4) rotate(44.67)" style="fill:#dbdbdb"></rect><rect x="159.96" y="89.68" width="41.49" height="14" transform="translate(277.38 -84.02) rotate(90)" style="fill:#a6a6a6"></rect><rect x="178.77" y="104.1" width="3.87" height="14" transform="translate(291.8 -69.61) rotate(90)" style="fill:#c7c7c7"></rect><rect x="179.95" y="98.87" width="1.5" height="14" transform="translate(286.58 -74.83) rotate(90)" style="fill:#c7c7c7"></rect><rect x="122.12" y="92.79" width="38.99" height="9.67" transform="translate(287.19 6) rotate(113.23)" style="fill:#a6a6a6"></rect><rect x="134.46" y="105.24" width="3.63" height="9.67" transform="translate(291.17 28.27) rotate(113.23)" style="fill:#c7c7c7"></rect><rect x="143.6" y="83.93" width="3.63" height="9.67" transform="translate(284.35 -9.85) rotate(113.23)" style="fill:#c7c7c7"></rect><rect x="142.74" y="88.53" width="1.41" height="9.67" transform="translate(285.82 -1.61) rotate(113.23)" style="fill:#c7c7c7"></rect></g><g id="freepik--Shadow--inject-17"><ellipse cx="382.29" cy="441.87" rx="84.12" ry="15.13" style="fill:#ebebeb"></ellipse></g><g id="freepik--Character--inject-17"><path d="M288.32,247.39c-2.33,24.93-.92,55.24-14.68,77.24-10.8,17.23-29.84,27.19-48.86,32.64-41.85,12-97.36,6.56-119.54-36.41C96.39,303.7,99,270.87,119,261.5c10.24-4.8,21.61-4.66,32.62-6.05,14.52-1.81,25.72-8.26,34-20.4,16.19-23.64,16.25-42.59,22.49-69.73,1.18-5,3.07-9.89,8.7-13.49a35.1,35.1,0,0,1,17.56-6.78,34.9,34.9,0,0,1,17.08-.44c12,3,22.11,15.81,30.55,24.11s11.9,16.41,11,28.46C291.66,213.94,289.87,230.66,288.32,247.39Z" style="fill:#263238"></path><path d="M289.76,259.49c.66-23,.87-45.94,1.23-68.93,0-.14-.22-.17-.22,0-.85,18.9-1.95,37.77-2.54,56.69-.59,18.54.08,37.64-2.13,56.07-5,41.36-49.71,52.26-84.5,45.36-1.59-.31-1.91,2.24-.3,2.51,30.74,5.09,69-.33,83-32.56C292,301,289.22,278.28,289.76,259.49Z" style="fill:#263238"></path><path d="M210.39,163.43c.06-.45-.6-.51-.68-.08-4.19,22.54-7,49.22-22.62,67.18a58.08,58.08,0,0,1-29.3,18.06c-9,2.29-18.07,1.34-27.23,1.85-35.78,2-42.65,49-19.89,70.84.47.46,1.28-.34.82-.83-15.84-16.67-18.12-43.29-1-60.21,13.77-13.59,35.49-5.65,52.53-11.65C198.36,236.17,206.51,196.47,210.39,163.43Z" style="fill:#263238"></path><path d="M365.69,202.45c-3-3.34-23.54-30.66-40.95-39.57-9.22-4.71-36-14.81-39.6-9.56-3.26,4.79,3.4,9.37,3.4,9.37s-12-4.33-16.47,2.39,7.2,13.85,7.2,13.85-12.67-3.55-16.63,3.47,8.95,12.23,8.95,12.23-11.43-3.78-12.26,3.37c-1,8.61,20.86,13.2,30,20.14,2.07,1.57,39.74,34.93,39.74,34.93Z" style="fill: rgb(247, 169, 160);"></path><path d="M271.65,195.09c16.07,3.42,22.51,7.69,34.09,19,.22.22.6-.07.39-.32-10.34-12.09-17.64-18.61-34.36-19.44C271,194.27,270.88,194.93,271.65,195.09Z" style="fill:#263238"></path><path d="M279.26,179.4c16.38,5,23.41,9.58,36.41,20.51.18.15.46-.14.29-.31-11.85-11.79-19.29-18.13-36.31-21C278.87,178.49,278.51,179.18,279.26,179.4Z" style="fill:#263238"></path><path d="M289.16,163.24c15.51,6,23.43,10.67,34.68,22.9a.31.31,0,0,0,.48-.39c-10.27-13.59-20.11-19.5-34.93-23C288.38,162.55,288.18,162.86,289.16,163.24Z" style="fill:#263238"></path><path d="M331,266.17s-19.39-6.91-27.24-11.82-30.36-34-24.35-39.21c7.75-6.74,24.05,7.49,31.12,15.5,0,0,17.92-15.6,31.83-7.92S331,266.17,331,266.17Z" style="fill: rgb(247, 169, 160);"></path><path d="M282.18,214c11.51-1,20.11,10.08,27.55,17.33a1,1,0,0,0,1.55-.22c8-6,20.92-12.24,30.94-9a.24.24,0,0,0,.19-.44c-10.28-4.94-23.52.11-31.8,7.29-7.52-7.57-16.64-18.34-28.44-15.07C282.1,213.89,282.11,214,282.18,214Z" style="fill:#263238"></path><path d="M270.06,276c17.38,19.73,70.09,71.18,111.28,89.36,16,7.07,33.83,2.55,41.72-5.41,27.88-28.13-48.52-153.54-61.66-162-7.09-4.55-48.55,52.59-39.26,64,3.81,4.69,16.29,19,16.29,19-1.09.78-20-13.6-53.46-25C252.92,245.14,259.29,263.78,270.06,276Z" style="fill: rgb(247, 169, 160);"></path><path d="M392.78,352.16c-1.92-2.21-3.69-4.55-5.48-6.86s-3.69-4.54-5.49-6.85c-3.58-4.57-7.26-9.07-10.84-13.64Q360.22,311.09,350,297q-2.87-4-5.71-7.94c-1.92-2.69-4-5.28-5.86-8-.21-.29-.64,0-.45.34,1.55,2.49,3,5.05,4.56,7.53s3.19,4.91,4.84,7.33q4.9,7.2,10.07,14.21c6.89,9.36,14.09,18.48,21.7,27.29,2.14,2.47,4.38,4.86,6.57,7.3s4.66,4.76,6.9,7.22C392.7,352.36,392.86,352.25,392.78,352.16Z" style="fill:#263238"></path><path d="M335.05,277.79l-30.44,38s-20.43-20.19-37.48-41-12.27-34.73,24-19.21C319.67,267.69,335.05,277.79,335.05,277.79Z" style="fill:#455a64"></path><path d="M285.93,272.07a2.11,2.11,0,1,1-2.11-2.1A2.12,2.12,0,0,1,285.93,272.07ZM305.2,270a2.11,2.11,0,1,0,2.1,2.1A2.1,2.1,0,0,0,305.2,270ZM328,273.58a2.08,2.08,0,0,1-1.46.6,2.11,2.11,0,0,1-2.1-2.11,2.14,2.14,0,0,1,0-.45Zm-54.91-18.81a2.11,2.11,0,1,0,2.11,2.11A2.11,2.11,0,0,0,273.13,254.77Zm19.42,1.33a2.25,2.25,0,0,0-.14.78,2.1,2.1,0,0,0,2.1,2.1,2.13,2.13,0,0,0,1.9-1.19Zm12.65,45.75a2.11,2.11,0,1,0,2.1,2.1A2.1,2.1,0,0,0,305.2,301.85Zm-10.69-15.19a2.1,2.1,0,1,0,2.1,2.1A2.1,2.1,0,0,0,294.51,286.66Zm21.38,0a2.1,2.1,0,1,0,2.1,2.1A2.1,2.1,0,0,0,315.89,286.66Z" style="fill:#fff"></path><path d="M324.41,274.7a82.64,82.64,0,0,1-6.25,7.94c-2.16,2.57-4.36,5.1-6.57,7.62s-4.46,5.09-6.74,7.57-4.82,5-7.23,7.45c-.14.14-.39-.08-.26-.24,2.1-2.63,4.11-5.34,6.27-7.92s4.37-5.1,6.58-7.62,4.46-5.08,6.74-7.57a83.31,83.31,0,0,1,7.24-7.43A.15.15,0,0,1,324.41,274.7Z" style="fill:#263238"></path><path d="M321.71,294.42l-17.1,21.33s-20.44-20.18-37.47-41c-8.24-10.07-11.39-18.52-8.34-22.8Z" style="opacity:0.1"></path><path d="M318.25,415,308,352.19s14.11-24.64,5.92-42.32c-4.13-9-29.17-44.79-44.43-55.87-14.32-10.39-33-7.37-40.74.77C199,286.15,181.43,330.09,170.72,415Z" style="fill: rgb(247, 169, 160);"></path><path d="M318.25,395.14,308,352.19s14.11-24.64,5.92-42.32c-4.13-9-32.11-49.82-47.37-60.9-14.32-10.4-36-1.35-43.7,6.79-29.81,31.38-42.77,73.06-55,139.38Z" style="fill:#455a64"></path><path d="M221.79,272.07a2.11,2.11,0,1,1-2.1-2.1A2.11,2.11,0,0,1,221.79,272.07Zm19.27-2.1a2.11,2.11,0,1,0,2.11,2.1A2.1,2.1,0,0,0,241.06,270Zm21.38,0a2.11,2.11,0,1,0,2.11,2.1A2.1,2.1,0,0,0,262.44,270Zm21.38,0a2.11,2.11,0,1,0,2.11,2.1A2.1,2.1,0,0,0,283.82,270Zm-53.44-15.2a2.11,2.11,0,1,0,2.1,2.11A2.11,2.11,0,0,0,230.38,254.77Zm21.37,0a2.11,2.11,0,1,0,2.11,2.11A2.11,2.11,0,0,0,251.75,254.77Zm21.44,0h-.06a2.11,2.11,0,1,0,2.11,2.11v0C274.54,256.13,273.86,255.44,273.19,254.77Zm-74.88,47.08a2.11,2.11,0,1,0,2.1,2.1A2.11,2.11,0,0,0,198.31,301.85Zm21.38,0a2.11,2.11,0,1,0,2.1,2.1A2.1,2.1,0,0,0,219.69,301.85Zm21.37,0a2.11,2.11,0,1,0,2.11,2.1A2.1,2.1,0,0,0,241.06,301.85Zm21.38,0a2.11,2.11,0,1,0,2.11,2.1A2.1,2.1,0,0,0,262.44,301.85Zm21.38,0a2.11,2.11,0,1,0,2.11,2.1A2.1,2.1,0,0,0,283.82,301.85Zm21.38,0a2.11,2.11,0,1,0,2.1,2.1A2.1,2.1,0,0,0,305.2,301.85ZM209,286.66a2.1,2.1,0,1,0,2.1,2.1A2.11,2.11,0,0,0,209,286.66Zm21.38,0a2.1,2.1,0,1,0,2.1,2.1A2.1,2.1,0,0,0,230.38,286.66Zm21.37,0a2.1,2.1,0,1,0,2.11,2.1A2.1,2.1,0,0,0,251.75,286.66Zm21.38,0a2.1,2.1,0,1,0,2.11,2.1A2.1,2.1,0,0,0,273.13,286.66Zm21.38,0a2.1,2.1,0,1,0,2.1,2.1A2.1,2.1,0,0,0,294.51,286.66Zm-96.2,47.07a2.11,2.11,0,1,0,2.1,2.11A2.11,2.11,0,0,0,198.31,333.73Zm21.38,0a2.11,2.11,0,1,0,2.1,2.11A2.1,2.1,0,0,0,219.69,333.73Zm21.37,0a2.11,2.11,0,1,0,2.11,2.11A2.1,2.1,0,0,0,241.06,333.73Zm21.38,0a2.11,2.11,0,1,0,2.11,2.11A2.1,2.1,0,0,0,262.44,333.73Zm21.38,0a2.11,2.11,0,1,0,2.11,2.11A2.1,2.1,0,0,0,283.82,333.73Zm21.38,0a2.11,2.11,0,1,0,2.1,2.11A2.1,2.1,0,0,0,305.2,333.73ZM187.62,318.54a2.06,2.06,0,0,0-1.2.38c-.27.78-.54,1.56-.8,2.34a2.1,2.1,0,1,0,2-2.72Zm21.38,0a2.1,2.1,0,1,0,2.1,2.1A2.11,2.11,0,0,0,209,318.54Zm21.38,0a2.1,2.1,0,1,0,2.1,2.1A2.1,2.1,0,0,0,230.38,318.54Zm21.37,0a2.1,2.1,0,1,0,2.11,2.1A2.1,2.1,0,0,0,251.75,318.54Zm21.38,0a2.1,2.1,0,1,0,2.11,2.1A2.1,2.1,0,0,0,273.13,318.54Zm21.38,0a2.1,2.1,0,1,0,2.1,2.1A2.1,2.1,0,0,0,294.51,318.54Zm21.78,0a1.75,1.75,0,0,0-.4,0,2.1,2.1,0,1,0,.61,4.11A36.86,36.86,0,0,0,316.29,318.58Zm-139.36,47a2.11,2.11,0,1,0,2.1,2.11A2.11,2.11,0,0,0,176.93,365.61Zm21.38,0a2.11,2.11,0,1,0,2.1,2.11A2.12,2.12,0,0,0,198.31,365.61Zm21.38,0a2.11,2.11,0,1,0,2.1,2.11A2.11,2.11,0,0,0,219.69,365.61Zm21.37,0a2.11,2.11,0,1,0,2.11,2.11A2.11,2.11,0,0,0,241.06,365.61Zm21.38,0a2.11,2.11,0,1,0,2.11,2.11A2.11,2.11,0,0,0,262.44,365.61Zm21.38,0a2.11,2.11,0,1,0,2.11,2.11A2.11,2.11,0,0,0,283.82,365.61Zm21.38,0a2.11,2.11,0,1,0,2.1,2.11A2.11,2.11,0,0,0,305.2,365.61ZM187.62,350.42a2.11,2.11,0,1,0,2.1,2.1A2.1,2.1,0,0,0,187.62,350.42Zm21.38,0a2.11,2.11,0,1,0,2.1,2.1A2.11,2.11,0,0,0,209,350.42Zm21.38,0a2.11,2.11,0,1,0,2.1,2.1A2.1,2.1,0,0,0,230.38,350.42Zm21.37,0a2.11,2.11,0,1,0,2.11,2.1A2.1,2.1,0,0,0,251.75,350.42Zm21.38,0a2.11,2.11,0,1,0,2.11,2.1A2.1,2.1,0,0,0,273.13,350.42Zm21.38,0a2.11,2.11,0,1,0,2.1,2.1A2.1,2.1,0,0,0,294.51,350.42ZM187.62,382.3a2.11,2.11,0,1,0,2.1,2.1A2.1,2.1,0,0,0,187.62,382.3Zm21.38,0a2.11,2.11,0,1,0,2.1,2.1A2.11,2.11,0,0,0,209,382.3Zm21.38,0a2.11,2.11,0,1,0,2.1,2.1A2.1,2.1,0,0,0,230.38,382.3Zm21.37,0a2.11,2.11,0,1,0,2.11,2.1A2.1,2.1,0,0,0,251.75,382.3Zm21.38,0a2.11,2.11,0,1,0,2.11,2.1A2.1,2.1,0,0,0,273.13,382.3Zm21.38,0a2.11,2.11,0,1,0,2.1,2.1A2.1,2.1,0,0,0,294.51,382.3Zm20.71.12a2.08,2.08,0,0,0-1.43,2,2.1,2.1,0,0,0,2.1,2.11l.3,0Z" style="fill:#fff"></path><path d="M283,343a148.62,148.62,0,0,0-21.59,3.55c-3.52.9-7,2-10.42,3.1-1.72.56-3.44,1.07-5.18,1.57a23.53,23.53,0,0,1-5.56,1,.13.13,0,0,0,0,.26,40,40,0,0,0,5.36-.1,38.65,38.65,0,0,0,5.11-1c3.57-.88,7.1-1.93,10.67-2.85,7.2-1.85,14.39-3.69,21.7-5C283.43,343.55,283.35,343,283,343Z" style="fill:#263238"></path><path d="M301,349.46a159.87,159.87,0,0,0-18-.87c-3,0-6,.25-9,.54-1.43.13-2.86.3-4.29.48s-3.12.61-4.69.79c-.16,0-.16.27,0,.26,1.48-.12,3,0,4.49,0l4.5-.11c3-.08,6-.12,9-.22,6-.2,12-.34,18-.34C301.31,350,301.29,349.49,301,349.46Z" style="fill:#263238"></path><path d="M231.25,267.55c-19,6.58-108.08,8-119.21-4.86-20.69-24-27.85-89.9-31.27-97.87-9.39-21.83,60.88-27.76,63-13.93,3.55,23.1,8.09,68.52,12.94,70.28,14.36,5.22,41.67,14.71,72.64,23.58C251,250.94,252.21,260.28,231.25,267.55Z" style="fill: rgb(247, 169, 160);"></path><path d="M82.82,172.67c4.8,6.42,56-6.17,59.37-13.7a32.36,32.36,0,0,0,1.58-8.08h0s8.25-16.39,20-27.59c9.82-9.43,25.48-22.29,20.61-27.76-7.08-8-28.84,5.89-40.84,14.63-.94-8-2.49-14.83-4.86-18.47-7.84-12.08-66.2,16.09-67.65,30.66C69.62,136.4,78,166.25,82.82,172.67Z" style="fill: rgb(247, 169, 160);"></path><path d="M147,112.7c-4.49,6-9-2.72-9-2.72s3.45,14.1-3.57,18.49c-6.76,4.22-11.82-6.5-12.19-7.26.17.74,3,13.78-4.5,17.47-7.8,3.82-11-7.81-11.23-8.56-.06.76-1,10.77-7.3,12.27C88.39,145,90,119.31,83.72,112.78c0,0-12.29,9.36-12.7,9.56,0,0,1-24.44,10.31-32.41a7.82,7.82,0,0,1,9.78-.47s-.54-7.91,5.27-11c3-1.58,8.17,1.8,8.17,1.8s-.16-6.36,5.18-8.79c4.26-1.94,8.79,1.75,8.79,1.75s2.67-6.18,7.67-6.76C136.26,65.27,156.62,99.87,147,112.7Z" style="fill: rgb(247, 169, 160);"></path><path d="M119.33,73.69a.11.11,0,0,1,.16-.14c9.47,9.74,16.89,23.35,18.86,36.88.07.44-.63.74-.79.26C132.86,97.14,127.61,85.48,119.33,73.69Z" style="fill:#263238"></path><path d="M104.52,80c-.09-.12.12-.28.24-.15,9.71,10.09,17.64,25.64,18.08,41.5,0,.55-.52,1-.58.43C121.17,111.29,112,90.62,104.52,80Z" style="fill:#263238"></path><path d="M106.22,131.24c-1-15.19-6.78-28.54-14.68-41.39-.1-.16.14-.29.27-.17,5.57,5.23,9.76,13.94,12.44,21a40.25,40.25,0,0,1,2.5,20.52C106.71,131.48,106.24,131.56,106.22,131.24Z" style="fill:#263238"></path><path d="M138.28,110.1c.08.53-.78.06-.72.59.25,2.25.61,15.93-4,17.5-3.7,1.25-8-2.87-9-5.09L122,117.52l.45,6.13a24.84,24.84,0,0,1-.66,8.11c-.67,2.57-2,5-4.19,6a5.15,5.15,0,0,1-6.39-1,15.57,15.57,0,0,1-3.49-6.95L106,122.82l-.62,7.21a23.37,23.37,0,0,1-1.26,5.89,9.78,9.78,0,0,1-3.14,4.65,4.63,4.63,0,0,1-4.85.42,10.22,10.22,0,0,1-3.55-4.48c-1.79-3.73-2.8-7.88-4-11.95-.59-2-1.18-4.1-1.86-6.13a15.17,15.17,0,0,0-3-5.65c1.33,1.68,1.81,3.81,2.39,5.82s1,4.13,1.39,6.22A69,69,0,0,0,91,137.24a11.92,11.92,0,0,0,4.09,5.5,6.53,6.53,0,0,0,7.18-.34,11.88,11.88,0,0,0,4-5.66,26,26,0,0,0,1.51-6.53l-2.4.16a17.74,17.74,0,0,0,4.05,8.24,7.41,7.41,0,0,0,4.46,2.33,8.46,8.46,0,0,0,4.88-1c3-1.58,4.61-4.74,5.32-7.62a27.39,27.39,0,0,0,.58-8.93l-2.1.55c1.38,2.78,5.63,7.89,11.62,6.68C141.76,127.89,139,112.82,138.28,110.1Z" style="fill:#263238"></path><path d="M138.06,110a14.61,14.61,0,0,0,3.37,3.12,3.46,3.46,0,0,0,3.51.31,7,7,0,0,0,2.58-3.07c.67-1.35,1.31-2.8,1.91-4.33a11.79,11.79,0,0,1-.39,4.93,7,7,0,0,1-3.15,4.34,5,5,0,0,1-2.95.42,5.18,5.18,0,0,1-2.5-1.3A8.08,8.08,0,0,1,138.06,110Z" style="fill:#263238"></path><path d="M167.24,223.47l10.68,55.36s38.83-.34,56.76-4.67C251.86,270,259.16,254,229.23,243,192.34,229.56,167.24,223.47,167.24,223.47Z" style="fill:#455a64"></path><path d="M179,240.19a2.1,2.1,0,1,1-2.1-2.1A2.11,2.11,0,0,1,179,240.19Zm19.28-2.1a2.11,2.11,0,1,0,2.1,2.1A2.11,2.11,0,0,0,198.31,238.09Zm19.63.92a2.19,2.19,0,0,0-.36,1.18,2.1,2.1,0,0,0,4.2.18Zm-50.13-15.4-.57-.14.56,2.92a2.07,2.07,0,0,0,0-2.78ZM176.93,270a2.33,2.33,0,0,0-.7.11h0l.79,4.09a2.11,2.11,0,0,0-.09-4.21Zm21.38,0a2.11,2.11,0,1,0,2.1,2.1A2.11,2.11,0,0,0,198.31,270Zm21.38,0a2.11,2.11,0,1,0,2.1,2.1A2.1,2.1,0,0,0,219.69,270Zm21.37,0a2.1,2.1,0,0,0-2.1,2.1,2,2,0,0,0,.12.68,24.39,24.39,0,0,0,3.72-1.87A2.1,2.1,0,0,0,241.06,270Zm-53.44-15.2a2.11,2.11,0,1,0,2.1,2.11A2.11,2.11,0,0,0,187.62,254.77Zm21.38,0a2.11,2.11,0,1,0,2.1,2.11A2.12,2.12,0,0,0,209,254.77Zm21.38,0a2.11,2.11,0,1,0,2.1,2.11A2.11,2.11,0,0,0,230.38,254.77Z" style="fill:#fff"></path><path d="M179.3,231.12a80.74,80.74,0,0,1,2.58,9.77c.76,3.26,1.45,6.55,2.14,9.83s1.39,6.62,2,9.94,1.06,6.83,1.6,10.25c0,.19-.29.26-.34.06-.85-3.25-1.8-6.49-2.56-9.77s-1.45-6.55-2.14-9.83-1.37-6.63-2-10A83,83,0,0,1,179,231.17.15.15,0,0,1,179.3,231.12Z" style="fill:#263238"></path><path d="M177.92,278.83c4.4-.4,8.79-.67,13.18-.92l13.17-.67,13.15-.65,13.17-.78a101.21,101.21,0,0,1-13,2.34c-4.38.55-8.78.84-13.19,1.08s-8.81.3-13.22.24S182.32,279.26,177.92,278.83Z" style="fill:#263238"></path><path d="M214.39,277.62a48.45,48.45,0,0,1,5.71.82c1.87.38,3.72.76,5.6,1.32a19,19,0,0,1-5.79-.34A21.25,21.25,0,0,1,214.39,277.62Z" style="fill:#263238"></path><path d="M221.06,240.11s15.23,30.08,38.73,34.18,18.62-23.44,18.62-23.44a124.35,124.35,0,0,0-26.15-6.56C241.65,242.72,221.06,240.11,221.06,240.11Z" style="fill: rgb(247, 169, 160);"></path><path d="M280.15,434.92c-6,0-10.13-.76-11.1-3-1.65-3.81,2.82-7.79,7.55-12,4.19-3.73,8.53-7.6,9-11.53.71-5.52-2.22-10.46-5.92-16.71a127.28,127.28,0,0,1-6.3-11.62c-3-6.44-1.4-21.1.28-36.63,1.71-15.84,3.48-32.22-.24-37.82-3.38-5.08-13.06-11.07-22.43-16.87-11.12-6.89-22.62-14-25.39-20.46-5.06-11.8,1-44.83,1.3-46.24l1,.19c-.07.34-6.31,34.14-1.37,45.65,2.64,6.16,14,13.2,25,20,9.89,6.12,19.23,11.91,22.73,17.17,3.92,5.9,2.21,21.72.4,38.48-1.59,14.71-3.23,29.92-.36,36.1a124.24,124.24,0,0,0,6.25,11.53c3.8,6.42,6.81,11.49,6.05,17.34-.55,4.31-5,8.3-9.35,12.16s-8.66,7.71-7.3,10.86c1.64,3.8,17.18,2.29,32.21.85,9.57-.93,19.47-1.89,26.65-1.6,18.64.76,48,2.29,48.33,2.31l-.05,1c-.3,0-29.69-1.55-48.33-2.31-7.1-.29-17,.67-26.51,1.59C293.91,434.17,286.11,434.92,280.15,434.92Z" style="fill:#263238"></path><path d="M274.58,308.07c-.11-7.36,8.08-19.17,16-30.6,6.24-9,12.14-17.5,13.85-23.47,3.85-13.45-6.09-49.28-6.19-49.64l1-.27c.41,1.48,10.12,36.47,6.19,50.19-1.75,6.12-7.7,14.69-14,23.76-7.83,11.3-15.94,23-15.83,30Z" style="fill:#263238"></path><rect x="370.81" y="428.14" width="5" height="11.01" transform="translate(-86.57 774.1) rotate(-85.79)" style="fill:#4F75FF"></rect><rect x="365.93" y="429.47" width="2" height="7.57" transform="translate(-92.1 767.39) rotate(-85.79)" style="fill:#4F75FF"></rect><path d="M273.25,196.93c.71,9.95,8.36,17.52,17.09,16.9s15.23-9.19,14.53-19.14-8.36-17.52-17.09-16.9S272.55,187,273.25,196.93Z" style="fill:#4F75FF"></path><path d="M268.17,197.92c.79,11.07,9.3,19.49,19,18.8s16.95-10.22,16.17-21.29-9.3-19.49-19-18.8S267.39,186.85,268.17,197.92Z" style="fill:#4F75FF"></path><path d="M268.17,197.92c.79,11.07,9.3,19.49,19,18.8s16.95-10.22,16.17-21.29-9.3-19.49-19-18.8S267.39,186.85,268.17,197.92Z" style="fill:#fff;opacity:0.6"></path><path d="M237.48,250.14c.57,2.45,17,19.82,27.89,17.11,7.69-1.92-.85-19.37-.85-19.37l5-22.11-27.72-17.66S237.25,249.09,237.48,250.14Z" style="fill: rgb(247, 169, 160);"></path><path d="M240.2,222.51a43.24,43.24,0,0,0,24.6,24.14l4.71-20.87-27.73-17.67S241.07,214.62,240.2,222.51Z" style="fill:#263238"></path><path d="M264.8,246.65a32.16,32.16,0,0,1,2.16-9.6,27.49,27.49,0,0,1-.72,4.88A28.5,28.5,0,0,1,264.8,246.65Z" style="fill:#455a64"></path><path d="M297.6,190.6c6.23,36.59-15,44.46-22.88,45.79-7.16,1.21-31.71,4.43-41.69-31.33s5.06-50.22,21.3-53.86S291.36,154,297.6,190.6Z" style="fill: rgb(247, 169, 160);"></path><path d="M233.37,202.42c8.83-.65,7.61-14.55,7.61-14.55s9.92-1.73,9.32-17.93c0,0,5.62,9.35,19.34,10.21,2.9.18-7.33-6.46-7.33-6.46s12.39,9.48,33.44,3.75c1.49-.4-3.59-22.7-21-29s-32.18-.7-41.68,10.75A20.41,20.41,0,0,0,223.59,176C223.18,187.71,229.94,202.67,233.37,202.42Z" style="fill:#263238"></path><path d="M239.28,204.33s-9-10.88-14-7.57,2.45,19.55,8.79,21.33a6.28,6.28,0,0,0,8.11-4.05Z" style="fill: rgb(247, 169, 160);"></path><path d="M227.51,201.36a.09.09,0,0,0,0,.17c4.45,1.39,7,5.2,9,9.22-1.42-1.49-3.24-2.22-5.25-.52-.11.09,0,.25.14.22a3.87,3.87,0,0,1,4.34,1A19,19,0,0,1,238,214.7c.24.37.92.11.73-.32a1,1,0,0,0,0-.1C238.36,208.77,233.46,201.43,227.51,201.36Z" style="fill:#263238"></path><path d="M286.18,185.1a23.94,23.94,0,0,1-2.55-.27,4.09,4.09,0,0,1-2.55-.77,1.33,1.33,0,0,1-.17-1.6,3.28,3.28,0,0,1,3.14-1.1,4.83,4.83,0,0,1,3.18,1.39A1.41,1.41,0,0,1,286.18,185.1Z" style="fill:#263238"></path><path d="M260.77,187.36a23.84,23.84,0,0,0,2.44-.78,4.17,4.17,0,0,0,2.34-1.27,1.34,1.34,0,0,0-.17-1.61,3.28,3.28,0,0,0-3.29-.43,4.83,4.83,0,0,0-2.83,2A1.41,1.41,0,0,0,260.77,187.36Z" style="fill:#263238"></path><path d="M270.92,216.47c.63.57,1.26,1.36,2.18,1.39a6.68,6.68,0,0,0,2.69-.74.09.09,0,0,1,.12.12,3.42,3.42,0,0,1-3.15,1.51,2.71,2.71,0,0,1-2.08-2.16C270.63,216.45,270.82,216.39,270.92,216.47Z" style="fill:#263238"></path><path d="M280.54,206.33s.89,3.71,1.06,5.48c0,.17-.4.29-1,.39,0,0,0,0-.07,0a8.49,8.49,0,0,1-8.5-2.33.18.18,0,0,1,.24-.27,12.8,12.8,0,0,0,7.92,1.44c.07-.5-1.74-6.3-1.46-6.35a15.12,15.12,0,0,1,4.11.52c-1.63-7.78-4.49-15.23-6-23a.24.24,0,0,1,.45-.16c3.55,7.59,5.63,16.5,7.52,24.48C285.06,207.54,281.27,206.57,280.54,206.33Z" style="fill:#263238"></path><path d="M279.32,211.36a9.18,9.18,0,0,1-3.22,3.32,4.15,4.15,0,0,1-2.45.5c-1.85-.21-2.13-1.85-2-3.3a10,10,0,0,1,.5-2.25A11.78,11.78,0,0,0,279.32,211.36Z" style="fill:#263238"></path><path d="M276.1,214.68a4.15,4.15,0,0,1-2.45.5c-1.85-.21-2.13-1.85-2-3.3C273.59,211.81,275.67,212.84,276.1,214.68Z" style="fill:#ff9cbd"></path><path d="M263.74,195a5.87,5.87,0,0,1-2.29,1.32c-1,.19-2-.72-2.72-1.48-.07-.08-.13,0-.13.11a2.77,2.77,0,0,0,2.63,2.89c1.54.08,2.52-1.64,3-2.35C264.42,195.21,264,194.75,263.74,195Z" style="fill:#263238"></path><path d="M262.63,199.43a5.38,5.38,0,0,1,.21-3.26,2.78,2.78,0,0,1,1.19-1.4,2.69,2.69,0,0,1,1.89-.26,2.64,2.64,0,0,1,1.53,1.12,4.63,4.63,0,0,1,.65,1.61,6.61,6.61,0,0,1-.1,3.25,13.59,13.59,0,0,0-.68-3c-.35-.92-.89-1.79-1.65-1.94a1.92,1.92,0,0,0-2.11,1A9.23,9.23,0,0,0,262.63,199.43Z" style="fill:#263238"></path><path d="M286.05,192.33c.69.35,1.53,1.35,2.46,1.18s1.17-1.16,1.64-2.07c.05-.09.12,0,.13.07.23,1.55-.19,3.26-1.7,3.56-1.11.22-2.2-1.66-2.87-2.14C285.46,192.75,285.77,192.19,286.05,192.33Z" style="fill:#263238"></path><path d="M288,196a5.42,5.42,0,0,0-1.22-3,2.87,2.87,0,0,0-1.57-.94,2.52,2.52,0,0,0-3,1.89,4.64,4.64,0,0,0-.11,1.73,6.67,6.67,0,0,0,1.12,3.05,13.13,13.13,0,0,1-.3-3.08,2.81,2.81,0,0,1,.95-2.36,1.93,1.93,0,0,1,2.32.29A8.82,8.82,0,0,1,288,196Z" style="fill:#263238"></path><path d="M298.49,208.12a29,29,0,0,1-.94,7.23,31.62,31.62,0,0,1-2.59,6.86,25,25,0,0,1-4.28,6,21.61,21.61,0,0,1-5.86,4.34c.47-.38.95-.76,1.43-1.12l.71-.55.65-.63,1.32-1.21,1.18-1.35a31,31,0,0,0,4-5.92,42.31,42.31,0,0,0,2.74-6.6c.37-1.14.7-2.3,1-3.47S298.29,209.31,298.49,208.12Z" style="fill:#263238"></path><path d="M225.45,195.79s-4-21.47,1-34.14c5.51-14.1,27.9-20.66,39.25-15.49,0,0-17.57-4.74-30.58,15.45-5.49,8.51-2.36,33.91-2.36,33.91Z" style="fill:#4F75FF"></path><path d="M225.45,195.79s-4-21.47,1-34.14c5.51-14.1,27.9-20.66,39.25-15.49,0,0-17.57-4.74-30.58,15.45-5.49,8.51-2.36,33.91-2.36,33.91Z" style="fill:#fff;opacity:0.6"></path><path d="M247,204.36c1.39,11-5.31,20.93-15,22.15s-18.62-6.71-20-17.72,5.3-20.93,15-22.15S245.59,193.35,247,204.36Z" style="fill:#4F75FF"></path><path d="M247,204.36c1.39,11-5.31,20.93-15,22.15s-18.62-6.71-20-17.72,5.3-20.93,15-22.15S245.59,193.35,247,204.36Z" style="fill:#fff;opacity:0.6"></path><path d="M241.81,204.38c1.25,9.9-4.77,18.81-13.45,19.91s-16.74-6-18-15.93,4.77-18.81,13.45-19.91S240.56,194.49,241.81,204.38Z" style="fill:#4F75FF"></path><path d="M233.27,205.65c.77,6.08-2.93,11.55-8.26,12.23s-10.29-3.71-11.06-9.79,2.93-11.56,8.27-12.23S232.51,199.56,233.27,205.65Z" style="fill:#4F75FF"></path><path d="M233.27,205.65c.77,6.08-2.93,11.55-8.26,12.23s-10.29-3.71-11.06-9.79,2.93-11.56,8.27-12.23S232.51,199.56,233.27,205.65Z" style="opacity:0.2"></path></g><g id="freepik--Plant--inject-17"><path d="M98.81,324c-15,14.69-17.53,37.42-14.37,57.33.08.46.78.33.78-.09,0-4.54-.13-9-.12-13.5l.23-.61c3.92-2.85,7.52-6.06,9.75-10.47,2.51-4.93,3.49-10.49,5.41-15.64.18-.5-.35-.35-.69-.1-9.13,6.74-12,14-14.66,23.67a80.37,80.37,0,0,1,1.59-15.08c2-9.19,5.87-18.3,12.47-25.12A.28.28,0,0,0,98.81,324Z" style="fill:#263238"></path><path d="M101.63,325.69c2.58.09,4.2,4.21,6.21,5.42a1.94,1.94,0,0,0,2.85-.45c2-2.78-.74-6.22-3.31-8.14,1.84.76,3.36,2.09,5.35,2.46a1.85,1.85,0,0,0,2.41-1.44c.88-3.8-3.88-5.48-7.15-5.56,1.58-1.1,6.12-4.1,3.71-5.57s-7.77,2.8-9.5,4.21c-2.55,2.07-5.6,5.17-5.71,8.41C96.34,328.81,99.64,326.48,101.63,325.69Z" style="fill:#4F75FF"></path><path d="M101.63,325.69c2.58.09,4.2,4.21,6.21,5.42a1.94,1.94,0,0,0,2.85-.45c2-2.78-.74-6.22-3.31-8.14,1.84.76,3.36,2.09,5.35,2.46a1.85,1.85,0,0,0,2.41-1.44c.88-3.8-3.88-5.48-7.15-5.56,1.58-1.1,6.12-4.1,3.71-5.57s-7.77,2.8-9.5,4.21c-2.55,2.07-5.6,5.17-5.71,8.41C96.34,328.81,99.64,326.48,101.63,325.69Z" style="opacity:0.2"></path><path d="M100.88,326.33c3.3-1.51,9.64.65,10.18-.59,1.1-2.55-4-4.29-6.71-4.63,2.52-.68,7.35-1.77,7.2-4.2-.18-3-7.4-.42-11.06,2.39-4.6,3.53-4.57,6.94-3.81,7.62C97.72,327.86,100.34,326.57,100.88,326.33Z" style="fill:#4F75FF"></path><path d="M100.88,326.33c3.3-1.51,9.64.65,10.18-.59,1.1-2.55-4-4.29-6.71-4.63,2.52-.68,7.35-1.77,7.2-4.2-.18-3-7.4-.42-11.06,2.39-4.6,3.53-4.57,6.94-3.81,7.62C97.72,327.86,100.34,326.57,100.88,326.33Z" style="opacity:0.1"></path><path d="M64.63,322.52c15.55,14.11,18.94,36.73,16.53,56.75-.06.46-.77.36-.78-.07-.17-4.52-.21-9-.39-13.49l-.26-.6c-4-2.69-7.74-5.77-10.14-10.09-2.69-4.83-3.89-10.35-6-15.43-.2-.48.33-.36.69-.12,9.38,6.39,12.56,13.52,15.55,23.09a81.1,81.1,0,0,0-2.16-15c-2.32-9.11-6.57-18.06-13.43-24.63C64,322.68,64.36,322.27,64.63,322.52Z" style="fill:#263238"></path><path d="M61.87,324.34c-2.57.19-4,4.37-6,5.65a1.93,1.93,0,0,1-2.86-.34c-2.1-2.7.5-6.24,3-8.26-1.81.83-3.29,2.22-5.25,2.67a1.86,1.86,0,0,1-2.47-1.35c-1-3.76,3.67-5.63,6.93-5.83-1.62-1-6.27-3.86-3.92-5.42S59.17,314,61,315.3c2.63,2,5.79,4.95,6,8.18C67.28,327.26,63.89,325.06,61.87,324.34Z" style="fill:#4F75FF"></path><path d="M61.87,324.34c-2.57.19-4,4.37-6,5.65a1.93,1.93,0,0,1-2.86-.34c-2.1-2.7.5-6.24,3-8.26-1.81.83-3.29,2.22-5.25,2.67a1.86,1.86,0,0,1-2.47-1.35c-1-3.76,3.67-5.63,6.93-5.83-1.62-1-6.27-3.86-3.92-5.42S59.17,314,61,315.3c2.63,2,5.79,4.95,6,8.18C67.28,327.26,63.89,325.06,61.87,324.34Z" style="opacity:0.2"></path><path d="M62.64,325c-3.35-1.38-9.61,1-10.19-.2-1.19-2.5,3.8-4.44,6.53-4.88-2.55-.59-7.41-1.49-7.36-3.92.07-3,7.39-.7,11.15,2,4.73,3.35,4.83,6.76,4.1,7.47C65.86,326.36,63.2,325.17,62.64,325Z" style="fill:#4F75FF"></path><path d="M62.64,325c-3.35-1.38-9.61,1-10.19-.2-1.19-2.5,3.8-4.44,6.53-4.88-2.55-.59-7.41-1.49-7.36-3.92.07-3,7.39-.7,11.15,2,4.73,3.35,4.83,6.76,4.1,7.47C65.86,326.36,63.2,325.17,62.64,325Z" style="opacity:0.1"></path><path d="M80.53,359.79a153,153,0,0,0,4.84,22.32.55.55,0,0,0,1.08-.22c-1-6.88-2.88-13.63-3.9-20.5a103.06,103.06,0,0,1-1.2-21.05c.66-11.59,3.8-23.92,11.36-33,.17-.22-.18-.52-.35-.32-15.14,17.65-12.73,39.29-12.72,41.23-2.14-7.31-4.35-15.68-12.46-23.13-.35-.32-.62-.16-.56.38,1.45,13.55,5.22,20.63,13.07,27.88C79.92,355.54,80.19,357.68,80.53,359.79Z" style="fill:#263238"></path><path d="M92.85,309.39c2.72-1.21,6.48,2.26,9.17,2.49a2.24,2.24,0,0,0,2.74-1.9c.66-3.89-3.9-6.07-7.54-6.77,2.29-.14,4.54.47,6.79-.14a2.16,2.16,0,0,0,1.78-2.72c-1-4.37-6.79-3.73-10.22-2.17,1.09-1.94,4.29-7.32,1.05-7.64s-6.65,6.82-7.74,9.15c-1.61,3.44-3.21,8.18-1.7,11.6C88.93,315.29,91.19,311.21,92.85,309.39Z" style="fill:#4F75FF"></path><path d="M92.85,309.39c2.72-1.21,6.48,2.26,9.17,2.49a2.24,2.24,0,0,0,2.74-1.9c.66-3.89-3.9-6.07-7.54-6.77,2.29-.14,4.54.47,6.79-.14a2.16,2.16,0,0,0,1.78-2.72c-1-4.37-6.79-3.73-10.22-2.17,1.09-1.94,4.29-7.32,1.05-7.64s-6.65,6.82-7.74,9.15c-1.61,3.44-3.21,8.18-1.7,11.6C88.93,315.29,91.19,311.21,92.85,309.39Z" style="opacity:0.2"></path><path d="M92.4,310.42c2.67-3.22,10.33-4.17,10.26-5.73-.14-3.19-6.28-2.45-9.29-1.43,2.27-2,6.73-5.53,5.36-8-1.68-3-7.89,3.3-10.28,8.05-3,6-1.25,9.5-.12,9.83C89.89,313.6,92,311,92.4,310.42Z" style="fill:#4F75FF"></path><path d="M92.4,310.42c2.67-3.22,10.33-4.17,10.26-5.73-.14-3.19-6.28-2.45-9.29-1.43,2.27-2,6.73-5.53,5.36-8-1.68-3-7.89,3.3-10.28,8.05-3,6-1.25,9.5-.12,9.83C89.89,313.6,92,311,92.4,310.42Z" style="opacity:0.1"></path><path d="M70.58,363.87l-6.68,51h40.63c-.84-4.52-8.4-51.07-8.4-51.07Z" style="fill:#4F75FF"></path></g><g id="freepik--Table--inject-17"><polygon points="30.43 414.88 85.32 414.64 140.22 414.55 250 414.38 359.78 414.55 414.68 414.64 469.57 414.88 414.68 415.13 359.78 415.21 250 415.38 140.22 415.21 85.32 415.13 30.43 414.88" style="fill:#263238"></polygon></g><g id="freepik--Lines--inject-17"><path d="M177.33,192.35a23.42,23.42,0,0,1,.18-7.28,23,23,0,0,1,2.36-7,18,18,0,0,1,.94-1.59l1.07-1.51c.39-.48.83-.92,1.24-1.38.22-.22.41-.46.64-.67l.71-.58c.49-.38.94-.81,1.45-1.14l1.56-1a10.86,10.86,0,0,1,1.64-.81l1.68-.7A27.4,27.4,0,0,0,185,173a11.46,11.46,0,0,0-1.23,1.28c-.37.45-.77.89-1.13,1.36l-1,1.46a16.42,16.42,0,0,0-.88,1.53,28.25,28.25,0,0,0-2.49,6.64,30,30,0,0,0-.64,3.53A28.8,28.8,0,0,0,177.33,192.35Z" style="fill:#263238"></path><path d="M167.38,194.67a35.64,35.64,0,0,1,.27-10.71,33.53,33.53,0,0,1,3.41-10.23,31.28,31.28,0,0,1,3-4.54,28.23,28.23,0,0,1,3.78-3.87,29.37,29.37,0,0,1,9.34-5.25,39.79,39.79,0,0,0-4.65,2.6,29.85,29.85,0,0,0-4.18,3.23,30.84,30.84,0,0,0-6.37,8.3,38,38,0,0,0-3.54,9.9,44.22,44.22,0,0,0-.81,5.24A41.17,41.17,0,0,0,167.38,194.67Z" style="fill:#263238"></path><path d="M316.64,140.81a23.62,23.62,0,0,1,6.8,2.6,23.1,23.1,0,0,1,5.77,4.55,15.85,15.85,0,0,1,1.19,1.41l1.07,1.52c.32.53.59,1.09.88,1.63a7.91,7.91,0,0,1,.42.82l.31.87c.2.59.45,1.15.59,1.75l.4,1.79a10,10,0,0,1,.21,1.82c0,.6.08,1.21.1,1.81a27.07,27.07,0,0,0-2-6.87,10.13,10.13,0,0,0-.79-1.58c-.31-.51-.58-1-.91-1.53l-1-1.43a16.25,16.25,0,0,0-1.15-1.34,28.32,28.32,0,0,0-5.43-4.56,29,29,0,0,0-3.11-1.78A27.91,27.91,0,0,0,316.64,140.81Z" style="fill:#263238"></path><path d="M317.78,130.66a35.83,35.83,0,0,1,10,3.82,33.9,33.9,0,0,1,8.5,6.63,30.68,30.68,0,0,1,3.29,4.31,27.74,27.74,0,0,1,2.39,4.86,29.14,29.14,0,0,1,1.84,10.55,38.4,38.4,0,0,0-.91-5.25,29.35,29.35,0,0,0-1.64-5,30.92,30.92,0,0,0-5.7-8.78,38.15,38.15,0,0,0-8.16-6.64,47.46,47.46,0,0,0-9.61-4.49Z" style="fill:#263238"></path></g><g id="freepik--Device--inject-17"><path d="M456.86,453.37l-81.78-1.44c-2.24,0-3.76-1.18-3.39-2.55L378,425c.34-1.37,2.09-2.46,3.91-2.45l66.52.61c1.87,0,3.73,1.18,4.16,2.59l7.61,25.17C460.66,452.3,459.15,453.41,456.86,453.37Z" style="fill:#263238"></path><path d="M459.29,447.6l-7.66-25.18a4.42,4.42,0,0,0-4.09-2.58l-64.86-.51c-1.77,0-3.49,1.08-3.83,2.44l-6.3,24.42c-.36,1.37,1.12,2.51,3.31,2.54L456,450.08C458.23,450.12,459.7,449,459.29,447.6Zm-80.63-.38c-2.07,0-3.49-1.05-3.19-2.27l5.26-21.87c.29-1.22,1.9-2.21,3.61-2.19l61.15.52c3.56,0,4,1.06,4.4,2.32l1.33,4.51c.07.26-.27.47-.77.47h-.21c-1.17,0-1.05.46-.89,1l2.84,10.42c.16.59.29,1,1.56,1.07H454c.54,0,1,.22,1.12.49l1.28,4.51c.35,1.26.07,2.27-3.86,2.2Z" style="fill:#455a64"></path><path d="M452.46,448.44l-73.86-1.22c-2.07,0-3.5-1.05-3.19-2.27l5.27-21.87c.28-1.22,1.9-2.2,3.61-2.19l61.14.52c3.56,0,4,1.06,4.41,2.32l1.32,4.51c.08.26-.26.47-.76.47h-.22c-1.17,0-1,.46-.88,1l2.83,10.42c.16.59.29,1.06,1.56,1.07h.24c.54,0,1,.22,1.12.49l1.27,4.51C456.68,447.5,456.39,448.51,452.46,448.44Z" style="fill:#fff"></path><path d="M452.71,436.39l-.8-2.84c0-.1.06-.17.19-.17h0a.31.31,0,0,1,.3.18l.81,2.84c0,.1-.06.17-.2.17h0A.31.31,0,0,1,452.71,436.39Z" style="fill:#fff"></path><g id="freepik--u5Zjqx--inject-17"><path d="M449.54,427.44l-.07,0,0,0a.39.39,0,0,0,.11-.42.81.81,0,0,0-.35-.42l0,0,0,0h0l.08.06a.86.86,0,0,1,.14.13,1.09,1.09,0,0,1,.13.17l0,.08a.36.36,0,0,1,0,.07s0,0,0,.06a.43.43,0,0,1,0,.16l0,.1a.36.36,0,0,1-.07.1l0,0Z" style="fill:#a6a6a6"></path><path d="M449.05,426.67l.07-.07a.71.71,0,0,1,.26.29.35.35,0,0,1-.06.42l-.12-.07a.27.27,0,0,0,.08-.28A.53.53,0,0,0,449.05,426.67Z" style="fill:#a6a6a6"></path><path d="M449.09,427.17l-.11-.07a.14.14,0,0,0,0-.15.26.26,0,0,0-.12-.14l.07-.07C449.16,426.85,449.22,427.05,449.09,427.17Z" style="fill:#a6a6a6"></path><path d="M448.88,427a.11.11,0,0,1-.1-.06s0-.06.06-.06a.11.11,0,0,1,.1.06S448.92,427,448.88,427Z" style="fill:#a6a6a6"></path></g><path d="M448.16,423.2a.31.31,0,0,1,.29.18c0,.1-.06.18-.19.17a.29.29,0,0,1-.28-.18C448,423.27,448,423.19,448.16,423.2Z" style="fill:#a6a6a6"></path><path d="M448.32,423.76a.31.31,0,0,1,.29.18c0,.1-.06.18-.19.18a.29.29,0,0,1-.28-.18C448.11,423.84,448.19,423.76,448.32,423.76Z" style="fill:#a6a6a6"></path><path d="M448.48,424.33a.31.31,0,0,1,.29.18c0,.1-.06.18-.19.17a.29.29,0,0,1-.28-.18C448.27,424.4,448.35,424.32,448.48,424.33Z" style="fill:#a6a6a6"></path><path d="M448.64,424.89a.31.31,0,0,1,.29.18c0,.1-.06.18-.19.18a.28.28,0,0,1-.28-.18C448.43,425,448.51,424.89,448.64,424.89Z" style="fill:#a6a6a6"></path><path d="M448.8,425.46a.31.31,0,0,1,.29.18c0,.1-.06.18-.19.17a.31.31,0,0,1-.29-.18C448.59,425.53,448.67,425.45,448.8,425.46Z" style="fill:#a6a6a6"></path><path d="M454,446.45l-.39-1.46h1l.4,1.46Zm-.26-1.39.35,1.31.8,0-.35-1.31Z" style="fill:#a6a6a6"></path><polygon points="454.75 446.06 454.5 445.12 453.82 445.11 454.07 446.05 454.75 446.06" style="fill:#a6a6a6"></polygon><polygon points="454.28 446.58 454.25 446.45 454.8 446.46 454.83 446.59 454.28 446.58" style="fill:#a6a6a6"></polygon><polygon points="412.02 444.91 411.95 423.98 439.62 424.24 444.1 445.42 412.02 444.91" style="fill:#4F75FF"></polygon><path d="M417,432.13c-1.73,0-3.15-1-3.17-2.27s1.31-2.23,3-2.21,3.1,1,3.18,2.28S418.75,432.16,417,432.13Z" style="fill:#fff"></path><polygon points="432.56 430.61 432.82 432.33 417.06 432.13 416.98 430.42 432.56 430.61" style="fill:#fff"></polygon><path d="M422.09,439.46c-1.82,0-3.34-1-3.4-2.29s1.32-2.23,3.08-2.2,3.29,1,3.41,2.29S423.91,439.48,422.09,439.46Z" style="fill:#fff"></path><polygon points="438.42 437.97 438.73 439.7 422.13 439.46 422.01 437.74 438.42 437.97" style="fill:#fff"></polygon><polygon points="438.7 439.7 430.47 430.58 432.56 430.61 440.92 439.73 438.7 439.7" style="fill:#fff"></polygon><polygon points="434.51 439.64 426.54 430.54 428.62 430.56 436.73 439.67 434.51 439.64" style="fill:#fff"></polygon><path d="M382.6,432.32c-.3,0-.5-.18-.46-.39a.6.6,0,0,1,.62-.38c.3,0,.5.18.46.39A.62.62,0,0,1,382.6,432.32Z" style="fill:#dbdbdb"></path><path d="M382.11,434.65c-.46,0-.78-.27-.71-.59a.94.94,0,0,1,1-.57c.46,0,.77.27.71.59A.94.94,0,0,1,382.11,434.65Z" style="fill:#4F75FF"></path><path d="M381.7,436.59c-.31,0-.52-.18-.48-.39a.64.64,0,0,1,.64-.38c.31,0,.52.18.47.39S382,436.59,381.7,436.59Z" style="fill:#dbdbdb"></path><polygon points="408.23 437.55 408.51 423.94 409.66 423.95 409.5 437.57 408.23 437.55" style="fill:#455a64"></polygon><polygon points="406.4 433.12 406.7 423.93 407.14 423.93 406.87 433.12 406.4 433.12" style="fill:#455a64"></polygon><polygon points="398.33 444.7 400.15 423.86 400.59 423.86 398.84 444.71 398.33 444.7" style="fill:#263238"></polygon><path d="M400,428.71c-.48,0-.84-.29-.81-.64a.85.85,0,0,1,.91-.62c.47,0,.83.29.8.64S400.45,428.71,400,428.71Z" style="fill:#263238"></path><polygon points="392.14 439.32 394.08 439.34 392.91 440.89 392.14 439.32" style="fill:#263238"></polygon><polygon points="392.02 440.22 393.97 440.24 392.79 441.79 392.02 440.22" style="fill:#263238"></polygon><polygon points="395.31 429.11 393.51 429.09 394.6 427.54 395.31 429.11" style="fill:#263238"></polygon><polygon points="395.42 428.21 393.63 428.19 394.71 426.64 395.42 428.21" style="fill:#263238"></polygon><polygon points="391.97 433.9 392.08 433.17 395.72 433.21 395.64 433.95 391.97 433.9" style="fill:#263238"></polygon><polygon points="391.79 435.21 391.89 434.48 395.57 434.53 395.49 435.26 391.79 435.21" style="fill:#263238"></polygon></g><g id="freepik--musical-notes--inject-17"><path d="M363,163.28a5.42,5.42,0,1,1-4.36-6.3A5.4,5.4,0,0,1,363,163.28Z" style="fill:#4F75FF"></path><rect x="361.34" y="135.84" width="4.14" height="27.24" transform="translate(32.67 -62.71) rotate(10.32)" style="fill:#4F75FF"></rect><path d="M381.66,158.67a5.42,5.42,0,1,1-4.36-6.3A5.41,5.41,0,0,1,381.66,158.67Z" style="fill:#4F75FF"></path><rect x="380.01" y="131.23" width="4.14" height="27.24" transform="translate(32.15 -66.13) rotate(10.32)" style="fill:#4F75FF"></rect><polygon points="386.55 131.87 363.16 139.27 363.81 135.69 387.2 128.29 386.55 131.87" style="fill:#4F75FF"></polygon><polygon points="385.31 138.63 361.93 146.02 362.58 142.44 385.97 135.04 385.31 138.63" style="fill:#4F75FF"></polygon><path d="M131.37,188.37a5.42,5.42,0,1,1-4.36-6.3A5.43,5.43,0,0,1,131.37,188.37Z" style="fill:#4F75FF"></path><rect x="129.71" y="160.92" width="4.14" height="27.24" transform="translate(33.41 -20.79) rotate(10.32)" style="fill:#4F75FF"></rect><path d="M150,183.76a5.42,5.42,0,1,1-4.36-6.3A5.43,5.43,0,0,1,150,183.76Z" style="fill:#4F75FF"></path><rect x="148.38" y="156.31" width="4.14" height="27.24" transform="translate(32.89 -24.21) rotate(10.32)" style="fill:#4F75FF"></rect><polygon points="154.92 156.96 131.53 164.35 132.19 160.77 155.57 153.38 154.92 156.96" style="fill:#4F75FF"></polygon><polygon points="153.69 163.71 130.3 171.11 130.96 167.52 154.34 160.13 153.69 163.71" style="fill:#4F75FF"></polygon><path d="M133.21,312.21a5.42,5.42,0,1,1-4.36-6.3A5.43,5.43,0,0,1,133.21,312.21Z" style="fill:#4F75FF"></path><rect x="131.55" y="284.76" width="4.14" height="27.24" transform="translate(55.64 -19.12) rotate(10.32)" style="fill:#4F75FF"></rect><rect x="148.37" y="280.54" width="4.14" height="7.87" transform="matrix(0.98, 0.18, -0.18, 0.98, 53.42, -22.36)" style="fill:#4F75FF"></rect><polygon points="153 282 133.38 288.19 134.03 284.61 153.65 278.42 153 282" style="fill:#4F75FF"></polygon><polygon points="151.77 288.75 132.15 294.94 132.8 291.36 152.42 285.17 151.77 288.75" style="fill:#4F75FF"></polygon><path d="M309.78,117.59a5.42,5.42,0,1,1-4.36-6.3A5.43,5.43,0,0,1,309.78,117.59Z" style="fill:#4F75FF"></path><rect x="308.12" y="90.14" width="4.14" height="27.24" transform="translate(23.62 -53.91) rotate(10.32)" style="fill:#4F75FF"></rect><rect x="324.94" y="85.92" width="4.14" height="7.87" transform="translate(21.4 -57.16) rotate(10.33)" style="fill:#4F75FF"></rect><polygon points="329.56 87.38 309.94 93.57 310.6 89.99 330.22 83.8 329.56 87.38" style="fill:#4F75FF"></polygon><polygon points="328.33 94.14 308.71 100.33 309.37 96.74 328.99 90.56 328.33 94.14" style="fill:#4F75FF"></polygon></g></svg>