<?xml version="1.0" encoding="utf-8"?>
<!-- Generator: Adobe Illustrator 27.5.0, SVG Export Plug-In . SVG Version: 6.00 Build 0)  -->
<svg version="1.1" id="_x32_" xmlns="http://www.w3.org/2000/svg" xmlns:xlink="http://www.w3.org/1999/xlink" x="0px" y="0px"
	 viewBox="0 0 250 205" style="enable-background:new 0 0 250 205;" xml:space="preserve">
<g>
	<g>
		<path style="fill:#A7CACC;" d="M18.969,174.177c-6.009-14.001,6.991-19.667,9.325-30.667c3.289-15.507-5.425-33.138-5.388-54.161
			c0.044-25.151,15.206-47.561,28.568-57.381c38-27.927,120.596-16.148,152.487,14.209c34.285,32.636,4.333,63.667,8.333,84
			c3.357,17.064,24.667,26,18.737,44.001H18.969z"/>
		<path style="opacity:0.4;fill:#A7CACC;" d="M212.294,130.177c-3.035-15.426,13.465-37.011,6.638-60.781
			c0.017,0.648,0.029,1.297,0.029,1.948c0,46.484-44.398,84.167-99.167,84.167c-47.486,0-87.169-28.33-96.884-66.162
			c-0.037,21.023,8.674,38.655,5.384,54.162c-2.333,11-15.333,16.667-9.325,30.667h212.061
			C236.961,156.177,215.651,147.241,212.294,130.177z"/>
		<g style="opacity:0.2;">
			<path style="fill:#A7CACC;" d="M31.777,55.698v118.479h1.45V53.084C32.729,53.939,32.249,54.814,31.777,55.698z"/>
			<path style="fill:#A7CACC;" d="M48.987,33.925v140.252h1.45V32.757C49.955,33.132,49.472,33.519,48.987,33.925z"/>
			<path style="fill:#A7CACC;" d="M66.197,23.889v150.288h1.45V23.308C67.158,23.496,66.678,23.693,66.197,23.889z"/>
			<path style="fill:#A7CACC;" d="M83.407,18.79v155.387h1.45V18.503C84.371,18.595,83.889,18.692,83.407,18.79z"/>
			<path style="fill:#A7CACC;" d="M100.617,16.511v157.666h1.45V16.419C101.583,16.447,101.1,16.478,100.617,16.511z"/>
			<path style="fill:#A7CACC;" d="M117.827,16.299v157.878h1.45V16.36C118.794,16.337,118.31,16.318,117.827,16.299z"/>
			<path style="fill:#A7CACC;" d="M135.037,17.846v156.331h1.45V18.056C136.004,17.985,135.521,17.914,135.037,17.846z"/>
			<path style="fill:#A7CACC;" d="M152.247,21.107v153.07h1.45V21.464C153.215,21.343,152.732,21.224,152.247,21.107z"/>
			<path style="fill:#A7CACC;" d="M169.457,26.263v147.914h1.45V26.804C170.425,26.622,169.944,26.44,169.457,26.263z"/>
			<path style="fill:#A7CACC;" d="M186.667,33.935v140.243h1.45V34.734C187.639,34.464,187.154,34.199,186.667,33.935z"/>
			<path style="fill:#A7CACC;" d="M203.961,46.177c-0.027-0.026-0.056-0.051-0.083-0.077v128.077h1.45V47.516
				C204.882,47.07,204.43,46.623,203.961,46.177z"/>
			<path style="fill:#A7CACC;" d="M221.087,146.627v27.55h1.45v-25.703C222.054,147.861,221.57,147.246,221.087,146.627z"/>
		</g>
	</g>
	<g>
		<g>
			<polygon style="fill:#E6E4E3;" points="21.573,147.232 21.573,174.236 24.961,174.236 24.961,169.758 59.084,169.758 
				59.084,174.236 62.86,174.236 62.86,147.232 			"/>
			<rect x="21.573" y="147.232" style="fill:#C9C7C3;" width="41.288" height="4.443"/>
			<rect x="19.091" y="144.344" style="fill:#F5F5F5;" width="46.251" height="3.999"/>
			<polygon style="fill:#C9C7C3;" points="21.573,166.865 21.573,174.236 24.961,174.236 24.961,169.758 59.084,169.758 
				59.084,174.236 62.86,174.236 62.86,166.865 			"/>
		</g>
	</g>
	<g>
		<rect x="175.877" y="93.902" style="fill:#543E50;" width="1.333" height="80.333"/>
		<path style="fill:#F5F5F5;" d="M185.577,96.433c-6.334,1.524-12.528,1.073-18.067-0.182l3.209-15.34
			c3.55-0.52,7.228-0.628,11.089-0.149L185.577,96.433z"/>
		<path style="fill:#D4D2D1;" d="M181.804,80.761c-2.223-0.27-3.692-0.292-3.692-0.292l1.828,16.83
			c1.858-0.134,3.741-0.41,5.638-0.866l-3.769-15.668C181.809,80.763,181.806,80.762,181.804,80.761z"/>
	</g>
	<g>
		<path style="fill:#D4D2D1;" d="M198.961,107.859h26.495c5.978,0,10.825,4.846,10.825,10.825v28.037h-48.145v-28.037
			C188.136,112.706,192.982,107.859,198.961,107.859z"/>
		<path style="fill:#C2C0BC;" d="M196.401,108.197c-3.249,1.727-5.486,5.105-5.486,9.04v20.164h42.587v-20.164
			c0-3.935-2.237-7.314-5.486-9.04c4.736,1.155,8.265,5.395,8.265,10.487v28.037h-48.145v-28.037
			C188.136,113.592,191.664,109.351,196.401,108.197z"/>
		
			<rect x="230.902" y="167.983" transform="matrix(-1 -1.224647e-16 1.224647e-16 -1 465.5691 342.2186)" style="fill:#543E50;" width="3.765" height="6.253"/>
		
			<rect x="217.859" y="167.983" transform="matrix(-1 -1.224647e-16 1.224647e-16 -1 439.4822 342.2186)" style="fill:#543E50;" width="3.765" height="6.253"/>
		
			<rect x="184.236" y="167.983" transform="matrix(-1 -1.224647e-16 1.224647e-16 -1 372.2377 342.2186)" style="fill:#543E50;" width="3.765" height="6.253"/>
		
			<rect x="171.193" y="167.983" transform="matrix(-1 -1.224647e-16 1.224647e-16 -1 346.1509 342.2186)" style="fill:#543E50;" width="3.765" height="6.253"/>
		<path style="fill:#E6E4E3;" d="M175.227,132.333h12.102c1.337,0,2.42,1.084,2.42,2.42v36.441h-16.943v-36.441
			C172.807,133.417,173.89,132.333,175.227,132.333z"/>
		<path style="fill:#F5F5F5;" d="M183.026,146.183h32.815v25.011h-34.698v-23.129C181.143,147.026,181.986,146.183,183.026,146.183z
			"/>
		<rect x="181.143" y="157.478" style="fill:#E6E4E3;" width="34.698" height="13.716"/>
		<path style="fill:#F5F5F5;" d="M171.058,132.333h4.303c1.337,0,2.42,1.084,2.42,2.42v36.441h-9.144v-36.441
			C168.638,133.417,169.722,132.333,171.058,132.333z"/>
		<rect x="211.27" y="146.183" style="fill:#E6E4E3;" width="4.572" height="25.011"/>
		<path style="fill:#E6E4E3;" d="M221.758,132.333h12.102c1.337,0,2.42,1.084,2.42,2.42v36.441h-16.943v-36.441
			C219.338,133.417,220.421,132.333,221.758,132.333z"/>
		<rect x="181.143" y="157.478" style="fill:#D4D2D1;" width="34.698" height="2.779"/>
		<rect x="211.27" y="157.478" style="fill:#D4D2D1;" width="4.572" height="13.716"/>
		<path style="fill:#F5F5F5;" d="M217.59,132.333h4.303c1.337,0,2.42,1.084,2.42,2.42v36.441h-9.144v-36.441
			C215.169,133.417,216.253,132.333,217.59,132.333z"/>
	</g>
	<g>
		<path style="opacity:0.4;fill:#A7CACC;" d="M93.459,47.621c-3.657,1.191-7.232,0.838-10.43-0.142l1.853-11.985
			c2.049-0.406,4.173-0.491,6.402-0.117L93.459,47.621z"/>
		<ellipse style="fill:#543E50;" cx="86.812" cy="34.576" rx="2.161" ry="2.644"/>
		<path style="fill:#543E50;" d="M86.812,34.998c-0.233,0-0.422-0.189-0.422-0.423v-5.763c0-0.233,0.189-0.423,0.422-0.423
			c0.233,0,0.423,0.189,0.423,0.423v5.763C87.234,34.809,87.045,34.998,86.812,34.998z"/>
		<path style="fill:#F5F5F5;" d="M91.855,45.764c-3.432,1.118-6.787,0.786-9.788-0.134l1.739-11.247
			c1.923-0.381,3.916-0.46,6.008-0.109L91.855,45.764z"/>
		<path style="fill:#D4D2D1;" d="M89.81,34.273c-1.204-0.198-2.001-0.214-2.001-0.214l0.991,12.34
			c1.006-0.098,2.027-0.3,3.054-0.635l-2.042-11.487C89.813,34.275,89.812,34.274,89.81,34.273z"/>
	</g>
	<g>
		<rect x="139.05" y="47.228" style="opacity:0.4;fill:#A7CACC;" width="66.16" height="6.934"/>
		<g>
			<g>
				<path style="fill:#C94335;" d="M187.434,30.022l12.881-0.037l0.031,14.707h-13.575V30.688
					C186.771,30.321,187.068,30.023,187.434,30.022z"/>
				<path style="fill:#459096;" d="M187.434,30.022l12.881-0.037l0.031,14.707h-13.575V30.688
					C186.771,30.321,187.068,30.023,187.434,30.022z"/>
				<path style="fill:#407F85;" d="M200.317,30.926l-0.002-0.941l-12.881,0.037c-0.367,0.001-0.663,0.299-0.663,0.665v0.239H200.317
					z"/>
				<path style="fill:#407F85;" d="M200.541,44.47l1.66,0.003l0.003,0.22c0.507,0,0.766,0.001,0.766,0.001l-0.117-14.116
					c-0.003-0.337-0.309-0.611-0.684-0.611l-1.834-0.003c-0.375,0-0.676,0.273-0.673,0.61l0.117,14.119c0,0,0.257,0,0.762,0V44.47z"
					/>
				<path style="fill:#CEB6AA;" d="M200.541,44.47l-0.107-13.076c-0.002-0.213,0.189-0.386,0.426-0.386l0.801,0.002
					c0.237,0,0.431,0.174,0.433,0.387l0.107,13.076L200.541,44.47z"/>
				<polygon style="fill:#CEB6AA;" points="202.094,31.383 200.434,31.38 200.541,44.47 202.201,44.472 				"/>
				<path style="fill:#F5F5F5;" d="M200.98,30.963l0.789-0.002c0.241,0,0.434,0.175,0.432,0.392l-0.107,13.117l-1.66,0.003
					l0.107-13.117C200.543,31.139,200.74,30.963,200.98,30.963z"/>
				<path style="fill:#D4D2D1;" d="M201.22,31.972c0.002-0.217,0.199-0.393,0.44-0.393l0.539-0.001l0.002-0.225
					c0.002-0.217-0.192-0.392-0.432-0.392l-0.789,0.002c-0.241,0-0.437,0.176-0.439,0.392l-0.107,13.117l0.684-0.001L201.22,31.972z
					"/>
			</g>
			<g>
				<path style="fill:#C94335;" d="M182.058,31.159l11.883-0.034l0.028,13.567h-12.523v-12.92
					C181.446,31.435,181.719,31.16,182.058,31.159z"/>
				<path style="fill:#C9C7C3;" d="M182.058,31.159l11.883-0.034l0.028,13.567h-12.523v-12.92
					C181.446,31.435,181.719,31.16,182.058,31.159z"/>
				<path style="fill:#AFACA7;" d="M193.942,31.993l-0.002-0.868l-11.883,0.034c-0.338,0.001-0.612,0.275-0.612,0.614v0.22H193.942z
					"/>
				<path style="fill:#AFACA7;" d="M194.149,44.487l1.758,0.002l0.003,0.203c0.467,0,0.706,0.001,0.706,0.001l-0.108-13.022
					c-0.003-0.311-0.285-0.563-0.631-0.564l-1.919-0.002c-0.346,0-0.624,0.251-0.621,0.563l0.108,13.025c0,0,0.237,0,0.703,0V44.487
					z"/>
				<path style="fill:#CEB6AA;" d="M194.149,44.487l-0.099-12.063c-0.002-0.197,0.175-0.356,0.393-0.356l0.965,0.002
					c0.219,0,0.398,0.16,0.399,0.357l0.099,12.063L194.149,44.487z"/>
				<polygon style="fill:#CEB6AA;" points="195.808,32.414 194.05,32.412 194.149,44.487 195.907,44.489 				"/>
				<path style="fill:#F5F5F5;" d="M194.554,32.027l0.954-0.002c0.222,0,0.401,0.162,0.399,0.361l-0.099,12.101l-1.758,0.002
					l0.099-12.101C194.151,32.189,194.332,32.027,194.554,32.027z"/>
				<path style="fill:#D4D2D1;" d="M194.775,32.958c0.002-0.2,0.183-0.363,0.406-0.363l0.724-0.001l0.002-0.207
					c0.002-0.2-0.177-0.361-0.399-0.361l-0.954,0.002c-0.222,0-0.403,0.162-0.405,0.362l-0.099,12.101l0.631-0.001L194.775,32.958z"
					/>
			</g>
			<g>
				<path style="fill:#C94335;" d="M173.734,28.705l14.037-0.04l0.033,16.027h-14.793V29.431
					C173.011,29.031,173.334,28.707,173.734,28.705z"/>
				<path style="fill:#F86246;" d="M173.734,28.705l14.037-0.04l0.033,16.027h-14.793V29.431
					C173.011,29.031,173.334,28.707,173.734,28.705z"/>
				<path style="fill:#C94335;" d="M187.773,29.691l-0.002-1.025l-14.037,0.04c-0.4,0.001-0.723,0.325-0.723,0.725v0.26H187.773z"/>
				<path style="fill:#C94335;" d="M188.017,44.45l2.882,0.003l0.004,0.24c0.552,0.001,0.834,0.001,0.834,0.001l-0.128-15.383
					c-0.003-0.367-0.337-0.666-0.745-0.666l-3.072-0.003c-0.408,0-0.737,0.297-0.734,0.665l0.128,15.386c0,0,0.28,0,0.83,0V44.45z"
					/>
				<path style="fill:#CEB6AA;" d="M188.017,44.45L187.9,30.2c-0.002-0.233,0.206-0.421,0.465-0.421l1.945,0.002
					c0.259,0,0.47,0.189,0.472,0.422l0.117,14.25L188.017,44.45z"/>
				<polygon style="fill:#CEB6AA;" points="190.782,30.188 187.9,30.185 188.017,44.45 190.899,44.452 				"/>
				<path style="fill:#F5F5F5;" d="M188.495,29.73l1.932-0.002c0.262,0,0.473,0.191,0.471,0.427l-0.117,14.295l-2.882,0.003
					l0.117-14.295C188.019,29.922,188.233,29.73,188.495,29.73z"/>
				<path style="fill:#D4D2D1;" d="M188.757,30.83c0.002-0.236,0.217-0.428,0.479-0.429l1.661-0.002l0.002-0.245
					c0.002-0.236-0.209-0.427-0.471-0.427l-1.932,0.002c-0.262,0-0.476,0.192-0.478,0.428L187.9,44.452l0.745-0.001L188.757,30.83z"
					/>
			</g>
			<g>
				<g>
					<path style="fill:#74AAB0;" d="M148.398,36.9l0-2.229h-0.396c0-0.427,0-0.645,0-0.645h18.193c0.316,0,0.572,0.256,0.572,0.572
						v2.376c0,0.316-0.256,0.572-0.572,0.572h-18.193c0,0,0-0.22,0-0.645H148.398z"/>
					<path style="fill:#459096;" d="M166.195,34.026h-8.308v3.52h8.308c0.316,0,0.572-0.256,0.572-0.572v-2.376
						C166.767,34.282,166.511,34.026,166.195,34.026z"/>
					<path style="fill:#407F85;" d="M148.883,36.9l17.029,0c0.2,0,0.362-0.162,0.362-0.362v-1.505c0-0.2-0.162-0.362-0.362-0.362
						l-17.029,0V36.9z"/>
					<path style="fill:#D4D2D1;" d="M148.399,36.9l17.029,0c0.2,0,0.362-0.162,0.362-0.362v-1.505c0-0.2-0.162-0.362-0.362-0.362
						l-17.029,0V36.9z"/>
					<rect x="148.399" y="34.671" style="fill:#D4D2D1;" width="9.107" height="2.229"/>
					<rect x="148.399" y="34.671" style="fill:#F5F5F5;" width="9.107" height="2.229"/>
					<path style="fill:#BAB8B5;" d="M157.198,34.671h8.23c0.2,0,0.362,0.162,0.362,0.362v0.513c0-0.2-0.162-0.362-0.362-0.362
						l-8.23,0V34.671z"/>
					<g>
						<path style="fill:#D4D2D1;" d="M155.885,36.512c0,0-0.293,0.019-0.733,0.032c-0.44,0.007-1.027,0.018-1.613,0.028
							c-0.587-0.01-1.173-0.02-1.613-0.028c-0.44-0.013-0.733-0.032-0.733-0.032s0.293-0.019,0.733-0.032
							c0.44-0.007,1.027-0.017,1.613-0.028c0.587,0.01,1.173,0.02,1.613,0.028C155.592,36.493,155.885,36.512,155.885,36.512z"/>
					</g>
					<rect x="148.399" y="34.671" style="fill:#D4D2D1;" width="9.107" height="0.506"/>
				</g>
				<g>
					<path style="fill:#F86246;" d="M169.835,39.041l0-1.025h0.383c0-0.414,0-0.448,0-0.448h-24.593
						c-0.306,0-0.555,0.21-0.555,0.468v0.985c0,0.258,0.248,0.468,0.555,0.468h24.593c0,0,0-0.036,0-0.448H169.835z"/>
					<path style="fill:#C94335;" d="M169.365,39.041l-23.466,0c-0.194,0-0.351-0.157-0.351-0.351v-0.323
						c0-0.194,0.157-0.351,0.351-0.351l23.466,0V39.041z"/>
					<path style="fill:#F5F5F5;" d="M169.835,39.041l-23.466,0c-0.194,0-0.351-0.157-0.351-0.351v-0.323
						c0-0.194,0.157-0.351,0.351-0.351l23.466,0V39.041z"/>
					<path style="fill:#C94335;" d="M170.218,38.016c0-0.414,0-0.448,0-0.448h-12.424v1.921h12.424c0,0,0-0.036,0-0.448h-0.384
						l0-1.025H170.218z"/>
					<rect x="157.581" y="38.016" style="fill:#D4D2D1;" width="12.254" height="1.025"/>
					<rect x="157.581" y="38.016" style="fill:#D4D2D1;" width="12.254" height="1.025"/>
					<path style="fill:#D4D2D1;" d="M157.879,38.016l-11.511,0c-0.194,0-0.351,0.157-0.351,0.351v0.498
						c0-0.194,0.157-0.351,0.351-0.351l11.511,0V38.016z"/>
					<rect x="157.581" y="38.016" style="fill:#BAB8B5;" width="12.254" height="0.49"/>
				</g>
				<g>
					<path style="fill:#C9C7C3;" d="M170.505,43.572l0-3.181h0.565c0-0.61,0-0.921,0-0.921h-25.962
						c-0.451,0-0.816,0.365-0.816,0.816v3.391c0,0.451,0.365,0.816,0.816,0.816h25.962c0,0,0-0.314,0-0.921H170.505z"/>
					<path style="fill:#AFACA7;" d="M169.814,43.572l-24.302,0c-0.285,0-0.517-0.231-0.517-0.517v-2.147
						c0-0.285,0.232-0.517,0.517-0.517l24.302,0V43.572z"/>
					<path style="fill:#F5F5F5;" d="M170.504,43.572l-24.302,0c-0.285,0-0.517-0.231-0.517-0.517v-2.147
						c0-0.285,0.231-0.517,0.517-0.517l24.302,0V43.572z"/>
					<path style="fill:#AFACA7;" d="M171.069,40.391c0-0.61,0-0.921,0-0.921h-13.248v5.023h13.248c0,0,0-0.314,0-0.921h-0.565
						l0-3.181H171.069z"/>
					<rect x="157.508" y="40.391" style="fill:#D4D2D1;" width="12.997" height="3.181"/>
					<rect x="157.508" y="40.391" style="fill:#D4D2D1;" width="12.997" height="3.181"/>
					<path style="fill:#D4D2D1;" d="M157.947,40.391h-11.745c-0.285,0-0.517,0.231-0.517,0.517v0.733
						c0-0.286,0.232-0.517,0.517-0.517l11.745,0V40.391z"/>
					<rect x="157.508" y="40.391" style="fill:#BAB8B5;" width="12.997" height="0.722"/>
				</g>
			</g>
		</g>
		<rect x="139.05" y="44.464" style="fill:#F5F5F5;" width="16.564" height="2.764"/>
		<rect x="155.408" y="44.464" style="fill:#D4D2D1;" width="52.62" height="2.764"/>
	</g>
	<g>
		<path style="fill:#E4BC8C;" d="M10.719,174.177h228.561c0,0-35.303,14.666-114.992,14.666S10.719,174.177,10.719,174.177z"/>
		<path style="opacity:0.45;fill:#E4BC8C;" d="M213.051,181.236c17.834-3.573,26.23-7.059,26.23-7.059H10.719
			c0,0,8.097,3.503,25.672,7.084C80.185,179.268,168.876,179.26,213.051,181.236z"/>
	</g>
	<g>
		<g>
			<linearGradient id="SVGID_1_" gradientUnits="userSpaceOnUse" x1="113.145" y1="67.2331" x2="106.8178" y2="45.5079">
				<stop  offset="0" style="stop-color:#FFB7A7"/>
				<stop  offset="1" style="stop-color:#FF9595"/>
			</linearGradient>
			<path style="fill:url(#SVGID_1_);" d="M111.853,55.871c-0.32-1.486-0.911-2.955-1.561-3.388c-0.735-0.49-2.717,0.424-3.01,1.367
				c-0.237,0.763,1.755,2.227,1.848,3.135C109.222,57.893,111.853,55.871,111.853,55.871z"/>
			<g>
				<path style="fill:#F2DAD5;" d="M139.097,56.379c1.13-0.192,2.371-0.235,3.296,0.567c0.689,0.597,1.523,1.69,0.765,2.515
					c-0.125,0.136,0.033,0.351,0.199,0.258c1.167-0.656,0.14-2.139-0.512-2.766c-0.929-0.894-2.61-1.282-3.794-0.684
					C138.985,56.301,139.034,56.389,139.097,56.379L139.097,56.379z"/>
				<path style="fill:#F2DAD5;" d="M143.921,56.794c0.25,0.567,0.46,1.55,0.103,2.138c-0.204,0.335-0.572,0.456-0.697,0.848
					c-0.056,0.174,0.191,0.263,0.285,0.12c0.324-0.495,0.791-0.7,0.859-1.336c0.072-0.673-0.104-1.258-0.461-1.821
					C143.973,56.686,143.895,56.735,143.921,56.794L143.921,56.794z"/>
				<path style="fill:#F2DAD5;" d="M129.162,64.556c0.745-0.86,0.475-1.857,0.527-2.92c0.085-1.717,1.102-3.229,3.013-2.524
					c0.109,0.04,0.173-0.108,0.106-0.182c-0.706-0.784-2.115-0.22-2.694,0.477c-1.192,1.436-0.275,3.485-1.072,5.057
					C129.005,64.537,129.102,64.625,129.162,64.556L129.162,64.556z"/>
			</g>
			
				<linearGradient id="SVGID_00000183965442339297777610000004182994082804952452_" gradientUnits="userSpaceOnUse" x1="112.6358" y1="67.7831" x2="106.0791" y2="45.2696">
				<stop  offset="0" style="stop-color:#FFB7A7"/>
				<stop  offset="1" style="stop-color:#FF9595"/>
			</linearGradient>
			<path style="fill:url(#SVGID_00000183965442339297777610000004182994082804952452_);" d="M115.804,68.56
				c-1.362-3.157-2.899-8.789-3.951-12.689l-2.723,1.114c0,0-0.382,8.666,1.723,14.669L115.804,68.56z"/>
			<path style="fill:#D37A85;" d="M110.797,71.48l0.408-0.046l0.912-0.57c-0.584-0.674-1.657-2.49-2.152-5.337
				c-0.471-2.708-0.784-8.954,0-9.243c0.606-0.223,1.568,0.949,2.2,0.739c-0.107-0.393-0.213-0.786-0.312-1.152
				c-0.32-1.486-0.911-2.955-1.561-3.388c-0.057-0.038-0.131-0.05-0.2-0.07l-2.529,0.952c-0.126,0.161-0.232,0.325-0.281,0.485
				c-0.237,0.763,1.755,2.227,1.847,3.135C109.129,56.985,108.758,65.484,110.797,71.48z"/>
			<path style="fill:#E6E4E3;" d="M129.194,79.557c-4.085,0.041-9.491-3.817-10.667-6.479l-6.252,2.888c0,0,1.816,5.158,5.942,9.119
				c4.126,3.961,6.809,6.396,6.809,6.396l1.238,2.311L129.194,79.557z"/>
			<path style="fill:#543E50;" d="M151.276,175.822c-0.474,1.16,1.516,2.962,1.005,4.093c-0.39,0.862-6.519,0.989-6.68,0.205
				c-0.328-1.599,2.613-1.341,3.191-2.783c0.3-0.75-0.465-1.586-0.465-1.586L151.276,175.822z"/>
			<path style="fill:#543E50;" d="M130.828,176.268c-0.393,1.287,0.09,2.414-0.552,3.486c-0.739,1.235-8.43,0.944-8.332,0.172
				c0.197-1.544,4.876-1.561,5.836-2.802c0.499-0.645,0.003-1.659,0.003-1.659L130.828,176.268z"/>
			<path style="fill:#AFACA7;" d="M124.76,123.379c0,0-0.89,18.197-0.518,23.52c0.241,3.458,2.576,23.715,2.753,29.533
				c0,0,2.036,1.073,4.708,0.083c0,0,1.643-9.821,2.183-16.134c0.539-6.313,0.373-13.481,0.373-13.481l1.888-21.168l-2.249-10.77
				c-2.971-0.371-8.334-2.352-8.334-2.352L124.76,123.379z"/>
			<path style="fill:#C9C7C3;" d="M131.917,114.59l0.867,12.008l2.971,2.104c0,0,2.104,13.37,3.219,18.197
				c1.114,4.828,6.685,21.23,8.17,29.153c0,0,2.971,0.99,5.323-0.495c0,0-0.248-10.46-0.99-16.279
				c-0.743-5.818-2.85-10.989-3.095-12.379c-0.371-2.104-0.371-19.931-0.371-22.53s-0.619-10.275-0.619-10.275
				S140.088,116.076,131.917,114.59z"/>
			<path style="fill:#AFACA7;" d="M152.467,175.558c0,0-0.248-10.46-0.99-16.279c-0.743-5.818-2.85-10.989-3.095-12.379
				c-0.371-2.104-0.371-19.931-0.371-22.53c0-1.109-0.113-3.14-0.242-5.106c-0.261,8.042-1.978,24.739-1.367,27.182
				c0.66,2.641,3.466,7.51,4.044,11.389c0.517,3.47-0.087,15.888-0.221,18.477C150.962,176.222,151.741,176.016,152.467,175.558z"/>
			<path style="fill:#E5C1B9;" d="M130.387,63.366c-0.381,1.226,1.129,3.601,1.43,4.854l0.193-4.715L130.387,63.366z"/>
			<path style="fill:#F2DAD5;" d="M145.817,70.505c0.351-0.687,1.19-3.89,0.649-7.266c-0.43-2.678-1.238-4.069-3.07-4.069
				c-0.549-3.297-5.699-3.867-7.083-2.483c-1.535-0.01-2.847,0.487-3.501,1.14c-0.656,0.655-0.651,1.465-0.651,1.465
				c-4.172,0.763-1.774,4.074-2.992,6.533c1.771,0.265,2.666-1.689,2.666-1.689c0.988,5.54,11.273,7.195,11.273,7.195
				L145.817,70.505z"/>
			<path style="fill:#E5C1B9;" d="M145.426,68.035c-0.938,0.361-1.749-0.213-1.749-0.213c0.774-0.2,1.756-1.171,1.756-1.171
				c-0.898,0.565-1.834,0.438-1.834,0.438l-0.075-1.262c1.509-0.521,1.88-1.496,1.88-1.496s-0.736,0.566-2.971-0.056
				c-2.236-0.622-3.159-3.151-3.159-3.151c-2.309-2.088-6.21-1.378-7.277,0.245c-1.067,1.623-0.972,2.12-1.628,3.134
				c-0.64,0.988-1.122,1.233-1.175,1.26c-0.007,0.015-0.011,0.031-0.019,0.046v0.017c1.766,0.258,2.659-1.689,2.659-1.689
				c0.988,5.541,11.273,7.195,11.273,7.195l2.708-0.826c0.334-0.653,1.096-3.587,0.704-6.778
				C146.517,65.47,146.15,67.755,145.426,68.035z"/>
			
				<linearGradient id="SVGID_00000090279154913540746080000007101747197249467062_" gradientUnits="userSpaceOnUse" x1="139.5912" y1="87.0829" x2="139.9625" y2="72.0421">
				<stop  offset="0" style="stop-color:#FFB8A8"/>
				<stop  offset="1" style="stop-color:#FF9696"/>
			</linearGradient>
			<path style="fill:url(#SVGID_00000090279154913540746080000007101747197249467062_);" d="M143.678,72.336
				c0,0-0.495,2.517-0.248,4.25c0.328,2.292,1.226,4.379,2.937,5.062c0,0-3.198,5.112-9.003,4.656c-4.525-0.355-4.25-5.88-4.25-5.88
				c1.558,0.299,2.448-0.815,2.641-1.651c0.248-1.073-0.395-2.102-0.395-2.102L141,72.005L143.678,72.336z"/>
			<path style="fill:#D37A85;" d="M145.37,81.004c-1.071-0.968-1.684-2.625-1.94-4.419c-0.248-1.733,0.248-4.25,0.248-4.25
				l-1.167-0.144l-6.971,4.856c0.169,0.392,0.376,1.034,0.216,1.725c-0.013,0.057-0.269,0.869-0.289,0.928
				c0.99,1.3,3.001,3.139,6.004,3.219C142.863,82.957,144.586,81.751,145.37,81.004z"/>
			
				<linearGradient id="SVGID_00000016043023063800554550000012866396470596117386_" gradientUnits="userSpaceOnUse" x1="-278.0647" y1="347.7971" x2="-282.213" y2="320.5052" gradientTransform="matrix(0.9723 0.2068 -0.2244 0.9808 486.4586 -204.1668)">
				<stop  offset="0" style="stop-color:#FFB8A8"/>
				<stop  offset="1" style="stop-color:#FF9696"/>
			</linearGradient>
			<path style="fill:url(#SVGID_00000016043023063800554550000012866396470596117386_);" d="M144.018,68.804
				c-0.684,0.379-0.653,1.387-1.354,1.278c-0.468-0.073-0.301-1.991-0.525-3.678c-0.3-2.262-2.224-2.441-2.988-4.761
				c-3.005-1.872-6.778-0.416-7.09,2.151c-0.253,0.86-0.496,3.846-0.055,6.949c0.252,1.774,0.997,4.649,2.291,6.58
				c1.413,2.11,5.204,1.57,7-0.4c1.033-1.133,1.545-2.396,1.921-4.17c1.82,0.132,2.765-1.135,2.795-2.295
				C146.046,69.26,145.276,68.165,144.018,68.804z"/>
			<path style="fill:#D37A85;" d="M143.65,70.332c-0.22,0.601-0.07,1.198,0.334,1.334c0.404,0.135,0.91-0.242,1.129-0.843
				c0.22-0.601,0.07-1.198-0.334-1.334C144.375,69.353,143.869,69.731,143.65,70.332z"/>
			<g>
				<path style="fill:#F2DAD5;" d="M134.062,66.169c0.214,0.508-0.506,0.506-1.28,0.987c-0.723,0.449-1.094,1.108-1.291,0.804
					c-0.13-0.201-0.533-1.046,0.584-1.825C132.951,65.523,133.837,65.632,134.062,66.169z"/>
			</g>
			<g>
				<path style="fill:#F2DAD5;" d="M139.127,66.612c1.107,0.276,1.677,0.727,1.91,0.5c0.249-0.242,0.396-1.335-1.636-1.894
					c-1.034-0.285-2.345-0.046-2.412,0.708C136.915,66.766,138.152,66.369,139.127,66.612z"/>
			</g>
			<g>
				<g>
					<path style="fill:#5E454D;" d="M137.864,68.852c0.073,0.434,0.422,0.74,0.78,0.683c0.358-0.057,0.589-0.456,0.517-0.891
						c-0.073-0.435-0.422-0.74-0.78-0.683C138.023,68.019,137.791,68.417,137.864,68.852z"/>
					<path style="fill:#5E454D;" d="M140.251,68.932c-0.273-0.624-0.948-1.11-1.864-1.075c-0.534,0.013-0.887,0.68-0.727,0.998
						c0,0,0.298-0.456,0.859-0.458C139.081,68.395,140.251,68.932,140.251,68.932z"/>
				</g>
			</g>
			<g>
				<g>
					<path style="fill:#5E454D;" d="M132.553,69.3c0.068,0.404,0.385,0.69,0.708,0.639c0.323-0.052,0.53-0.421,0.463-0.825
						c-0.068-0.404-0.385-0.69-0.708-0.638C132.692,68.526,132.485,68.896,132.553,69.3z"/>
					<path style="fill:#5E454D;" d="M134.576,69.406c-0.131-0.592-0.841-1.136-1.542-1.032c-0.57,0.053-0.849,0.785-0.702,1.083
						c0,0,0.238-0.536,0.824-0.581C133.814,68.825,134.576,69.406,134.576,69.406z"/>
				</g>
			</g>
			<path style="fill:#E6E4E3;" d="M125.564,112.609c-1.507-1.609-0.083-3.776,0.288-9.841c0.371-6.066-0.186-7.366,0.186-13.184
				c0.371-5.818,3.157-10.027,3.157-10.027l3.59-0.062l3.466,1.424c0,0,0,2.166,0.743,4.828c0.743,2.661-5.014,29.091-5.014,29.091
				S128.761,114.342,125.564,112.609z"/>
			<path style="fill:#D4D2D1;" d="M118.527,73.078l-6.251,2.888c0,0,1.815,5.158,5.942,9.119c4.126,3.961,6.809,6.396,6.809,6.396
				l0.88,1.643c-0.024,3.173,0.227,5.039-0.055,9.643c-0.371,6.066-1.795,8.232-0.288,9.841c3.197,1.733,6.416,2.228,6.416,2.228
				s2.407-11.054,3.907-19.585c-0.616-0.072-1.237-0.164-1.865-0.305c-7.345-1.65-9.656-8.5-9.656-8.5s-0.082,1.692,0.33,2.888
				c-0.246,0.37-2.641-1.486-5.529-4.457c-2.889-2.971-4.374-7.18-4.374-7.18C117.929,75.307,118.527,73.078,118.527,73.078z"/>
			<path style="fill:#D4D2D1;" d="M132.784,79.495l-1.101,0.019l1.72,5.16l2.925-2.502c-0.075-0.77-0.078-1.253-0.078-1.253
				L132.784,79.495z"/>
			<path style="fill:#F5F5F5;" d="M139.84,81.909c0,0-0.444,0.834-1.212,2.026c-0.768,1.192-1.635,1.811-1.635,1.811
				s-1.486,2.435-2.228,5.653c-0.743,3.219-1.449,7.356-1.816,11.471c-0.743,8.335-2.228,10.646-0.97,11.967
				c0,0,7.366,1.733,15.412-0.743c0,0,0.495-4.704,0.743-9.037c0.248-4.333,4.58-18.074,3.714-19.683
				c-1.651-1.692-5.48-3.727-5.48-3.727L139.84,81.909z"/>
			<path style="fill:#E6E4E3;" d="M148.134,93.133c0,0-6.753,3.458-14.09,1.82c-0.454,2.474-0.852,5.189-1.095,7.919
				c-0.743,8.335-2.228,10.646-0.97,11.967c0,0,7.366,1.733,15.412-0.743c0,0,0.495-4.704,0.743-9.037
				c0.07-1.224,0.46-3.179,0.959-5.377L148.134,93.133z"/>
			<path style="fill:#D4D2D1;" d="M139.324,82.808l2.62,4.217l5.352-4.833c-0.544-0.328-0.93-0.545-0.93-0.545l-6.527,0.261
				C139.84,81.909,139.647,82.265,139.324,82.808z"/>
			<path style="fill:#F5F5F5;" d="M151.105,84.88c3.301,1.651,3.929,6.867,3.817,14.133c-0.112,7.266-2.29,12.008-6.543,14.056
				l-4.865-5.199c0,0,2.695-2.993,3.465-6.401C148.107,97.945,147.144,87.026,151.105,84.88z"/>
			<path style="fill:#D4D2D1;" d="M144.214,106.956l4.176,6.106c4.246-2.051,6.42-6.79,6.533-14.049
				c0.085-5.475-0.254-9.783-1.837-12.281c1.71,4.647,0.64,17.367-0.989,20.101c-0.801,1.344-1.237,1.92-1.981,2.558
				C146.979,106.915,144.709,106.75,144.214,106.956z"/>
			<path style="fill:#F5F5F5;" d="M110.061,71.138c0,0,0.494,3.264,2.13,5.619c0,0,4.781-1.355,6.667-3.904
				c0,0-0.968-2.689-2.538-4.922L110.061,71.138z"/>
			<polygon style="fill:#F5F5F5;" points="139.84,81.909 142.068,85.87 147.02,81.537 144.915,78.566 			"/>
			<polygon style="fill:#F5F5F5;" points="133.65,83.271 136.25,80.919 134.517,78.319 132.289,79.309 			"/>
			<g>
				<path style="fill:#F2DAD5;" d="M142.296,68.451c0,0-0.407,10.461-4.885,8.141c-2.035,2.402-4.355-1.303-4.824-3.043
					c0.346,2.188,1.119,5.444,2.056,5.933c1.343,1.181,6.152,0.302,7.408-1.099c1.058-1.18,0.936-2.442,0.977-4.355
					c0.007-0.336,0.036-2.035,0.061-2.829c0.031-0.977,0.458-1.893,0.458-1.893L142.296,68.451z"/>
				<path style="fill:#E5C1B9;" d="M134.644,79.482c1.343,1.18,6.152,0.302,7.408-1.099c1.058-1.18,0.936-2.442,0.977-4.356
					c0.007-0.336,0.036-2.035,0.061-2.829c0.031-0.977,0.458-1.893,0.458-1.893l-1.252-0.855c0,0-0.044,1.082-0.249,2.469
					c-0.239,2.09,0.526,5.732-0.972,7.178C139.895,79.238,137.249,80.255,134.644,79.482z"/>
			</g>
			<g>
				<path style="fill:#E5C1B9;" d="M141.239,62.531c0.846,1.274,3.04,1.589,4.264,0.669c0.146-0.11,0.025-0.321-0.143-0.245
					c-1.311,0.59-2.984,0.648-4.047-0.48C141.276,62.437,141.209,62.487,141.239,62.531L141.239,62.531z"/>
				<path style="fill:#E5C1B9;" d="M143.502,62.359c0.51,0.171,2.018,0.23,1.954-0.625c-0.005-0.071-0.091-0.147-0.161-0.092
					c-0.263,0.203-0.45,0.405-0.788,0.49c-0.314,0.079-0.665,0.103-0.99,0.115C143.452,62.249,143.441,62.339,143.502,62.359
					L143.502,62.359z"/>
				<path style="fill:#E5C1B9;" d="M139.494,60.018c-1.636-1.735-4.238-2.339-6.284-0.893c-0.105,0.074-0.016,0.221,0.1,0.17
					c1.194-0.526,2.386-0.939,3.7-0.604c0.955,0.243,1.624,0.874,2.404,1.431C139.477,60.168,139.544,60.071,139.494,60.018
					L139.494,60.018z"/>
				<path style="fill:#E5C1B9;" d="M137.87,57.674c0.833,0.487,1.795,0.649,2.055,1.695c0.04,0.16,0.253,0.108,0.269-0.036
					c0.128-1.186-1.473-1.458-2.278-1.767C137.852,57.541,137.814,57.641,137.87,57.674L137.87,57.674z"/>
				<path style="fill:#E5C1B9;" d="M139.906,56.737c0.436,0.275,0.885,0.573,1.247,0.943c0.445,0.456,0.541,0.896,0.675,1.488
					c0.032,0.143,0.252,0.14,0.286,0c0.307-1.246-1.182-2.199-2.163-2.538C139.887,56.608,139.852,56.703,139.906,56.737
					L139.906,56.737z"/>
			</g>
			<g>
				<path style="fill:#634A64;" d="M134.682,74.815c0,0,1.967,0.13,4.537-1.389c0,0-0.061,2.095-1.665,2.574
					C135.795,76.526,134.682,74.815,134.682,74.815z"/>
				<path style="fill:#FFF4E9;" d="M135.698,75.033c0.726-0.136,1.946-0.515,3.148-1.1c0,0-0.207,1.358-1.435,1.763
					C136.376,76.051,135.698,75.033,135.698,75.033z"/>
			</g>
			<path style="fill:#D37A85;" d="M134.92,66.717c0,0,0.091,0.091,0.251,0.251c0.151,0.167,0.385,0.413,0.547,0.807
				c0.079,0.202,0.131,0.419,0.11,0.683c-0.014,0.241-0.061,0.477-0.118,0.717c-0.115,0.479-0.274,0.969-0.442,1.451
				c-0.163,0.479-0.342,0.965-0.441,1.389c-0.023,0.099-0.038,0.213-0.031,0.243c0,0.015,0.003-0.009-0.007-0.024
				c-0.007-0.024-0.022-0.052-0.042-0.07c-0.033-0.033,0.009,0.007,0.009,0.007c0.056,0.053,0.043,0.032,0.078,0.058
				c0.128,0.077,0.3,0.135,0.459,0.173c0.323,0.079,0.614,0.087,0.813,0.091c0.2-0.003,0.316-0.013,0.316-0.013
				c0.154-0.014,0.289,0.1,0.303,0.254c0.011,0.128-0.066,0.244-0.181,0.287l-0.007,0.003c0,0-0.133,0.049-0.376,0.088
				c-0.242,0.042-0.596,0.063-1.02-0.02c-0.212-0.046-0.442-0.109-0.686-0.263c-0.055-0.033-0.161-0.117-0.184-0.144l-0.051-0.051
				c-0.034-0.043-0.065-0.094-0.085-0.143c-0.023-0.07-0.037-0.149-0.035-0.192c-0.001-0.2,0.038-0.317,0.072-0.449
				c0.149-0.498,0.354-0.957,0.545-1.43c0.19-0.47,0.388-0.934,0.535-1.372c0.073-0.219,0.133-0.433,0.162-0.627
				c0.032-0.171,0.012-0.372-0.033-0.529c-0.092-0.33-0.278-0.585-0.404-0.76c-0.133-0.175-0.21-0.275-0.21-0.275l-0.002-0.002
				c-0.035-0.045-0.026-0.11,0.02-0.145C134.826,66.677,134.884,66.681,134.92,66.717z"/>
			<path style="fill:#F2DAD5;" d="M133.892,74.91c0,0,0.913,0.145,2.895-0.416c1.982-0.561,3.122-1.555,3.122-1.555
				s-1.838-1.207-3.447,0.383C136.462,73.322,134.403,72.851,133.892,74.91z"/>
			<path style="fill:#AFACA7;" d="M141.346,117.582c0,0,1.362,3.714,5.199,4.209c0,0,0-2.105-0.309-4.704
				C146.236,117.087,143.265,117.644,141.346,117.582z"/>
			<g>
				<path style="fill:#FFFFFF;" d="M137.559,92.166c-0.051,0.289-0.293,0.487-0.54,0.444c-0.247-0.044-0.407-0.313-0.356-0.602
					c0.051-0.289,0.293-0.487,0.54-0.444C137.451,91.607,137.61,91.877,137.559,92.166z"/>
				<path style="fill:#FFFFFF;" d="M136.455,98.712c-0.032,0.291-0.26,0.506-0.51,0.478c-0.25-0.027-0.426-0.286-0.395-0.577
					c0.032-0.292,0.26-0.506,0.51-0.478C136.31,98.162,136.487,98.42,136.455,98.712z"/>
				<path style="fill:#FFFFFF;" d="M135.63,105.727c-0.032,0.291-0.26,0.506-0.51,0.478c-0.25-0.027-0.426-0.286-0.395-0.577
					c0.032-0.292,0.26-0.506,0.51-0.478C135.485,105.177,135.661,105.435,135.63,105.727z"/>
			</g>
			<path style="fill:#D4D2D1;" d="M132.033,114.849c-0.156-0.215-0.333-0.569-0.392-1.156c-0.065-0.627,0.29-2.776,0.665-5.05
				c0.322-1.956,0.688-4.17,0.84-5.753c0.352-3.646,1.114-8.46,1.811-11.447c0.378-1.615,1.013-2.897,1.523-3.927
				c0.389-0.785,0.709-1.441,0.83-2.04c-0.181,0.16-0.318,0.269-0.318,0.269c-0.029-0.105-0.05-0.203-0.077-0.307
				c-0.118,0.539-0.422,1.16-0.79,1.902c-0.519,1.048-1.165,2.354-1.553,4.014c-0.702,3-1.467,7.836-1.821,11.497
				c-0.151,1.571-0.516,3.778-0.837,5.727c-0.396,2.402-0.739,4.476-0.669,5.153c0.046,0.451,0.163,0.764,0.292,1.022
				c0.268,0.054,0.442,0.083,0.442,0.083S132.01,114.844,132.033,114.849z"/>
		</g>
		<g>
			
				<linearGradient id="SVGID_00000114754462739485650920000004628278754064071091_" gradientUnits="userSpaceOnUse" x1="116.7166" y1="111.5314" x2="133.8" y2="120.2637">
				<stop  offset="0" style="stop-color:#FFB7A7"/>
				<stop  offset="1" style="stop-color:#FF9595"/>
			</linearGradient>
			<path style="fill:url(#SVGID_00000114754462739485650920000004628278754064071091_);" d="M117.288,114.308
				c2.807,2.264,9.841,4.635,9.841,4.635l1.142-2.471c-3.245-1.366-6.408-4.398-8.568-6.132
				C117.374,108.47,117.288,114.308,117.288,114.308z"/>
			
				<linearGradient id="SVGID_00000165939810067777544320000003220989922270926241_" gradientUnits="userSpaceOnUse" x1="114.47" y1="100.4478" x2="130.6427" y2="108.7145" gradientTransform="matrix(0.9942 0.1074 -0.1074 0.9942 15.0746 -1.3089)">
				<stop  offset="0" style="stop-color:#FFB7A7"/>
				<stop  offset="1" style="stop-color:#FF9595"/>
			</linearGradient>
			<path style="fill:url(#SVGID_00000165939810067777544320000003220989922270926241_);" d="M131.777,120.31
				c-0.691-0.497-1.204-0.812-1.1-0.942c0.068-0.086,0.576,0.381,1.278,0.918c0.828,0.633,1.101,0.992,1.291,0.695
				c0.14-0.219-0.56-1.008-1.281-1.587c-0.942-0.758-1.744-1.221-1.56-1.465c0.149-0.199,1.988,0.78,2.169,0.294
				c0.089-0.238-0.727-0.633-1.796-1.017c-1.03-0.37-2.026-0.541-2.63-0.747c-0.625-0.213-1.561,2.062-1.181,2.426
				c1.067,0.657,2.235,1.595,3.296,2.192c0.607,0.341,1.355,0.694,1.478,0.44c0.079-0.164-0.38-0.417-0.848-0.722
				c-0.508-0.331-0.77-0.468-0.716-0.571c0.053-0.104,0.662,0.259,1.324,0.712c1.056,0.723,1.233,0.913,1.415,0.625
				C133.019,121.397,132.586,120.892,131.777,120.31z"/>
			<path style="fill:#D37A85;" d="M131.741,121.516c0.079-0.164-0.38-0.417-0.848-0.722c-0.508-0.331-0.77-0.468-0.716-0.571
				c0.054-0.103,0.662,0.259,1.324,0.712c1.056,0.723,1.233,0.913,1.415,0.625c0.103-0.163-0.33-0.668-1.14-1.249
				c-0.691-0.497-1.204-0.812-1.1-0.942c0.068-0.086,0.576,0.381,1.278,0.918c0.828,0.633,1.101,0.991,1.291,0.695
				c0.14-0.219-0.56-1.008-1.281-1.587c-0.942-0.757-1.744-1.221-1.56-1.465c0.125-0.167,1.43,0.486,1.956,0.416l-0.604-0.741
				c-0.118-0.054-0.234-0.107-0.371-0.163l-3.306,0.739c-5.571-0.206-9.202-3.879-9.202-3.879l1.321-3.549l-2.889,3.062
				c-0.018,0.299-0.021,0.493-0.021,0.493c2.577,2.079,8.702,4.242,9.69,4.584c1.064,0.657,2.227,1.59,3.285,2.185
				C130.871,121.418,131.618,121.771,131.741,121.516z"/>
			<path style="fill:#F2DAD5;" d="M97.668,69.426c0,0-1.238-1.981-3.095-1.795c-1.667,0.167-2.104,1.238-2.104,2.104
				c0,0-1.609,1.238-0.99,3.404c0.619,2.166,3.404,2.6,4.58,0.99S97.668,69.426,97.668,69.426z"/>
			<path style="fill:#E5C1B9;" d="M91.479,73.14c0.619,2.166,3.404,2.6,4.58,0.99c0.067-0.091,0.131-0.188,0.193-0.288
				c-1.587,0.416-3.22,0.283-3.969-0.95c-0.959-1.578,0.186-3.157,0.186-3.157S90.86,70.974,91.479,73.14z"/>
			<path style="fill:#E6E4E3;" d="M110.336,93.05c1.878,2.496,2.982,6.432,5.641,11.225c2.578,4.647,4.353,6.252,4.353,6.252
				l-2.883,4.39c0,0-5.956-3.875-8.515-9.9C107.172,100.869,110.336,93.05,110.336,93.05z"/>
			<g>
				
					<linearGradient id="SVGID_00000145036585004419460120000001540328920331358082_" gradientUnits="userSpaceOnUse" x1="-463.8518" y1="181.3465" x2="-466.3965" y2="165.6544" gradientTransform="matrix(-1 0 -0.0195 1 -345.5799 0.0011)">
					<stop  offset="0" style="stop-color:#FFB7A7"/>
					<stop  offset="1" style="stop-color:#FF9595"/>
				</linearGradient>
				<path style="fill:url(#SVGID_00000145036585004419460120000001540328920331358082_);" d="M115.267,165.121
					c0.26,1.385,2.18,10.181,2.78,11.29c0.509,0.94,1.336,1.626,2.259,2.089c1.186,0.596,2.31,0.932,2.33,1.354
					c0.046,0.951-2.706,0.595-4.41,0.548c-1.576-0.044-2.739-0.047-2.976-0.514c-0.506-0.914,0.442-2.312,0.405-2.848
					c-0.634-2.511-4.705-7.462-5.823-10.764L115.267,165.121z"/>
				<path style="fill:#543E50;" d="M122.725,179.854c-0.015-0.31-0.639-0.618-1.623-0.969c-0.305,0.2-1.649,0.593-3.201,0.338
					c-1.303-0.215-1.947-0.983-2.582-1.113c-0.295,0.802-0.317,1.389-0.074,1.867c0.237,0.467,1.404,0.417,2.979,0.461
					C119.928,180.485,122.771,180.805,122.725,179.854z"/>
				<path style="fill:#D37A85;" d="M114.094,165.37c0.75,3.077,2.493,9.172,3.953,11.04c-0.6-1.109-2.52-9.905-2.78-11.29
					L114.094,165.37z"/>
			</g>
			<g>
				
					<linearGradient id="SVGID_00000012466624693904647590000009903553010053931441_" gradientUnits="userSpaceOnUse" x1="-3.2655" y1="181.406" x2="-5.6467" y2="166.7223" gradientTransform="matrix(1 0 0.1194 1 83.8982 0.0012)">
					<stop  offset="0" style="stop-color:#FFB7A7"/>
					<stop  offset="1" style="stop-color:#FF9595"/>
				</linearGradient>
				<path style="fill:url(#SVGID_00000012466624693904647590000009903553010053931441_);" d="M97.462,166.689
					c0.495,3.095,2.558,8.583,1.812,10.486c-0.473,1.204-2.011,1.5-2.014,2.24c-0.004,0.858,1.484,1.001,2.14,1.001
					c1.582,0,2.735-0.047,2.924-0.514c0.277-0.685-0.146-1.308-0.699-3.136c-0.46-1.764,0.941-6.444,0.954-10.324L97.462,166.689z"
					/>
				<path style="fill:#543E50;" d="M99.411,179.004c-0.744-0.084-1.136-0.411-1.017-0.798c-0.562,0.446-1.221,0.747-1.223,1.209
					c-0.004,0.858,1.599,1.113,2.255,1.113c1.582,0,2.822-0.147,3.011-0.614c0.211-0.521-0.098-1.02-0.447-2.029
					C101.977,178.712,100.833,179.165,99.411,179.004z"/>
				<path style="fill:#D37A85;" d="M101.931,166.473c-0.128,1.061-0.373,2.424-0.619,4.005c-0.404,2.594-0.173,4.785,0.312,6.287
					c-0.46-1.764,0.941-6.444,0.954-10.324L101.931,166.473z"/>
			</g>
			<path style="fill:#407F85;" d="M120.817,160.476c0.413-2.311,3.136-2.476,4.126-5.364c0,0-3.961-5.86-6.85-12.709
				c-2.888-6.85-4.457-13.452-4.457-13.452s1.238,12.544,3.384,21.045C119.167,158.495,120.817,160.476,120.817,160.476z"/>
			<path style="fill:#459096;" d="M94.078,109.226c0,0-4.457,8.418-5.777,22.448c-1.321,14.03,1.65,36.312,1.65,36.312
				s0.743,1.155,3.054,1.486c2.311,0.33,3.961-0.165,3.961-0.165s2.228,1.155,4.457,1.073c2.228-0.083,3.549-1.073,3.549-1.073
				s1.816,0.99,4.209,0.413c2.393-0.578,3.631-2.146,3.631-2.146s2.063,0.495,3.961-0.495c1.898-0.99,2.228-2.723,2.228-2.723
				s1.898-0.413,2.393-2.641c0,0-3.301-8.83-4.622-14.938c-1.32-6.107-4.044-29.05-7.923-35.735c0,0-4.209,1.486-8.748,0.825
				C95.564,111.206,94.078,109.226,94.078,109.226z"/>
			<path style="fill:#407F85;" d="M94.078,109.226l0.165-2.146c0,0,2.393,2.063,7.097,2.393c5.187,0.364,7.345-0.825,7.345-0.825
				l0.165,2.393c0,0-3.054,1.816-8.748,0.825C94.408,110.876,94.078,109.226,94.078,109.226z"/>
			<path style="fill:#F5F5F5;" d="M94.243,107.08c-1.398-1.15-1.238-4.787-1.568-8.335c-0.33-3.549,6.726-12.585,6.726-12.585
				l3.92,4.498l4.333-0.206c0,0,1.527,1.362,2.682,2.6c0,0-0.165,2.971,0,4.952c0.165,1.981,0.66,4.044,0.248,5.364
				c-0.413,1.32-1.651,2.228-1.651,2.228s0.248,2.641-0.248,3.054C108.19,109.061,99.36,111.289,94.243,107.08z"/>
			<path style="fill:#E5C1B9;" d="M96.259,67.533c0.711-0.686,2.036-1.13,2.708-0.2c0.321-0.095,0.663,0.044,0.843,0.156
				c0.301,0.187,0.507,0.54,0.388,0.894l-3.739,5.825c-0.327-0.281-0.708-0.454-0.984-0.83c-0.313-0.424-0.453-1.048-0.499-1.558
				C94.841,70.334,95.147,68.606,96.259,67.533z"/>
			<path style="fill:#F2DAD5;" d="M109.275,73.816c-0.226-1.427,0.66-2.652-1.169-4.475c-1.829-1.823-4.373-1.429-4.373-1.429
				s-3.012-1.346-6.155,1.701c-3.142,3.047-2.06,9.13,0.146,10.65c2.054,1.416,4.618,1.619,4.618,1.619L109.275,73.816z"/>
			<path style="fill:#E5C1B9;" d="M97.591,69.601c-0.718,0.955-1.338,2.27-1.093,3.194c0.429,1.616,2.21,1.189,2.21,1.189
				c-0.698-0.217-1.058-0.965-1.058-0.965c2.013,0.609,3.971-0.599,3.971-0.599l0.723,9.46l-0.002,0.002
				c0,0-2.563-0.203-4.618-1.619c-2.205-1.52-3.412-7.584-0.146-10.65C97.582,69.609,97.586,69.605,97.591,69.601z"/>
			
				<linearGradient id="SVGID_00000008860134445924787440000000697654209031934342_" gradientUnits="userSpaceOnUse" x1="-311.2572" y1="106.7466" x2="-311.2572" y2="67.6281" gradientTransform="matrix(-0.9815 -0.1917 -0.1917 0.9815 -186.6494 -49.8114)">
				<stop  offset="0" style="stop-color:#FFB7A7"/>
				<stop  offset="1" style="stop-color:#FF9595"/>
			</linearGradient>
			<path style="fill:url(#SVGID_00000008860134445924787440000000697654209031934342_);" d="M100.379,81.397
				c0,0,8.256,2.695,6.615,4.102c-1.444,1.238-1.362,3.755,0.66,4.952c0,0-0.611,1.777-3.507,0.949
				c-3.177-0.908-4.745-5.24-4.745-5.24C100.473,86.103,101.535,84.269,100.379,81.397z"/>
			<path style="fill:#D37A85;" d="M106.994,85.499c1.642-1.407-6.615-4.102-6.615-4.102c1.156,2.872,0.094,4.706-0.978,4.762
				c0,0,0.851,2.35,2.569,3.951c1.756-0.459,3.202-1.399,4.062-2.063C105.919,87.095,106.257,86.131,106.994,85.499z"/>
			
				<linearGradient id="SVGID_00000123419111416417020830000004883019413426032313_" gradientUnits="userSpaceOnUse" x1="-334.6212" y1="121.4414" x2="-334.6212" y2="93.9714" gradientTransform="matrix(-0.9844 0.1761 0.1761 0.9844 -245.5327 25.9639)">
				<stop  offset="0" style="stop-color:#FFB7A7"/>
				<stop  offset="1" style="stop-color:#FF9595"/>
			</linearGradient>
			<path style="fill:url(#SVGID_00000123419111416417020830000004883019413426032313_);" d="M98.583,79.369
				c0.736-0.235,1.413,0.656,1.413,0.656c1.079-0.33,0.511-2.1,0.354-3.032c-0.298-1.771-0.543-4.807,4.199-5.994
				c3.746-0.583,5.202,3.073,5.8,6.641c0.492,2.937,0.173,6.726-2.159,8.312c-0.507,0.448-3.218,0.398-5.093-0.872
				c-1.777-1.203-2.399-2.4-2.399-2.4c-0.796,0.877-2.054,0.301-2.724-0.669C97.332,81.083,97.286,79.724,98.583,79.369z"/>
			<path style="fill:#F5DFDB;" d="M104.647,75.47c0.224,0.471-0.772,0.083-2.051,1.002c-0.898,0.646-1.195,1.268-1.366,1.201
				c-0.172-0.068-0.034-0.746,1.029-1.612C103.164,75.323,104.482,75.124,104.647,75.47z"/>
			<path style="fill:#F5DFDB;" d="M107.223,74.997c0.072,0.476,0.903-0.132,1.845-0.058c0.675,0.053,0.796,0.321,0.904,0.208
				c0.107-0.113,0.152-0.581-0.832-0.794C108.328,74.178,107.178,74.7,107.223,74.997z"/>
			<path style="fill:#D37A85;" d="M106.994,78.278c-0.478-0.68-0.545-1.679-0.104-2.493c-0.632,0.723-0.719,2.024-0.276,2.713
				c0.468,0.756,1.598,1.478,1.684,1.709c0.114,0.303-0.136,0.819-0.595,1.172c0.985-0.223,1.383-1.066,1.189-1.492
				C108.765,79.61,107.532,79.079,106.994,78.278z"/>
			<path style="fill:#D37A85;" d="M98.61,81.715c0.353,0.47,0.885,0.666,1.188,0.439c0.303-0.228,0.262-0.793-0.091-1.263
				s-0.885-0.666-1.188-0.439C98.216,80.679,98.257,81.245,98.61,81.715z"/>
			<path style="fill:#F2DAD5;" d="M95.62,70.109c-0.332-0.562,0.511-3.056,2.635-3.263c0.271,0.067,0.518,0.22,0.711,0.487
				C96.674,68.051,95.62,70.109,95.62,70.109z"/>
			<path style="fill:#F2DAD5;" d="M98.421,68.53c-0.658,0.386-1.25,0.96-1.388,0.818c-0.161-0.166,0.317-0.927,1.023-1.382
				c0.832-0.537,1.326-0.569,1.483-0.607c0.109,0.043,0.208,0.093,0.27,0.131c0.108,0.067,0.203,0.156,0.276,0.258
				C99.703,67.869,99.134,68.111,98.421,68.53z"/>
			
				<linearGradient id="SVGID_00000015352320574851920800000004934307558282096574_" gradientUnits="userSpaceOnUse" x1="97.1524" y1="69.4553" x2="111.7599" y2="51.0721">
				<stop  offset="0" style="stop-color:#FFB7A7"/>
				<stop  offset="1" style="stop-color:#FF9595"/>
			</linearGradient>
			<path style="fill:url(#SVGID_00000015352320574851920800000004934307558282096574_);" d="M98.081,64.826
				c2.785-4.415,8.512-9.808,8.512-9.808l1.466,1.515c-2.303,2.103-4.407,8.54-6.677,11.315
				C99.491,70.16,98.081,64.826,98.081,64.826z"/>
			<path style="fill:#D37A85;" d="M103.404,63.505c-1.362,2.517-2.847,3.301-2.847,3.301l-0.586,1.485
				c0.423,0.238,0.899,0.184,1.411-0.443c2.197-2.686,4.279-9.025,6.677-11.315c0,0-0.755,0.331-1.56,1.536
				C105.41,59.699,104.015,62.376,103.404,63.505z"/>
			<g>
				<path style="fill:#E5C1B9;" d="M106.714,70.254c0.186-0.649-0.585-1.444-1.222-1.447c-0.091,0-0.106,0.111-0.043,0.158
					c0.524,0.392,0.96,0.572,1.091,1.289C106.557,70.345,106.691,70.334,106.714,70.254L106.714,70.254z"/>
				<path style="fill:#E5C1B9;" d="M105.564,69.965c-0.006-0.828-1.006-1.362-1.663-1.629c-0.699-0.285-2.021-0.71-2.724-0.229
					c-0.05,0.034-0.039,0.137,0.035,0.128c1.452-0.176,3.585,0.198,4.179,1.754C105.424,70.076,105.565,70.07,105.564,69.965
					L105.564,69.965z"/>
				<path style="fill:#E5C1B9;" d="M107.682,69.791c0.438,0.71,0.759,1.256,0.69,2.118c-0.007,0.084,0.123,0.118,0.16,0.043
					c0.398-0.801-0.203-1.667-0.729-2.255C107.745,69.632,107.636,69.717,107.682,69.791L107.682,69.791z"/>
				<path style="fill:#E5C1B9;" d="M93.19,69.74c-1.271,0.657-0.534,3.511,0.929,3.321c0.117-0.015,0.147-0.166,0.028-0.209
					c-0.661-0.238-1.101-0.561-1.326-1.26c-0.215-0.665-0.074-1.295,0.42-1.784C93.278,69.772,93.232,69.718,93.19,69.74
					L93.19,69.74z"/>
				<path style="fill:#E5C1B9;" d="M93.196,69.102c0.692-0.653,2.054-0.959,2.504,0.129c0.055,0.132,0.261,0.086,0.222-0.061
					c-0.33-1.224-2.243-1.106-2.783-0.112C93.119,69.094,93.166,69.13,93.196,69.102L93.196,69.102z"/>
			</g>
			<path style="fill:#F5F5F5;" d="M92.675,98.745c-0.66-6.025-2.489-15.746-0.99-22.2c1.279-5.509,4.126-10.068,6.272-12.214
				l4.044,3.219c0,0-3.248,5.332-3.838,9.305c-0.557,3.755,0.701,8.026,1.238,9.305C99.401,86.159,95.729,97.672,92.675,98.745z"/>
			
				<linearGradient id="SVGID_00000181765667075646731710000016977211456127821207_" gradientUnits="userSpaceOnUse" x1="97.4895" y1="70.6994" x2="112.7678" y2="51.4721">
				<stop  offset="0" style="stop-color:#FFB7A7"/>
				<stop  offset="1" style="stop-color:#FF9595"/>
			</linearGradient>
			<path style="fill:url(#SVGID_00000181765667075646731710000016977211456127821207_);" d="M106.521,55.073
				c1.189-0.967,3.225-2.169,3.931-2.174c0.544-0.004,1.038-0.013,1.834,0.476c0.772,0.475,1.262,0.896,1.228,1.12
				c-0.163,0.499-1.461-0.533-2.414-0.824c0.281,0.205,0.625,0.448,0.909,0.776c0.346,0.401,0.794,1.349,0.538,1.559
				c-0.365,0.298-0.688-0.242-0.688-0.242s0.166,0.45-0.137,0.556c-0.423,0.148-1.01-0.545-1.563-0.608
				c-0.422-0.048-1.172,0.79-2.193,0.828C107.111,56.57,106.521,55.073,106.521,55.073z"/>
			<path style="fill:#407F85;" d="M93.954,142.773c-0.824-0.118,0.014,20.055-0.958,26.696c0.003,0.001,0.006,0.001,0.009,0.002
				c2.311,0.33,3.961-0.165,3.961-0.165C94.821,157.133,94.821,142.897,93.954,142.773z"/>
			<path style="fill:#407F85;" d="M102.496,152.924c-1.362-0.124-0.292,13.258-1.205,17.457c0.044-0.001,0.088-0.001,0.132-0.003
				c2.228-0.083,3.549-1.073,3.549-1.073C102.991,162.209,103.215,152.99,102.496,152.924z"/>
			<path style="fill:#407F85;" d="M107.819,146.24c-0.941-0.118,2.228,15.226,1.76,23.371c2.132-0.643,3.233-2.037,3.233-2.037
				C110.171,158.124,108.809,146.363,107.819,146.24z"/>
			<path style="fill:#407F85;" d="M121.395,161.714c0,0-3.301-8.831-4.622-14.938c-1.32-6.107-4.044-29.05-7.923-35.735
				c0,0-1.502,0.53-3.678,0.816c1.355,3.285,6.541,16.407,7.722,27.574c1.164,11.002,2.87,24.263,3.341,27.888
				c0.179-0.068,0.359-0.148,0.537-0.241c1.898-0.99,2.228-2.723,2.228-2.723S120.9,163.942,121.395,161.714z"/>
			<path style="fill:#E6E4E3;" d="M92.675,98.745c0.33,3.549,0.17,7.186,1.568,8.335c5.117,4.209,13.947,1.981,14.442,1.568
				c0.495-0.413,0.248-3.054,0.248-3.054s1.238-0.908,1.651-2.228c0.064-0.205,0.106-0.428,0.131-0.665
				c-0.925,0.893-3.277,1.625-6.424,1.511c-3.404-0.124-6.809-1.981-7.675-3.961c0,0-0.124,1.238,0.186,2.538
				c0,0-1.671,0-2.538-4.642c-0.867-4.642-1.114-7.366-1.795-12.565c-0.681-5.199-1.382-12.957,5.488-21.251
				c-2.146,2.146-4.993,6.705-6.272,12.214C90.186,82.998,92.015,92.72,92.675,98.745z"/>
			<g>
				<g>
					<path style="fill:#5E454D;" d="M104.742,77.746c0.165,0.433,0.017,0.892-0.33,1.025c-0.348,0.133-0.764-0.111-0.929-0.544
						c-0.165-0.433-0.018-0.892,0.33-1.025C104.16,77.07,104.577,77.313,104.742,77.746z"/>
					<path style="fill:#5E454D;" d="M102.481,79.123c-0.093-0.752,0.302-1.483,1.182-1.951c0.509-0.28,1.182,0.065,1.209,0.458
						c0,0-0.536-0.277-1.064,0.028C103.279,77.964,102.481,79.123,102.481,79.123z"/>
				</g>
				<g>
					<path style="fill:#5E454D;" d="M102.851,77.955c0,0-0.74-0.135-0.766-0.052c-0.026,0.083,0.621,0.371,0.621,0.371
						L102.851,77.955z"/>
					<path style="fill:#5E454D;" d="M102.668,78.349c0,0-0.794,0.08-0.798,0.141c-0.004,0.061,0.738,0.204,0.738,0.204
						L102.668,78.349z"/>
				</g>
			</g>
			<g>
				<g>
					<path style="fill:#5E454D;" d="M109.703,76.538c0.155,0.411,0.039,0.837-0.259,0.952c-0.298,0.115-0.667-0.125-0.822-0.536
						c-0.155-0.411-0.039-0.837,0.259-0.952C109.18,75.888,109.547,76.128,109.703,76.538z"/>
					<path style="fill:#5E454D;" d="M107.893,77.703c-0.213-0.655,0.318-1.668,1.038-1.811c0.574-0.15,1.1,0.423,1.066,0.797
						c0,0-0.428-0.489-1.014-0.325C108.325,76.548,107.893,77.703,107.893,77.703z"/>
				</g>
				<g>
					<path style="fill:#5E454D;" d="M109.48,76.159c0,0,0.513-0.484,0.573-0.427c0.06,0.057-0.305,0.623-0.305,0.623L109.48,76.159z
						"/>
					<path style="fill:#5E454D;" d="M109.812,76.399c0,0,0.659-0.329,0.691-0.28c0.033,0.049-0.478,0.54-0.478,0.54L109.812,76.399z
						"/>
				</g>
			</g>
			<g>
				<g>
					<path style="fill:#B25B6C;" d="M105.07,82.213c0,0,1.079,0.382,1.98,0.406c1.113,0.031,1.913-0.294,1.913-0.294
						s-0.45,1.842-1.909,1.647C105.456,83.758,105.07,82.213,105.07,82.213z"/>
				</g>
				<path style="fill:#944756;" d="M107.161,82.915c1.14,0.002,1.797-0.58,1.797-0.58l0.005-0.01c0,0-0.77,0.143-1.824,0.122
					c-1.117-0.021-2.069-0.235-2.069-0.235S105.62,82.912,107.161,82.915z"/>
				<path style="fill:#F5E4F7;" d="M107.035,83.37c1.03,0.086,1.227-0.661,1.227-0.661s-0.277,0.058-1.153,0.04
					c-0.919-0.018-1.55-0.174-1.55-0.174S106.079,83.291,107.035,83.37z"/>
			</g>
			
				<linearGradient id="SVGID_00000074444177381948491830000016834756288126673294_" gradientUnits="userSpaceOnUse" x1="152.1957" y1="78.3952" x2="152.1957" y2="65.624" gradientTransform="matrix(0.7646 -0.1735 0.1911 0.842 -22.1992 16.3434)">
				<stop  offset="0" style="stop-color:#FFB7A7"/>
				<stop  offset="1" style="stop-color:#FF9595"/>
			</linearGradient>
			<path style="fill:url(#SVGID_00000074444177381948491830000016834756288126673294_);" d="M110.706,52.912
				c-0.14-0.334-1.081-1.087-1.647-0.878c-0.372,0.138-0.536,0.396-0.536,0.396s-0.179-0.233-0.606-0.093
				c-0.396,0.13-0.528,0.691-0.528,0.691s-0.311-0.124-0.497,0.202c-0.16,0.281-0.463,1.658-0.101,1.771
				c0.373,0.117,0.606-0.606,0.606-0.606s0.176,0.602,0.489,0.536c0.443-0.093,0.489-1.212,0.489-1.212s0.033,0.847,0.396,0.816
				c0.536-0.047,0.51-1.173,0.839-1.375C109.914,52.974,110.706,52.912,110.706,52.912z"/>
		</g>
		<g>
			
				<linearGradient id="SVGID_00000001648659677482853410000011083405205709314715_" gradientUnits="userSpaceOnUse" x1="133.1229" y1="118.4866" x2="145.9577" y2="110.835">
				<stop  offset="0" style="stop-color:#FFB7A7"/>
				<stop  offset="1" style="stop-color:#FF9595"/>
			</linearGradient>
			<path style="fill:url(#SVGID_00000001648659677482853410000011083405205709314715_);" d="M141.342,110.281
				c-1.81,1.646-7.316,4.512-8.965,5.271l1.897,2.614c0,0,0.288-0.197,2.763-0.676c2.475-0.479,6.691-1.861,8.748-3.178
				C147.428,113.26,141.342,110.281,141.342,110.281z"/>
			
				<linearGradient id="SVGID_00000048484207735340040430000007179242582312343184_" gradientUnits="userSpaceOnUse" x1="132.5341" y1="117.5907" x2="145.4086" y2="109.9156">
				<stop  offset="0" style="stop-color:#FFB7A7"/>
				<stop  offset="1" style="stop-color:#FF9595"/>
			</linearGradient>
			<path style="fill:url(#SVGID_00000048484207735340040430000007179242582312343184_);" d="M132.516,115.477
				c-1.3,0.557-2.447,1.107-3.652,1.826c-1.205,0.719-2.219,2.618-1.547,2.785c0.371,0.093,1.238-1.671,1.671-1.455
				c0.409,0.204-0.911,2.263-0.186,2.445c0.743,0.186,0.9-1.765,1.303-1.564c0.403,0.201-0.855,1.798-0.158,1.997
				c0.433,0.124,0.845-0.986,1.3-1.393c0.659-0.589,2.321-1.733,3.211-1.995L132.516,115.477z"/>
			<path style="fill:#D37A85;" d="M134.439,118.099c0.261-0.092,0.924-0.285,2.598-0.609c2.475-0.479,6.691-1.862,8.748-3.178
				c0.264-0.169,0.312-0.39,0.235-0.638l-2.86-2.408c-0.974-0.573-1.818-0.986-1.818-0.986c-0.168,0.153-0.393,0.324-0.618,0.495
				l-0.017,0.059c0,0,2.022,1.816,2.105,2.93c0.095,1.276-1.527,2.146-3.838,2.765c-3.055,0.818-5.777,0.165-8.253,3.796
				c0,0-0.403,0.654-0.849,1.129c0.027,0.018,0.038,0.047,0.076,0.058c0.433,0.124,0.845-0.986,1.3-1.393
				c0.659-0.589,2.321-1.733,3.211-1.995L134.439,118.099z"/>
			<path style="fill:#F5F5F5;" d="M140.253,110.587c0,0,2.488,0.869,4.885,5.016c0,0,3.029-1.089,4.839-2.611
				c0,0-1.881-5.658-6.196-6.12L140.253,110.587z"/>
		</g>
	</g>
	<g>
		<g>
			<path style="fill:#568583;" d="M46.2,142.387c-2.711-0.741-4.607,0.201-6.191,1.361c-2.017,1.478-2.537,2.902-3.287,5.065
				c0.799-0.412,1.824-0.06,2.698-0.174c0.873-0.113,1.602-0.296,2.42-0.639C43.49,147.308,46.713,144.78,46.2,142.387z"/>
			<path style="fill:#568583;" d="M34.507,110.405c-2.321-2.305-6.128-3.35-6.128-3.35s0.052,7.045,3.04,11.575
				c1.591,2.412,4.239,3.392,5.794,2.647C37.574,120.03,38.431,114.302,34.507,110.405z"/>
			<path style="fill:#568583;" d="M53.703,116.034c-4.376-0.712-8.747,0.973-11.191,3.372c-3.111,3.054-3.671,5.65-4.454,9.584
				c1.272-0.91,3.082-0.647,4.579-0.96c1.979-0.413,3.394-0.931,4.715-1.726C50.017,124.7,53.564,121.165,53.703,116.034z"/>
			<path style="fill:#568583;" d="M36.349,143.542c-3.111,0.118-4.017-3.228-5.109-5.476c-1.16-2.386-2.384-4.893-3.124-7.35
				C34.551,131.332,40.923,136.926,36.349,143.542z"/>
			<path style="fill:#568583;" d="M39.268,127.634c-0.556,1.117-1.339,2.047-1.81,3.227c-0.495,1.243-0.798,2.544-0.764,3.887
				c0.011,0.431-0.67,0.45-0.669,0.019c0.006-2.348,0.898-5.988,2.986-7.376C39.169,127.285,39.346,127.477,39.268,127.634
				L39.268,127.634z"/>
			<path style="fill:#6B9994;" d="M36.858,99.814c2.238,9.821,1.235,19.302,0.342,29.209c-0.444,4.926-0.66,9.852-0.285,14.79
				c0.174,2.286,0.258,4.589,0.487,6.87c0.187,1.861,0.705,3.758,0.247,5.613c-0.118,0.477-0.889,0.419-0.878-0.094
				c0.09-4.082-0.556-8.283-0.841-12.361c-0.345-4.94-0.106-9.868,0.36-14.792c0.461-4.866,1.149-9.704,1.25-14.597
				c0.103-4.947-0.901-9.67-1.078-14.573C36.455,99.657,36.806,99.587,36.858,99.814L36.858,99.814z"/>
			<path style="fill:#6B9994;" d="M37.604,105.637c4.993-6.191,4.774-14.99-0.907-20.841c-2.081-2.143-4.35-2.566-6.847-3.758
				c-1.392,3.441-2.167,6.293-2.24,10.164C27.366,104.095,37.055,105.244,37.604,105.637z"/>
			<path style="fill:#6B9994;" d="M40.926,105.869c1.889-4.747,6.663-8.952,11.622-7.783c2.173,0.512-0.689,7.612-2.473,9.34
				c-1.965,1.904-7.239,5.15-10.174,2.854C39.783,108.846,40.402,107.185,40.926,105.869z"/>
			<path style="fill:#6B9994;" d="M20.639,101.96c2.91-1.668,7.026,0.22,9.481,2.003c3.125,2.27,3.967,4.487,5.187,7.855
				c-1.232-0.628-2.782-0.057-4.117-0.216c-1.334-0.159-2.451-0.429-3.709-0.95C24.942,109.602,19.248,105.146,20.639,101.96z"/>
			<path style="fill:#6B9994;" d="M37.472,120.789c0.491-1.067,1.135-2.057,1.725-3.098c1.478-2.609,2.492-4.811,5.837-5.217
				c1.713-0.208,3.066,0.225,4.391,1.263c1.284,1.007,1.062,4.113,2.718,4.619c-2.939,0.102-6.75,2.211-9.798,4.437
				c-0.853,0.623-2.226,1.84-3.44,1.359C37.878,123.747,37.102,121.593,37.472,120.789z"/>
			<path style="fill:#6B9994;" d="M23.381,134.52c1.684-2.182,7.137-0.585,9.403,1.37c1.531,1.32,2.758,4.505,1.26,6.308
				c-1.075-0.661-3.435,0.424-4.702,0.489c-2.43,0.124-4.652-1.127-5.945-3.215C22.066,137.323,20.635,135.38,23.381,134.52z"/>
			<path style="fill:#6B9994;" d="M46.75,130.189c-1.187-2.011-5.44-0.627-7.27,1.125c-1.235,1.183-2.327,4.07-1.265,5.733
				c0.855-0.588,2.612,0.432,3.579,0.508c1.856,0.145,3.618-0.966,4.708-2.853C47.625,132.761,48.813,131.009,46.75,130.189z"/>
			<g>
				<path style="fill:#6B9994;" d="M20.811,117.4c1.738,0.148,3.698,0.294,5.339,1.004c5.305,2.295,9.436,8.095,8.471,13.573
					c0.097-0.145,0.019,0.126,0.008,0.213c-1.354,0.926-3.354,0.415-4.811,0.068c-4.397-1.044-6.665-4.317-7.861-7.462
					C21.225,122.869,19.469,119.06,20.811,117.4z"/>
			</g>
			<path style="fill:#6B9994;" d="M38.98,136.213c-0.592,0.705-1.107,1.498-1.515,2.324c-0.231,0.467-0.431,0.952-0.561,1.457
				c-0.128,0.497-0.083,1.023-0.246,1.504c-0.053,0.157-0.299,0.242-0.39,0.062c-0.456-0.902,0.094-2.216,0.498-3.063
				c0.464-0.972,1.122-1.908,2.02-2.52C38.937,135.874,39.089,136.084,38.98,136.213L38.98,136.213z"/>
			<path style="fill:#6B9994;" d="M32.64,141.557c1.146-0.451,2.425,0.547,3.07,1.413c0.576,0.772,1.583,2.596,1.083,3.563
				c-0.091,0.177-0.313,0.148-0.42,0.012c-0.265-0.337-0.26-0.822-0.373-1.228c-0.154-0.551-0.371-1.089-0.653-1.587
				c-0.292-0.515-0.66-1.032-1.161-1.36c-0.48-0.315-0.997-0.325-1.535-0.446C32.456,141.88,32.474,141.622,32.64,141.557
				L32.64,141.557z"/>
			<path style="fill:#6B9994;" d="M34.095,131.337c0.547,0.798,1.341,1.393,1.804,2.259c0.383,0.718,0.649,1.636,0.672,2.447
				c0.008,0.269-0.384,0.408-0.521,0.157c-0.453-0.833-0.444-1.814-0.991-2.628c-0.485-0.722-1.064-1.221-1.264-2.099
				C33.753,131.291,33.985,131.177,34.095,131.337L34.095,131.337z"/>
			<path style="fill:#6B9994;" d="M34.115,110.417c2.353,1.097,3.889,4.685,3.903,7.143c0.002,0.431-0.678,0.449-0.669,0.019
				c0.031-1.475-0.473-2.85-1.23-4.102c-0.633-1.047-1.543-1.825-2.247-2.802C33.757,110.515,33.962,110.345,34.115,110.417
				L34.115,110.417z"/>
			<path style="fill:#6B9994;" d="M41.032,109.321c-1.052,1.842-2.397,3.295-2.736,5.471c-0.066,0.424-0.69,0.256-0.641-0.158
				c0.239-1.989,1.611-4.223,3.133-5.49C40.912,109.042,41.125,109.159,41.032,109.321L41.032,109.321z"/>
			<path style="fill:#6B9994;" d="M40.671,100.334c-0.388,1.553-1.058,3.007-1.541,4.532c-0.494,1.562-0.715,3.136-1.045,4.732
				c-0.054,0.261-0.461,0.215-0.465-0.05c-0.05-3.067,1.187-6.722,2.851-9.292C40.535,100.157,40.702,100.209,40.671,100.334
				L40.671,100.334z"/>
			<path style="fill:#568583;" d="M39.809,101.334c3.106-0.212,3.652-3.636,4.501-5.986c0.901-2.496,1.853-5.117,2.328-7.639
				C40.304,89.002,34.56,95.239,39.809,101.334z"/>
		</g>
		<g>
			<path style="fill:#F86246;" d="M43.438,174.42H31.406c-2.093-5.837-3.425-12.462-3.986-19.882h20.004
				C46.954,161.506,45.715,168.169,43.438,174.42z"/>
			<path style="fill:#C94335;" d="M41.877,154.538c-0.717,20.838-9.203,18.162-11.409,17.015c0.296,0.974,0.604,1.934,0.938,2.868
				h12.032c2.278-6.251,3.516-12.914,3.986-19.882H41.877z"/>
		</g>
	</g>
	<g>
		<g>
			<rect x="48.211" y="50.26" style="fill:#88AAAE;" width="20.811" height="24.858"/>
			<rect x="49.656" y="51.85" style="fill:#B3D0D2;" width="17.921" height="21.678"/>
			<polygon style="fill:#CEEBEB;" points="51.096,71.98 51.096,53.398 66.136,53.398 			"/>
		</g>
		<g>
			<rect x="65.774" y="80.92" style="fill:#88AAAE;" width="13.874" height="17.68"/>
			<rect x="67.14" y="82.309" style="fill:#B3D0D2;" width="11.141" height="14.903"/>
			<polygon style="fill:#CEEBEB;" points="68.035,96.147 68.035,83.373 77.386,83.373 			"/>
		</g>
		<g>
			<rect x="191.357" y="66.92" style="fill:#88AAAE;" width="13.874" height="17.68"/>
			<rect x="192.723" y="68.309" style="fill:#B3D0D2;" width="11.141" height="14.903"/>
			<polygon style="fill:#CEEBEB;" points="193.619,82.147 193.619,69.373 202.969,69.373 			"/>
		</g>
	</g>
</g>
</svg>
