<?xml version="1.0" encoding="utf-8"?>
<!-- Generator: Adobe Illustrator 27.5.0, SVG Export Plug-In . SVG Version: 6.00 Build 0)  -->
<svg version="1.1" xmlns="http://www.w3.org/2000/svg" xmlns:xlink="http://www.w3.org/1999/xlink" x="0px" y="0px"
	 viewBox="0 0 500 500" style="enable-background:new 0 0 500 500;" xml:space="preserve">
<g id="Background_Complete">
	<g id="Layer_14">
	</g>
	<g>
		<rect x="416.779" y="398.494" style="fill:#EBEBEB;" width="33.122" height="0.25"/>
		<rect x="322.527" y="401.208" style="fill:#EBEBEB;" width="8.693" height="0.25"/>
		<rect x="396.586" y="389.208" style="fill:#EBEBEB;" width="19.192" height="0.25"/>
		<rect x="52.459" y="390.888" style="fill:#EBEBEB;" width="43.193" height="0.25"/>
		<rect x="104.556" y="390.888" style="fill:#EBEBEB;" width="6.333" height="0.25"/>
		<rect x="131.471" y="395.111" style="fill:#EBEBEB;" width="93.676" height="0.25"/>
		<path style="fill:#EBEBEB;" d="M237.014,337.8H43.915c-3.147,0-5.708-2.561-5.708-5.708V60.66c0-3.147,2.561-5.708,5.708-5.708
			h193.099c3.146,0,5.707,2.561,5.707,5.708v271.432C242.721,335.239,240.16,337.8,237.014,337.8z M43.915,55.203
			c-3.01,0-5.458,2.448-5.458,5.458v271.432c0,3.01,2.448,5.458,5.458,5.458h193.099c3.009,0,5.457-2.448,5.457-5.458V60.66
			c0-3.009-2.448-5.458-5.457-5.458H43.915z"/>
		<path style="fill:#EBEBEB;" d="M453.31,337.8H260.212c-3.147,0-5.707-2.561-5.707-5.708V60.66c0-3.147,2.561-5.708,5.707-5.708
			H453.31c3.148,0,5.708,2.561,5.708,5.708v271.432C459.019,335.239,456.458,337.8,453.31,337.8z M260.212,55.203
			c-3.009,0-5.457,2.448-5.457,5.458v271.432c0,3.01,2.448,5.458,5.457,5.458H453.31c3.01,0,5.458-2.448,5.458-5.458V60.66
			c0-3.009-2.448-5.458-5.458-5.458H260.212z"/>
		<rect y="382.398" style="fill:#EBEBEB;" width="500" height="0.25"/>
		<g>
			<g>
				<rect x="38.457" y="224.38" style="fill:#F0F0F0;" width="93.084" height="157.548"/>
				<rect x="38.457" y="224.38" style="fill:#E6E6E6;" width="97.303" height="11.754"/>
			</g>
			<g id="XMLID_174_">
				<g id="coffee_machine">
					<g id="XMLID_396_">
						<g id="XMLID_1336_">
							<g id="XMLID_868_">
								<polygon id="XMLID_491_" style="fill:#EBEBEB;" points="88.942,216.265 55.391,216.265 50.117,183.873 94.217,183.873 
																	"/>
							</g>
							<g id="XMLID_700_">
								<polygon id="XMLID_488_" style="fill:#E0E0E0;" points="94.093,184.842 82.436,184.873 80.43,216.216 88.942,216.26 
																	"/>
							</g>
							<g id="XMLID_116_">
								<path id="XMLID_486_" style="fill:#EBEBEB;" d="M96.05,184.847H48.878c-4.788,0-8.67-3.882-8.67-8.67v-7.86
									c0-4.788,3.882-8.67,8.67-8.67H96.05c4.788,0,8.67,3.882,8.67,8.67v7.86C104.72,180.965,100.839,184.847,96.05,184.847z"/>
							</g>
							<g id="XMLID_790_">
								<path id="XMLID_483_" style="fill:#E0E0E0;" d="M104.904,169.723v5.037c0,5.568-4.487,10.029-11.062,10.029H81.294
									c6.576,0,10.001-4.461,10.001-10.029v-5.037c0-5.568-4.433-10.134-10.001-10.134H94.85
									C100.416,159.589,104.904,164.155,104.904,169.723z"/>
							</g>
						</g>
						<g id="XMLID_395_">
							<g id="XMLID_1753_">
								<rect id="XMLID_480_" x="66.095" y="193.105" style="fill:#E0E0E0;" width="12.096" height="6.93"/>
							</g>
							<g id="XMLID_1748_">
								<rect id="XMLID_478_" x="66.095" y="193.105" style="fill:#F5F5F5;" width="7.056" height="6.93"/>
							</g>
							<g id="XMLID_1526_">
								<path id="XMLID_476_" style="fill:#E0E0E0;" d="M104.423,220.458c0,1.149-0.465,2.182-1.217,2.936
									c-0.754,0.752-1.792,1.212-2.941,1.212H44.069c-2.297,0-4.158-1.85-4.158-4.147c0-1.149,0.465-2.193,1.217-2.946
									c0.753-0.752,1.792-1.222,2.941-1.222h56.196C102.562,216.29,104.423,218.161,104.423,220.458z"/>
							</g>
							<g id="XMLID_1524_">
								<path id="XMLID_474_" style="fill:#EBEBEB;" d="M82.53,220.458c0,1.149-0.465,2.182-1.217,2.936
									c-0.752,0.752-1.793,1.212-2.941,1.212H44.069c-2.297,0-4.158-1.85-4.158-4.147c0-1.149,0.465-2.193,1.217-2.946
									c0.753-0.752,1.792-1.222,2.941-1.222h34.304C80.669,216.29,82.53,218.161,82.53,220.458z"/>
							</g>
							<g id="XMLID_1724_">
								<path id="XMLID_472_" style="fill:#E0E0E0;" d="M78.467,172.295c0,3.48-2.821,6.3-6.3,6.3c-0.612,0-1.205-0.087-1.764-0.251
									c-2.621-0.764-4.536-3.181-4.536-6.049c0-2.866,1.915-5.286,4.536-6.049c0.559-0.164,1.152-0.251,1.764-0.251
									C75.646,165.995,78.467,168.816,78.467,172.295z"/>
							</g>
							<g id="XMLID_1722_">
								<path id="XMLID_470_" style="fill:#FAFAFA;" d="M74.939,172.295c0,2.868-1.915,5.286-4.536,6.049
									c-2.621-0.764-4.536-3.181-4.536-6.049c0-2.866,1.915-5.286,4.536-6.049C73.024,167.009,74.939,169.428,74.939,172.295z"/>
							</g>
							<g id="XMLID_1752_">
								<rect id="XMLID_466_" x="61.937" y="184.915" style="fill:#E0E0E0;" width="20.16" height="8.064"/>
							</g>
							<g id="XMLID_1749_">
								<rect id="XMLID_463_" x="61.937" y="184.915" style="fill:#F5F5F5;" width="13.986" height="8.064"/>
							</g>
							<g id="XMLID_787_">
								<circle id="XMLID_461_" style="fill:#E0E0E0;" cx="85.781" cy="172.271" r="2.646"/>
							</g>
							<g id="XMLID_819_">
								<circle id="XMLID_450_" style="fill:#E0E0E0;" cx="94.853" cy="172.271" r="2.646"/>
							</g>
							<g id="XMLID_901_">
								<circle id="XMLID_444_" style="fill:#E0E0E0;" cx="50.123" cy="172.271" r="2.646"/>
							</g>
							<g id="XMLID_995_">
								<rect id="XMLID_442_" x="78.281" y="195.486" style="fill:#FAFAFA;" width="10.08" height="3.15"/>
							</g>
						</g>
					</g>
				</g>
				<g id="XMLID_397_">
					<g id="XMLID_456_">
						<path id="XMLID_222_" style="fill:#E0E0E0;" d="M82.121,185.824H62.024c-0.522,0-0.945-0.423-0.945-0.945
							s0.423-0.945,0.945-0.945h20.097c0.522,0,0.945,0.423,0.945,0.945S82.643,185.824,82.121,185.824z"/>
					</g>
					<g id="XMLID_449_">
						<path id="XMLID_198_" style="fill:#FAFAFA;" d="M85.781,175.862c-1.98,0-3.591-1.611-3.591-3.591
							c0-1.98,1.611-3.591,3.591-3.591c1.98,0,3.591,1.611,3.591,3.591C89.372,174.251,87.761,175.862,85.781,175.862z
							 M85.781,170.57c-0.938,0-1.701,0.763-1.701,1.701c0,0.938,0.763,1.701,1.701,1.701c0.938,0,1.701-0.763,1.701-1.701
							C87.482,171.333,86.719,170.57,85.781,170.57z"/>
					</g>
					<g id="XMLID_447_">
						<path id="XMLID_194_" style="fill:#FAFAFA;" d="M94.853,175.862c-1.98,0-3.591-1.611-3.591-3.591
							c0-1.98,1.611-3.591,3.591-3.591c1.98,0,3.591,1.611,3.591,3.591C98.444,174.251,96.833,175.862,94.853,175.862z
							 M94.853,170.57c-0.938,0-1.701,0.763-1.701,1.701c0,0.938,0.763,1.701,1.701,1.701c0.938,0,1.701-0.763,1.701-1.701
							C96.554,171.333,95.791,170.57,94.853,170.57z"/>
					</g>
					<g id="XMLID_446_">
						<path id="XMLID_191_" style="fill:#FAFAFA;" d="M50.123,175.862c-1.98,0-3.591-1.611-3.591-3.591
							c0-1.98,1.611-3.591,3.591-3.591s3.591,1.611,3.591,3.591C53.714,174.251,52.103,175.862,50.123,175.862z M50.123,170.57
							c-0.938,0-1.701,0.763-1.701,1.701c0,0.938,0.763,1.701,1.701,1.701s1.701-0.763,1.701-1.701
							C51.824,171.333,51.061,170.57,50.123,170.57z"/>
					</g>
					<g id="XMLID_425_">
						<path id="XMLID_178_" style="fill:#E6E6E6;" d="M72.08,170.257c-0.522,0-0.945-0.423-0.945-0.945v-3.15
							c0-0.522,0.423-0.945,0.945-0.945c0.522,0,0.945,0.423,0.945,0.945v3.15C73.025,169.834,72.602,170.257,72.08,170.257z"/>
					</g>
				</g>
			</g>
			<g>
				<path style="fill:#E6E6E6;stroke:#FAFAFA;stroke-miterlimit:10;" d="M122.5,375.627H44.985V243.813H122.5V375.627z
					 M45.985,374.627H121.5V244.813H45.985V374.627z"/>
			</g>
			<rect x="50.123" y="293.987" style="fill:#E0E0E0;" width="5.988" height="18.33"/>
		</g>
		<g>
			<g>
				<g>
					<g>
						<g>
							<path style="fill:#E0E0E0;" d="M426.052,347.881l-1.016,0.125c-0.064-0.516-6.225-52.086,6.486-94.229
								c12.634-41.886,3.935-68.575,3.845-68.839l0.97-0.328c0.09,0.268,8.893,27.268-3.835,69.463
								C419.854,296.005,425.988,347.367,426.052,347.881z"/>
						</g>
						<g>
							<g>
								<path style="fill:#E0E0E0;" d="M437.179,190.681c-2.193-2.624-5.234-4.499-8.564-5.28l0.233-0.997
									c3.544,0.831,6.782,2.827,9.117,5.62L437.179,190.681z"/>
							</g>
						</g>
						<g>
							
								<rect x="438.636" y="195.725" transform="matrix(0.8707 -0.4919 0.4919 0.8707 -39.5757 241.9641)" style="fill:#E0E0E0;" width="3.363" height="1.023"/>
						</g>
						<g>
							<path style="fill:#E0E0E0;" d="M436.079,218.724c-2.517-5.772-7.314-10.426-13.16-12.768l0.38-0.95
								c6.094,2.441,11.094,7.292,13.718,13.309L436.079,218.724z"/>
						</g>
						<g>
							<path style="fill:#E0E0E0;" d="M433.334,250.943l-1.023,0.013c-0.05-4.162-2.03-8.187-5.295-10.767l0.635-0.803
								C431.156,242.156,433.281,246.476,433.334,250.943z"/>
						</g>
						<g>
							<path style="fill:#E0E0E0;" d="M431.052,259.181l-0.953-0.375c1.026-2.605,3.202-4.753,5.82-5.744l0.363,0.957
								C433.929,254.91,431.974,256.839,431.052,259.181z"/>
						</g>
						<g>
							<path style="fill:#E0E0E0;" d="M424.42,311.45l-0.788-0.653c1.244-1.502,2.186-7.218,2.692-10.29
								c0.121-0.734,0.224-1.361,0.31-1.812l1.005,0.191c-0.084,0.446-0.186,1.063-0.305,1.788
								C426.579,305.258,425.732,309.867,424.42,311.45z"/>
						</g>
						<g>
							<path style="fill:#E0E0E0;" d="M423.828,327.863c-1.321-4.043-5.521-6.941-9.768-6.744l-0.048-1.022
								c4.692-0.219,9.33,2.983,10.789,7.447L423.828,327.863z"/>
						</g>
						<g>
							
								<rect x="423.019" y="342.415" transform="matrix(0.6663 -0.7457 0.7457 0.6663 -112.7486 433.9017)" style="fill:#E0E0E0;" width="10.824" height="1.023"/>
						</g>
					</g>
					<g>
						<path style="fill:#F0F0F0;" d="M436.747,285.938c1.634,5.29-9.765,15.36-9.765,15.36s-15.092-1.887-16.726-7.177
							c-1.634-5.29,2.189-13.945,9.504-16.205C427.075,275.656,435.113,280.648,436.747,285.938z"/>
						<path style="fill:#EBEBEB;" d="M449.397,221.742c-1.446,5.618-12.242,9.608-12.242,9.608s-7.526-8.708-6.08-14.325
							c1.446-5.618,7.414-11.808,12.473-10.506C448.608,207.822,450.843,216.124,449.397,221.742z"/>
						<path style="fill:#F5F5F5;" d="M406.079,305.695c6.779,2.639,10.934,14.628,10.934,14.628s-11.168,6.022-17.947,3.383
							c-6.779-2.64-13.953-10.076-12.016-15.05C388.986,303.682,399.3,303.055,406.079,305.695z"/>
						<path style="fill:#E6E6E6;" d="M420.941,239.736c1.433,1.063,2.91,2.149,4.632,2.616c1.722,0.467,3.77,0.182,4.94-1.165
							c1.451-1.67,1.062-4.257,0.148-6.272c-1.811-3.991-8.491-10.764-13.621-8.82C409.633,228.9,417.638,237.285,420.941,239.736z"
							/>
						<path style="fill:#EBEBEB;" d="M436.1,249.906c-0.972,1.204-2.003,2.722-1.472,4.176c0.472,1.289,2.055,1.88,3.412,1.675
							c1.357-0.205,2.538-1.01,3.665-1.793c2.615-1.815,7.975-5.625,4.553-9.188C442.703,241.073,438.148,247.368,436.1,249.906z"/>
						<path style="fill:#E0E0E0;" d="M414.225,199.2c-1.119,0.124-2.253,0.872-2.443,1.982c-0.223,1.297,0.853,2.432,1.895,3.235
							c2.597,2.001,10.4,7.401,12.141,2.191C427.464,201.686,417.674,198.819,414.225,199.2z"/>
						<g>
							<path style="fill:#E6E6E6;" d="M428.609,182.063c-1.61,0.153-3.216-0.431-4.83-0.328c-1.614,0.102-3.405,1.401-3.046,2.978
								c0.332,1.457,2.143,1.945,3.635,2.039c2.545,0.16,5.111-0.017,7.61-0.526c0.58-0.118,1.212-0.29,1.544-0.78
								c0.652-0.961-0.386-2.249-1.496-2.59c-1.111-0.34-2.364-0.227-3.373-0.803L428.609,182.063z"/>
						</g>
						<g>
							<path style="fill:#F0F0F0;" d="M444.343,193.142c1.617,0.046,3.181-0.642,4.798-0.646c1.617-0.005,3.49,1.173,3.236,2.77
								c-0.234,1.476-2.01,2.083-3.492,2.275c-2.529,0.328-5.101,0.32-7.629-0.022c-0.587-0.079-1.228-0.209-1.592-0.676
								c-0.714-0.916,0.237-2.27,1.322-2.683c1.086-0.413,2.344-0.383,3.312-1.024L444.343,193.142z"/>
						</g>
						<g>
							<path style="fill:#F0F0F0;" d="M442.751,312.255c0.399-0.337,0.851-0.683,1.374-0.68c0.693,0.005,1.245,0.659,1.373,1.34
								c0.129,0.681-0.062,1.377-0.26,2.041c-1.095,3.666-13.399,30.219-16.229,25.451c-1.673-2.819,2.439-12.155,3.653-14.797
								C435.007,320.501,438.452,315.886,442.751,312.255z"/>
						</g>
					</g>
				</g>
				<g>
					<path style="fill:#E6E6E6;" d="M435.392,183.073c0.976-2.192,2.033-4.485,3.973-5.896c1.94-1.411,5.049-1.517,6.462,0.422
						c1.58,2.168-0.001,5.463-2.421,6.618c-2.421,1.156-5.257,0.808-7.914,0.435c-0.021-0.395-0.043-0.789-0.064-1.184
						L435.392,183.073z"/>
				</g>
			</g>
			<g>
				<path style="fill:#F0F0F0;" d="M443.867,383.022L443.867,383.022c-12.949,2.612-26.612,2.612-39.561,0l0,0l-10.323-45.408
					h60.207L443.867,383.022z"/>
			</g>
		</g>
	</g>
</g>
<g id="Background_Simple" style="display:none;">
	<g style="display:inline;">
		<g>
			<path style="fill:#407BFF;" d="M435.915,292.014c2.369-17.774,0.845-36.023-5.072-52.988
				c-12.045-34.532-41.6-61.86-76.173-73.102c-19.069-6.2-35.458-5.536-54.644-0.583c-20.429,5.274-40.964,14.749-62.544,11.619
				c-20.789-3.015-37.842-17.271-55.978-27.872c-39.168-22.895-81.431-3.53-97.685,37.193
				c-17.461,43.747-3.569,95.797,26.743,131.851c30.312,36.054,74.631,57.881,120.043,70.388
				c27.466,7.564,56.061,12.097,84.461,9.849c28.4-2.247,56.687-11.608,78.828-29.535
				C417.182,349.979,431.963,321.656,435.915,292.014z"/>
		</g>
		<g style="opacity:0.9;">
			<path style="fill:#FFFFFF;" d="M435.915,292.014c2.369-17.774,0.845-36.023-5.072-52.988
				c-12.045-34.532-41.6-61.86-76.173-73.102c-19.069-6.2-35.458-5.536-54.644-0.583c-20.429,5.274-40.964,14.749-62.544,11.619
				c-20.789-3.015-37.842-17.271-55.978-27.872c-39.168-22.895-81.431-3.53-97.685,37.193
				c-17.461,43.747-3.569,95.797,26.743,131.851c30.312,36.054,74.631,57.881,120.043,70.388
				c27.466,7.564,56.061,12.097,84.461,9.849c28.4-2.247,56.687-11.608,78.828-29.535
				C417.182,349.979,431.963,321.656,435.915,292.014z"/>
		</g>
	</g>
</g>
<g id="Shadow">
	<ellipse id="_x3C_Path_x3E__359_" style="fill:#F5F5F5;" cx="250" cy="415.693" rx="193.889" ry="11.323"/>
</g>
<g id="Clock">
	<g>
		<g>
			<g>
				<path style="fill:#407BFF;" d="M369.894,102.688c0,25.299-23.83,45.796-49.116,45.796c-0.854,0-1.709-0.027-2.55-0.068
					c-24.105-1.329-43.246-21.284-43.246-45.728c0-24.431,19.141-44.399,43.246-45.728c0.841-0.041,1.696-0.068,2.55-0.068
					C346.064,56.892,369.894,77.403,369.894,102.688z"/>
				<path style="opacity:0.3;fill:#FFFFFF;" d="M364.793,102.688c0,24.444-22.474,44.399-46.566,45.728
					c-24.105-1.329-43.246-21.284-43.246-45.728c0-24.431,19.141-44.399,43.246-45.728
					C342.319,58.289,364.793,78.257,364.793,102.688z"/>
				<g style="opacity:0.8;">
					<path style="opacity:0.8;fill:#FFFFFF;" d="M357.904,102.69c0,20.296-19.787,36.75-40.083,36.75
						c-20.296,0-36.75-16.453-36.75-36.75c0-20.296,16.453-36.75,36.75-36.75C338.117,65.94,357.904,82.394,357.904,102.69z"/>
				</g>
			</g>
			<g>
				<g>
					<path style="fill:#FFFFFF;" d="M353.061,95.963l-1.809,0.044c-0.112-0.21,0.083-0.556,0.34-0.903l0.072-0.076
						c0.331-0.402,0.748-0.774,0.915-0.927l0.062-0.055l-21.457,0.517l0.611,1.029c0.333,0.578,0.519,1.223,0.535,1.872l0.143,5.928
						c0.087,3.619,4.118,6.482,8.982,6.365l1.288-0.031c3.555-0.086,6.561-1.734,7.901-4.014c0.423-0.106,0.803-0.275,1.106-0.517
						l3.376-2.648c0.502-0.396,0.777-0.913,0.764-1.445l-0.077-3.204C355.786,96.802,354.54,95.927,353.061,95.963z
						 M354.997,100.751c0.023,0.969-0.02,0.927-0.919,1.641l-1.697,1.171c-0.437,0.302-1.034-0.004-1.039-0.536
						c-0.014-1.547-0.05-4.139-0.075-5.499c0.01-0.479,0.522-0.886,1.182-0.902l0.756-0.018c0.936-0.023,1.706,0.534,1.723,1.226
						L354.997,100.751z"/>
					<g style="opacity:0.8;">
						<path style="opacity:0.8;fill:#FFFFFF;" d="M353.061,95.963l-1.809,0.044c-0.112-0.21,0.083-0.556,0.34-0.903l0.072-0.076
							c0.331-0.402,0.748-0.774,0.915-0.927l0.062-0.055l-21.457,0.517l0.611,1.029c0.333,0.578,0.519,1.223,0.535,1.872
							l0.143,5.928c0.087,3.619,4.118,6.482,8.982,6.365l1.288-0.031c3.555-0.086,6.561-1.734,7.901-4.014
							c0.423-0.106,0.803-0.275,1.106-0.517l3.376-2.648c0.502-0.396,0.777-0.913,0.764-1.445l-0.077-3.204
							C355.786,96.802,354.54,95.927,353.061,95.963z M354.997,100.751c0.023,0.969-0.02,0.927-0.919,1.641l-1.697,1.171
							c-0.437,0.302-1.034-0.004-1.039-0.536c-0.014-1.547-0.05-4.139-0.075-5.499c0.01-0.479,0.522-0.886,1.182-0.902l0.756-0.018
							c0.936-0.023,1.706,0.534,1.723,1.226L354.997,100.751z"/>
					</g>
				</g>
				<path style="opacity:0.8;fill:#FFFFFF;" d="M345.978,87.165c0,1.862-2.247,3.371-5.02,3.371c-2.772,0-5.02-1.509-5.02-3.371
					s2.247-3.371,5.02-3.371C343.73,83.794,345.978,85.303,345.978,87.165z"/>
				<circle style="opacity:0.8;fill:#FFFFFF;" cx="334.128" cy="79.635" r="1.878"/>
			</g>
		</g>
		<g>
			<g>
				<path style="fill:#407BFF;" d="M321.745,107.673c-1.513,1.513-3.965,1.513-5.478,0c-1.513-1.513-1.513-3.965,0-5.478
					c1.513-1.513,3.965-1.513,5.478,0C323.257,103.707,323.257,106.16,321.745,107.673z"/>
			</g>
			<g>
				<polygon style="fill:#407BFF;" points="317.684,105.628 317,83.068 318.274,80.757 319.327,82.997 319.947,103.436 
					345.604,109.365 347.325,110.401 345.146,111.669 				"/>
			</g>
		</g>
	</g>
</g>
<g id="Character">
	<g>
		<g>
			<path style="fill:#263238;" d="M212.152,388.999c0,0-107.558,34.29,63.667,29.723
				C275.819,418.722,251.48,384.828,212.152,388.999z"/>
			<g>
				<path style="fill:#407BFF;" d="M347.462,298.309c-15.397-20.582-49.52-18.771-69.85-35.072
					c-12.089-9.7-17.791-24.575-26.72-36.962c-16.83-23.341-50.096-42.697-81.057-33.439c-9.715,2.896-18.422,8.893-24.92,16.312
					c-9.788,11.18-15.055,25.234-18.293,39.299c-6.12,26.589-5.551,54.357,1.637,80.353c5.269,19.048,14.271,37.435,28.603,51.547
					c7.119,7.014,15.397,12.827,24.283,17.745l0.002,0.01c0.05,0.031,0.1,0.063,0.147,0.084c4.305,2.389,8.753,4.564,13.282,6.572
					c0.012,0.008,0.023,0.006,0.023,0.006c2.301,1.028,4.614,2.01,6.948,2.945c21.284,8.565,44.67,14.201,67.886,11.097
					c21.33-2.861,41.53-13.189,56.454-28.131c4.892-4.891,9.219-10.251,12.941-15.977c6.718-10.274,11.484-21.676,14.101-33.435
					c0.364-1.65,0.692-3.314,0.976-4.989C356.105,323.189,355.432,308.95,347.462,298.309z"/>
				<path style="opacity:0.2;" d="M352.929,341.262c-2.617,11.759-7.384,23.161-14.101,33.435
					c-3.46-1.481-10.281-32.033-44.657-35.561c-1.426-0.146-19.272-1.703-19.677-2.785c3.767-3.208,30.908-8.349,35.533-10.533
					c18.57-8.769,35.804,4.744,40.981,12.228C351.72,339.07,352.359,340.153,352.929,341.262z"/>
				<g>
					<path style="opacity:0.2;" d="M185.741,199.704c-19.195,0.238-34.502,16.265-34.706,35.46
						c-0.36,33.977,1.153,89.772,30.596,103.483c48.688,22.674,165.304-3.55,155.244-29.295
						c-10.061-25.745-71.563-7.801-87.353-43.724C237.679,238.687,216.465,199.323,185.741,199.704z"/>
					<path style="opacity:0.2;" d="M159.615,263.758L159.615,263.758c2.495-1.517,5.717-0.937,7.558,1.329
						c5.961,7.34,7.273,18.448,2.564,26.745c13.109-3.111,18.581,21.141,11.63,30.964c4.505-6.748,6.266-16.066,2.552-23.279
						c-6.147-11.936-2.779-18.357-2.779-18.357c-4.558-0.821-6.537-5.195-8.999-10.672c-2.479-5.514-7.281-8.393-3.603-14.844
						c0,0-6.326-1.505-9.037-8.373c-2.604-6.596-2.032-10.581-5.428-8.944C154.075,238.326,164.218,258.397,159.615,263.758z"/>
					<path style="opacity:0.2;" d="M177.564,250.061L177.564,250.061c2.468-1.56,5.7-1.037,7.58,1.197
						c6.089,7.235,7.594,18.318,3.031,26.696c13.053-3.34,18.947,20.814,12.169,30.756c4.387-6.825,5.985-16.173,2.145-23.32
						c-6.354-11.827-1.204-15.01-1.204-15.01c-4.572-0.741-8.521-8.376-11.078-13.809c-2.574-5.469-7.426-8.265-3.862-14.779
						c0,0-6.351-1.395-9.182-8.214c-2.719-6.549-2.216-10.544-5.583-8.848C171.58,224.73,182.072,244.62,177.564,250.061z"/>
					<path style="opacity:0.2;" d="M201.651,317.544c-7.324,5.792-14.641,13.139-15.331,22.451
						c24.264-24.333,54.492-42.676,87.279-52.964c-5.509-2.039-11.146,0.243-16.532,1.63c-6.762,1.741-13.406,4.484-19.771,7.323
						C224.581,301.655,212.571,308.908,201.651,317.544z"/>
				</g>
			</g>
			<g>
				<path style="opacity:0.2;fill:#FFFFFF;" d="M145.006,329.498c-0.072,2.157,0.584,4.332,1.835,6.091
					c0.822,1.155,2.194,2.208,3.548,1.787c1.414-0.44,1.903-2.157,2.145-3.617c0.274-1.66,0.511-3.36,0.234-5.02
					c-0.277-1.66-1.146-3.3-2.615-4.121c-1.469-0.821-3.566-0.58-4.541,0.792c-0.811,1.141-0.694,2.675-0.542,4.067"/>
				<path style="opacity:0.2;fill:#FFFFFF;" d="M221.357,379.375c6.317,1.209,12.813,2.115,19.161,1.083
					c2.154-0.35-4.249-2.706-8.162-3.693c-17.985-4.534-43.57-10.88-69.466-36.832c-6.195-6.209-3.331,5.544-1.072,8.435
					c8.9,11.39,22.017,19.133,35.334,24.247C204.983,375.622,213.123,377.798,221.357,379.375z"/>
			</g>
			<path style="opacity:0.2;" d="M206.59,332.853c7.131,5.172,16.11,8.265,24.624,6.003c-7.164-3.805-12.136-10.82-15.429-18.233
				c-3.293-7.413-5.152-15.369-7.746-23.055c-5.62-16.649-14.777-32.094-26.688-45.013c-1.267-1.374-11.083-24.671-12.935-24.922
				c-2.113-0.285-6.281,12.315-0.179,24.566c0,0,5.072-0.32,8.756,13.165c2.945,10.779,0.191,14.052,0.191,14.052
				c1.106,2.196,3.358-4.132,10.115,10.878c6.114,13.581,4.199,30.004,4.199,30.004C196.449,330.569,201.532,329.185,206.59,332.853
				z"/>
			<g>
				<g>
					<path style="fill:#407BFF;" d="M353.207,291.038c-0.194,0.044-0.405-0.026-0.532-0.196c-1.855-2.48-4.008-4.678-6.582-6.721
						c-0.225-0.178-0.263-0.505-0.084-0.731c0.179-0.226,0.506-0.263,0.731-0.084c2.645,2.098,4.859,4.359,6.768,6.912
						c0.172,0.23,0.125,0.556-0.105,0.728C353.343,290.992,353.275,291.022,353.207,291.038z"/>
				</g>
				<g>
					<path style="fill:#407BFF;" d="M340.477,280.162c-0.122,0.028-0.255,0.012-0.372-0.056c-7.355-4.191-16.195-6.962-24.745-9.642
						c-11.49-3.602-23.372-7.326-32.445-14.601c-0.224-0.18-0.26-0.507-0.08-0.731c0.179-0.226,0.507-0.259,0.731-0.081
						c8.92,7.152,20.706,10.846,32.105,14.42c8.602,2.696,17.496,5.485,24.948,9.731c0.25,0.142,0.337,0.459,0.194,0.709
						C340.739,280.045,340.614,280.131,340.477,280.162z"/>
				</g>
			</g>
		</g>
		<g>
			<g>
				<g>
					<g>
						<path style="fill:#407BFF;" d="M272.553,211.337c6.353-4.582,2.46-11.124-5.301-13.554c-0.023-0.007-0.049-0.011-0.073-0.01
							c-14.065,0.423-27.729,2.871-47.199,1.751c-6.217-0.357,3.917,8.381,4.366,14.593c0.279,3.848-0.734,7.704,3.436,7.63
							C241.514,221.505,272.553,211.337,272.553,211.337z"/>
					</g>
					<g>
						<defs>
							<path id="XMLID_1_" d="M272.553,211.337c6.353-4.582,2.46-11.124-5.301-13.554c-0.023-0.007-0.049-0.011-0.073-0.01
								c-14.065,0.423-27.729,2.871-47.199,1.751c-6.217-0.357,3.917,8.381,4.366,14.593c0.279,3.848-0.734,7.704,3.436,7.63
								C241.514,221.505,272.553,211.337,272.553,211.337z"/>
						</defs>
						<use xlink:href="#XMLID_1_"  style="overflow:visible;opacity:0.7;fill:#FFFFFF;"/>
						<clipPath id="XMLID_00000072280522471335208130000016469603833898119299_">
							<use xlink:href="#XMLID_1_"  style="overflow:visible;opacity:0.7;"/>
						</clipPath>
						
							<path style="opacity:0.1;clip-path:url(#XMLID_00000072280522471335208130000016469603833898119299_);enable-background:new    ;" d="
							M227.42,215.311c1.328,0.271,33.883-0.498,37.781-1.688c3.898-1.19-24.018,8.671-37.418,8.125
							C214.383,221.202,227.42,215.311,227.42,215.311z"/>
					</g>
				</g>
				<g id="_x3C_Group_x3E__1_">
					<g>
						<g>
							<path style="fill:#407BFF;" d="M252.072,279.907L252.072,279.907c-9.364,4.826-19.481,8.135-29.918,9.785l-22.47,3.553
								c-1.529-4.436-7.13-13.687-17.477-38.427c-4.018-12.725-8.555-16.038-8.668-36.582c-0.016-0.035-0.031-0.07-0.047-0.105
								c-1.378-3.181,0.276-6.894,3.693-8.294l0.117-0.029c3.16-1.273,7.147-2.766,11.127-3.96c7.58-2.338,15.28-4.274,23.064-5.798
								c2.621-0.389,5.261-0.62,7.903-0.694c3.716-0.221,7.199,1.493,9.075,4.464C234.407,213.428,243.907,233.202,252.072,279.907z
								"/>
						</g>
						<g style="opacity:0.7;">
							<path style="fill:#FFFFFF;" d="M252.072,279.907L252.072,279.907c-9.364,4.826-19.481,8.135-29.918,9.785l-22.47,3.553
								c-1.529-4.436-7.13-13.687-17.477-38.427c-4.018-12.725-8.555-16.038-8.668-36.582c-0.016-0.035-0.031-0.07-0.047-0.105
								c-1.378-3.181,0.276-6.894,3.693-8.294l0.117-0.029c3.16-1.273,7.147-2.766,11.127-3.96c7.58-2.338,15.28-4.274,23.064-5.798
								c2.621-0.389,5.261-0.62,7.903-0.694c3.716-0.221,7.199,1.493,9.075,4.464C234.407,213.428,243.907,233.202,252.072,279.907z
								"/>
						</g>
					</g>
					<path style="opacity:0.1;enable-background:new    ;" d="M192.928,270.84c-0.543-0.142,0.092,4.711,7.431,8.054
						c7.339,3.343,39.488-13.977,42.346-20.673C242.706,258.221,210.338,275.382,192.928,270.84z"/>
					<g>
						<path style="opacity:0.1;enable-background:new    ;" d="M193.289,262.363c-3.815-11.826-8.702-23.576-12.426-32.071
							c0.045-0.164,0.107-0.323,0.184-0.474c1.277-2.922,5.239-1.734,10.21,4.209c2.065,2.469,3.748,5.229,5.166,8.118
							c2.381,4.853,7.767,14.482,7.89,16.285C204.824,265.913,199.093,269.209,193.289,262.363z"/>
					</g>
					<g>
						<path style="fill:#F7978D;" d="M204.824,208.341c-11.266,3.499-17.146-2.309-17.146-2.309
							c3.754-6.271-1.575-19.314-5.15-26.317l7.451,3.566l10.156,4.86c0.041,1.187,0.147,2.374,0.323,3.547
							c0.122,0.859,0.311,1.695,0.571,2.486l0,0.032l0.046,0.134c1.146,3.383,3.704,5.844,9.393,5.765
							C210.47,200.104,214.419,205.317,204.824,208.341z"/>
						<path style="opacity:0.2;enable-background:new    ;" d="M200.136,188.14c0.041,1.187,0.147,2.374,0.323,3.547
							c0.122,0.859,0.311,1.695,0.571,2.486l0,0.032l0.046,0.134c-3.292,0.128-8.258-2.131-9.53-5.225
							c-0.422-1.014-0.729-2.068-0.929-3.157L200.136,188.14z"/>
					</g>
					<g>
						<path style="fill:#407BFF;" d="M185.126,205.768l3.193-2.184c4.792,2.848,10.182,4.543,15.742,4.948
							c-1.836,2.043-3.023,4.586-3.41,7.305C187.443,214.767,185.126,205.768,185.126,205.768z"/>
						<path style="fill:#407BFF;" d="M210.274,199.473l-3.458,0.138c0,0,0.393,7.164-2.742,8.974
							c6.47,0.803,8.176,3.467,8.176,3.467C220.04,207.18,210.274,199.473,210.274,199.473z"/>
					</g>
					<g style="opacity:0.9;">
						<path style="fill:#FFFFFF;" d="M185.126,205.768l3.193-2.184c4.792,2.848,10.182,4.543,15.742,4.948
							c-1.836,2.043-3.023,4.586-3.41,7.305C187.443,214.767,185.126,205.768,185.126,205.768z"/>
						<path style="fill:#FFFFFF;" d="M210.274,199.473l-3.458,0.138c0,0,0.393,7.164-2.742,8.974
							c6.47,0.803,8.176,3.467,8.176,3.467C220.04,207.18,210.274,199.473,210.274,199.473z"/>
					</g>
					<g>
						<g>
							<path style="fill:#263238;" d="M198.534,170.661c0,0,4.459,2.742,5.999-2.849c-4.391-3.422-2.983-4.659-4.541-8.081
								c-1.536-4.161-5.233-7.143-9.625-7.762l-3.433,1.804C175.675,162.336,198.534,170.661,198.534,170.661z"/>
							<path style="fill:#F7978D;" d="M173.159,169.894c-1.669-7.379,2.959-14.714,10.338-16.384
								c10.713-2.702,21.381,8.554,25.328,17.198c1.187,2.475,1.593,5.252,1.164,7.963c-1.167,7.377-8.094,12.412-15.472,11.244
								c-7.525-1.093-11.171-5.98-18.075-13.766C174.82,174.387,173.687,172.23,173.159,169.894z"/>
							<g>
								<g>
									<defs>
										<path id="XMLID_4_" d="M204.951,173.579c0,0-2.798,0.54-9.833,3.872c1.851,1.991,4.223,3.178,7.832,1.47
											c1.886-0.659,2.84-2.898,2.132-5C205.042,173.805,204.999,173.691,204.951,173.579z"/>
									</defs>
									<use xlink:href="#XMLID_4_"  style="overflow:visible;fill:#263238;"/>
									<clipPath id="XMLID_00000154394279736064497890000002585175248423175097_">
										<use xlink:href="#XMLID_4_"  style="overflow:visible;"/>
									</clipPath>
									<path style="clip-path:url(#XMLID_00000154394279736064497890000002585175248423175097_);fill:#FF5652;" d="
										M200.582,177.939c1.349-0.741,2.901-0.985,4.436-0.696c-0.456,0.806-1.136,1.425-1.947,1.775
										c-1.345,0.744-2.895,0.987-4.427,0.694C199.09,178.9,199.768,178.279,200.582,177.939z"/>
								</g>
								<path style="fill:#FFFFFF;" d="M204.602,173.667c0.114,0.66-0.114,1.315-0.592,1.698c-2.094,0.977-4.268,1.76-6.499,2.34
									c-0.698,0.243-1.481,0.083-2.088-0.426C198.38,175.812,201.449,174.605,204.602,173.667z"/>
							</g>
							<path style="fill:#263238;" d="M185.595,186.459c0,0-0.516-11.075-2.318-13.852c-1.864-3.466-5.651-5.382-9.863-4.989
								l-3.051,2.399C158.694,183.444,185.595,186.459,185.595,186.459z"/>
							<path style="fill:#FF5652;" d="M201.35,171.948c1.306-0.527,2.313-1.604,2.753-2.942c-2.709-0.746-5.303-1.857-7.714-3.3
								L201.35,171.948z"/>
							<path style="fill:#F7978D;" d="M177.619,178.305c2.113-1.52,6.024,0.09,8.068,1.685c2.273,1.785,2.626,4.369-0.095,5.047
								c-2.212,0.439-4.508,0.099-6.498-0.963C176.583,182.743,175.506,179.824,177.619,178.305z"/>
							<path style="fill:#263238;" d="M191.005,168.267c0.45-0.322,1.288,0.018,1.755,0.626c0.466,0.608,0.527,1.406,0.086,1.738
								c-0.441,0.331-1.175,0.006-1.746-0.616C190.58,169.348,190.555,168.589,191.005,168.267z"/>
							<path style="fill:#263238;" d="M198.372,162.274c0.45-0.322,1.225-0.051,1.746,0.616c0.521,0.667,0.59,1.476,0.14,1.797
								c-0.45,0.322-1.234,0.041-1.755-0.626C197.992,163.404,197.923,162.596,198.372,162.274z"/>
							<path style="fill:#263238;" d="M195.101,160.326c0.16,0.039,0.329,0.001,0.457-0.104c0.909-0.909,2.184-1.352,3.461-1.203
								c0.259,0.062,0.519-0.098,0.581-0.357c0.002-0.008,0.003-0.016,0.005-0.024c0.048-0.265-0.119-0.523-0.381-0.586l0,0
								c-1.593-0.226-3.2,0.309-4.34,1.445c-0.194,0.192-0.202,0.503-0.018,0.704C194.934,160.259,195.014,160.302,195.101,160.326z
								"/>
							<path style="fill:#263238;" d="M187.889,168.459c0.151-0.068,0.26-0.202,0.296-0.364c0.158-1.276,0.891-2.41,1.989-3.077
								c0.243-0.111,0.349-0.396,0.239-0.639c-0.004-0.008-0.007-0.015-0.011-0.022c-0.125-0.239-0.415-0.339-0.661-0.228l0,0
								c-1.395,0.802-2.333,2.212-2.534,3.809c-0.035,0.271,0.15,0.52,0.419,0.566C187.717,168.509,187.807,168.493,187.889,168.459
								z"/>
						</g>
						<g>
							<path style="fill:#263238;" d="M195.092,155.438c-0.484-1.126-0.776-3.912-2.133-5.349c-1.357-1.437-3.351-2.25-5.327-2.171
								c-2.948,0.119-5.467,2.055-7.765,3.906c-0.543,0.437-1.098,0.887-1.455,1.486c-0.357,0.599-0.481,1.386-0.131,1.989
								c0.355,0.609,1.113,0.888,1.817,0.865c0.704-0.023,5.817-1.227,8.077-1.467C189.126,154.594,193.11,154.31,195.092,155.438z"
								/>
							<g>
								<path style="fill:#263238;" d="M164.219,164.752c-2.065,4.301-0.141,10.609,3.368,13.553
									c1.475,1.237,4.484,3.087,4.484,3.087l4.105-7.391c2.16-2.907,3.004-6.51,2.754-10.124
									c-0.077-1.107,0.062-2.228,0.429-3.276c0.88-2.516,3.05-4.54,5.62-5.246c0.966-0.265,2.246-0.662,2.205-1.663
									c-0.045-1.085-2.097-1.97-3.465-2.346C178.339,149.868,170.571,151.522,164.219,164.752z"/>
								<path style="opacity:0.2;" d="M178.912,163.323c0.312-5.183,3.075-7.036,7.276-8.382c-0.541-0.896-1.453-1.56-2.472-1.8
									C179.273,152.096,178.036,160.128,178.912,163.323z"/>
								<path style="fill:#263238;" d="M187.505,153.46c0.476,0.16,0.875,0.491,1.223,0.852c1.796,1.861,2.438,4.595,2.332,7.179
									c0.526-1.586,0.418-3.313,0.143-4.96c-0.174-1.04-0.417-2.085-0.928-3.008c-0.51-0.923-1.319-1.719-2.328-2.023
									c-1.01-0.304-2.219-0.031-2.863,0.805c-0.395,0.512-0.766,1.891,0.083,2.046C185.958,154.496,186.32,153.061,187.505,153.46
									z"/>
							</g>
						</g>
					</g>
					<g>
						<g>
							<path style="fill:#407BFF;" d="M186.314,224.389c0.498,1.289,1.157,2.873,1.765,4.35l1.897,4.484
								c1.325,2.961,2.644,5.9,4.067,8.775c1.423,2.875,2.898,5.676,4.507,8.297c1.475,2.545,3.158,4.963,5.032,7.231
								c0.811,0.967,4.349-1.77,16.608-1.582c2.828-0.035,5.64-0.443,8.362-1.212c1.508-0.399,2.973-0.87,4.448-1.393l2.191-0.821
								l2.078-0.839l4.952,6.747c-0.812,0.756-1.481,1.319-2.187,1.975c-0.705,0.656-1.443,1.237-2.212,1.789
								c-1.536,1.122-3.138,2.149-4.798,3.076c-3.509,1.999-28.956,13.592-35.593,9.941c-6.565-4.991-14.913-18.657-18.335-25.39
								c-1.702-3.247-3.27-6.445-4.692-9.681c-0.735-1.684-1.394-3.268-2.067-4.945c-0.119-0.296-0.361-0.9-0.683-1.705
								c-3.241-8.093-4.15-17.494,3.484-22.684l5.2-2.018L186.314,224.389z"/>
						</g>
						<path style="opacity:0.7;fill:#FFFFFF;" d="M186.314,224.389c0.498,1.289,1.157,2.873,1.765,4.35l1.897,4.484
							c1.325,2.961,2.644,5.9,4.067,8.775c1.423,2.875,2.898,5.676,4.507,8.297c1.475,2.545,3.158,4.963,5.032,7.231
							c0.811,0.967,4.349-1.77,16.608-1.582c2.828-0.035,5.64-0.443,8.362-1.212c1.508-0.399,2.973-0.87,4.448-1.393l2.191-0.821
							l2.078-0.839l4.952,6.747c-0.812,0.756-1.481,1.319-2.187,1.975c-0.705,0.656-1.443,1.237-2.212,1.789
							c-1.536,1.122-3.138,2.149-4.798,3.076c-3.509,1.999-28.956,13.592-35.593,9.941c-6.565-4.991-14.913-18.657-18.335-25.39
							c-1.702-3.247-3.27-6.445-4.692-9.681c-0.735-1.684-1.394-3.268-2.067-4.945c-0.119-0.296-0.361-0.9-0.683-1.705
							c-3.241-8.093-4.15-17.494,3.484-22.684l5.2-2.018L186.314,224.389z"/>
					</g>
					<g>
						<g>
							<g>
								<path style="fill:#F7978D;" d="M243.973,248.895c1.119,0.614,2.756,0.79,3.593-0.157c1.575-1.609,2.753-3.939,2.137-6.138
									c-2.447-2.985-4.143,2.046-5.516,3.269C243.338,246.661,242.743,248.226,243.973,248.895z"/>
							</g>
							<g>
								<g>
									<g>
										<path style="fill:#407BFF;" d="M248.585,245.174c0.127,0.464,0.324,0.901,0.552,1.332
											c0.328,0.627,0.682,1.226,1.125,1.783c0.6,0.719,1.286,1.331,2.072,1.854c0.025,0.016,0.493,0.294,0.521,0.321
											c0.467,0.322,0.969,0.559,1.482,0.793c0.992,0.466,2.029,0.791,3.126,0.85c0.223,0.016,0.376,0.113,0.514,0.289
											c0.163,0.237,0.363,0.444,0.545,0.666c0.153,0.195,0.305,0.38,0.437,0.58c0.188,0.297,0.423,0.518,0.76,0.65
											c0.616,0.255,1.267,0.327,1.907,0.347c1.714,0.073,3.407-0.09,5.074-0.466c0.867-0.185,1.722-0.378,2.557-0.654
											c0.909-0.293,1.795-0.635,2.652-1.058c0.679-0.339,1.343-0.697,1.904-1.218c0.236-0.217,0.435-0.449,0.515-0.773
											c0.038-0.173,0.036-0.326,0.087-0.49c0.112-0.474,0.224-0.948,0.326-1.42c0.165-0.727,0.272-1.463,0.369-2.197
											c0.102-0.713,0.212-1.439,0.236-2.156c0.02-0.738,0.062-1.471,0.048-2.212c-0.018-1.244-0.08-2.49-0.155-3.743
											c-0.043-0.581-0.16-1.245-0.227-1.832c-0.083-0.463-0.168-0.937-0.385-1.369c-0.146-0.307-0.355-0.555-0.633-0.766
											c-0.762-0.562-1.615-0.895-2.527-1.105c-0.856-0.201-1.733-0.255-2.607-0.244c-0.371,0.007-0.73-0.032-1.098-0.015
											c-6.3,0.228-10.442,2.4-11.102,2.724c-0.689,0.342-1.364,0.702-2.009,1.143c-0.566,0.402-1.054,0.862-1.506,1.38
											c-0.328,0.392-0.617,0.807-0.766,1.312c-0.056,0.188-0.079,0.379-0.089,0.579c-0.023,0.235-0.021,0.246-0.241,0.241
											c-1.283-0.006-2.35,0.454-3.065,1.557c-0.266,0.421-0.397,0.911-0.47,1.409
											C248.431,243.906,248.409,244.535,248.585,245.174z M257.368,240.761c-0.78-0.01-1.551-0.077-2.303-0.258
											c-0.186-0.046-0.377-0.068-0.535-0.186c0,0,0.171-0.696,0.752-1.276c0.233-0.228,0.479-0.448,0.743-0.638
											c0.459-0.344,0.95-0.641,1.462-0.899c0.776-0.394,1.619-0.738,2.439-1.032c0.81-0.292,1.592-0.513,2.432-0.724
											c0.766-0.195,1.388-0.302,2.169-0.434c0.931-0.145,2.02-0.27,2.956-0.295c1.011-0.031,2.013-0.005,3.009,0.186
											c0.815,0.167,1.68,0.41,2.32,0.966c-0.016,0.025-0.035,0.041-0.051,0.066c-0.061,0.068-0.122,0.137-0.186,0.195
											c-0.17,0.17-0.355,0.321-0.542,0.462c-0.72,0.546-1.521,0.978-2.348,1.34c-0.189,0.086-0.377,0.173-0.568,0.249
											c-0.11,0.047-0.21,0.091-0.322,0.127c-0.62,0.26-1.252,0.469-1.886,0.666c-0.614,0.193-1.24,0.378-1.878,0.511
											c-0.49,0.111-0.975,0.242-1.464,0.352c-0.042,0.01-0.073,0.017-0.107,0.013c-0.008,0.013-0.031,0.007-0.052,0.012
											l-0.271,0.061c-0.653,0.115-1.308,0.218-1.969,0.302c-0.582,0.088-1.165,0.175-1.757,0.221
											C258.736,240.803,258.05,240.772,257.368,240.761z M251.501,244.067c0.053-0.636,0.351-1.065,0.942-1.308
											c0.05-0.022,0.214-0.07,0.412-0.115c0.329,0.922,0.71,1.789,1.071,2.66c0.468,1.154,1.023,2.255,1.589,3.354
											c0.169,0.312,0.639,1.181,1.017,1.501c-0.112-0.062-0.622-0.33-0.77-0.407c-0.765-0.43-1.431-1.002-2.051-1.618
											c-0.633-0.623-1.253-1.283-1.693-2.071C251.681,245.45,251.437,244.804,251.501,244.067z"/>
										<path style="opacity:0.8;fill:#FFFFFF;" d="M248.585,245.174c0.127,0.464,0.324,0.901,0.552,1.332
											c0.328,0.627,0.682,1.226,1.125,1.783c0.6,0.719,1.286,1.331,2.072,1.854c0.025,0.016,0.493,0.294,0.521,0.321
											c0.467,0.322,0.969,0.559,1.482,0.793c0.992,0.466,2.029,0.791,3.126,0.85c0.223,0.016,0.376,0.113,0.514,0.289
											c0.163,0.237,0.363,0.444,0.545,0.666c0.153,0.195,0.305,0.38,0.437,0.58c0.188,0.297,0.423,0.518,0.76,0.65
											c0.616,0.255,1.267,0.327,1.907,0.347c1.714,0.073,3.407-0.09,5.074-0.466c0.867-0.185,1.722-0.378,2.557-0.654
											c0.909-0.293,1.795-0.635,2.652-1.058c0.679-0.339,1.343-0.697,1.904-1.218c0.236-0.217,0.435-0.449,0.515-0.773
											c0.038-0.173,0.036-0.326,0.087-0.49c0.112-0.474,0.224-0.948,0.326-1.42c0.165-0.727,0.272-1.463,0.369-2.197
											c0.102-0.713,0.212-1.439,0.236-2.156c0.02-0.738,0.062-1.471,0.048-2.212c-0.018-1.244-0.08-2.49-0.155-3.743
											c-0.043-0.581-0.16-1.245-0.227-1.832c-0.083-0.463-0.168-0.937-0.385-1.369c-0.146-0.307-0.355-0.555-0.633-0.766
											c-0.762-0.562-1.615-0.895-2.527-1.105c-0.856-0.201-1.733-0.255-2.607-0.244c-0.371,0.007-0.73-0.032-1.098-0.015
											c-6.3,0.228-10.442,2.4-11.102,2.724c-0.689,0.342-1.364,0.702-2.009,1.143c-0.566,0.402-1.054,0.862-1.506,1.38
											c-0.328,0.392-0.617,0.807-0.766,1.312c-0.056,0.188-0.079,0.379-0.089,0.579c-0.023,0.235-0.021,0.246-0.241,0.241
											c-1.283-0.006-2.35,0.454-3.065,1.557c-0.266,0.421-0.397,0.911-0.47,1.409
											C248.431,243.906,248.409,244.535,248.585,245.174z M257.368,240.761c-0.78-0.01-1.551-0.077-2.303-0.258
											c-0.186-0.046-0.377-0.068-0.535-0.186c0,0,0.171-0.696,0.752-1.276c0.233-0.228,0.479-0.448,0.743-0.638
											c0.459-0.344,0.95-0.641,1.462-0.899c0.776-0.394,1.619-0.738,2.439-1.032c0.81-0.292,1.592-0.513,2.432-0.724
											c0.766-0.195,1.388-0.302,2.169-0.434c0.931-0.145,2.02-0.27,2.956-0.295c1.011-0.031,2.013-0.005,3.009,0.186
											c0.815,0.167,1.68,0.41,2.32,0.966c-0.016,0.025-0.035,0.041-0.051,0.066c-0.061,0.068-0.122,0.137-0.186,0.195
											c-0.17,0.17-0.355,0.321-0.542,0.462c-0.72,0.546-1.521,0.978-2.348,1.34c-0.189,0.086-0.377,0.173-0.568,0.249
											c-0.11,0.047-0.21,0.091-0.322,0.127c-0.62,0.26-1.252,0.469-1.886,0.666c-0.614,0.193-1.24,0.378-1.878,0.511
											c-0.49,0.111-0.975,0.242-1.464,0.352c-0.042,0.01-0.073,0.017-0.107,0.013c-0.008,0.013-0.031,0.007-0.052,0.012
											l-0.271,0.061c-0.653,0.115-1.308,0.218-1.969,0.302c-0.582,0.088-1.165,0.175-1.757,0.221
											C258.736,240.803,258.05,240.772,257.368,240.761z M251.501,244.067c0.053-0.636,0.351-1.065,0.942-1.308
											c0.05-0.022,0.214-0.07,0.412-0.115c0.329,0.922,0.71,1.789,1.071,2.66c0.468,1.154,1.023,2.255,1.589,3.354
											c0.169,0.312,0.639,1.181,1.017,1.501c-0.112-0.062-0.622-0.33-0.77-0.407c-0.765-0.43-1.431-1.002-2.051-1.618
											c-0.633-0.623-1.253-1.283-1.693-2.071C251.681,245.45,251.437,244.804,251.501,244.067z"/>
										<path style="opacity:0.7;fill:#FFFFFF;" d="M253.947,240.948c1.686,0.973,5.042,1.049,10.291-0.135
											c5.249-1.184,8.247-2.694,9.351-4.297c0.731-1.061,0.068-2.253-0.753-2.888c-0.441-0.195-0.903-0.341-1.38-0.451
											c-0.857-0.195-1.729-0.259-2.607-0.243c-0.366,0.005-0.733-0.032-1.099-0.019c-6.295,0.233-10.445,2.409-11.095,2.731
											c-0.692,0.342-1.374,0.697-2.011,1.141c-0.338,0.237-0.651,0.497-0.943,0.781l0,0
											C252.781,238.633,252.708,240.234,253.947,240.948z M254.52,240.317c0,0,0.168-0.697,0.749-1.268
											c0.234-0.231,0.476-0.449,0.74-0.645c0.464-0.345,0.954-0.643,1.469-0.901c0.77-0.388,1.616-0.738,2.431-1.027
											c0.816-0.288,1.595-0.512,2.434-0.722c0.769-0.194,1.389-0.307,2.174-0.432c0.928-0.149,2.021-0.271,2.957-0.3
											c1.004-0.03,2.009-0.003,3.003,0.191c0.813,0.159,1.678,0.41,2.318,0.964c-0.016,0.02-0.031,0.039-0.047,0.06
											c-0.059,0.075-0.121,0.144-0.188,0.205c-0.164,0.167-0.348,0.317-0.536,0.46c-0.725,0.547-1.521,0.97-2.347,1.339
											c-0.189,0.086-0.382,0.168-0.575,0.249c-0.106,0.044-0.212,0.088-0.319,0.129c-0.619,0.25-1.248,0.467-1.883,0.665
											c-0.619,0.194-1.245,0.371-1.88,0.51c-0.493,0.108-0.978,0.245-1.47,0.347c-0.034,0.008-0.066,0.015-0.099,0.021
											c-0.016,0.005-0.034,0.008-0.05,0.011c-0.076,0.015-0.153,0.03-0.228,0.044c-0.016,0.004-0.033,0.007-0.051,0.01
											c-0.651,0.121-1.306,0.217-1.963,0.31c-0.584,0.082-1.168,0.168-1.755,0.213c-0.678,0.054-1.37,0.031-2.052,0.017
											c-0.777-0.014-1.546-0.074-2.302-0.26C254.868,240.462,254.673,240.438,254.52,240.317z"/>
										<g>
											<g>
												<path style="fill:none;" d="M254.551,240.31c0,0,0.168-0.697,0.75-1.268c0.234-0.231,0.476-0.45,0.74-0.645
													c0.464-0.345,0.954-0.643,1.469-0.901c0.77-0.387,1.616-0.738,2.431-1.027c0.816-0.288,1.596-0.512,2.434-0.723
													c0.769-0.193,1.389-0.307,2.174-0.431c0.928-0.149,2.021-0.272,2.958-0.301c1.004-0.03,2.009-0.003,3.003,0.191
													c0.813,0.159,1.678,0.41,2.318,0.963c-0.016,0.021-0.031,0.04-0.047,0.06c-0.059,0.075-0.121,0.143-0.188,0.205
													c-0.164,0.167-0.348,0.317-0.536,0.46c-0.725,0.548-1.521,0.97-2.347,1.339c-0.19,0.086-0.382,0.168-0.576,0.249
													c-0.106,0.044-0.212,0.088-0.319,0.129c-0.619,0.25-1.248,0.467-1.883,0.665c-0.619,0.194-1.245,0.371-1.881,0.509
													c-0.493,0.108-0.977,0.245-1.47,0.347c-0.034,0.008-0.066,0.015-0.099,0.021c-0.016,0.005-0.034,0.008-0.05,0.011
													c-0.075,0.015-0.153,0.03-0.228,0.044c-0.016,0.004-0.033,0.007-0.05,0.01c-0.651,0.12-1.306,0.217-1.963,0.31
													c-0.584,0.082-1.168,0.168-1.755,0.213c-0.678,0.054-1.37,0.03-2.052,0.017c-0.777-0.014-1.546-0.074-2.302-0.26
													C254.899,240.455,254.705,240.431,254.551,240.31z"/>
											</g>
											<g>
												<path style="fill:none;" d="M254.551,240.31c0,0,0.168-0.697,0.75-1.268c0.234-0.231,0.476-0.45,0.74-0.645
													c0.464-0.345,0.954-0.643,1.469-0.901c0.77-0.387,1.616-0.738,2.431-1.027c0.816-0.288,1.596-0.512,2.434-0.723
													c0.769-0.193,1.389-0.307,2.174-0.431c0.928-0.149,2.021-0.272,2.958-0.301c1.004-0.03,2.009-0.003,3.003,0.191
													c0.813,0.159,1.678,0.41,2.318,0.963c-0.016,0.021-0.031,0.04-0.047,0.06c-0.059,0.075-0.121,0.143-0.188,0.205
													c-0.164,0.167-0.348,0.317-0.536,0.46c-0.725,0.548-1.521,0.97-2.347,1.339c-0.19,0.086-0.382,0.168-0.576,0.249
													c-0.106,0.044-0.212,0.088-0.319,0.129c-0.619,0.25-1.248,0.467-1.883,0.665c-0.619,0.194-1.245,0.371-1.881,0.509
													c-0.493,0.108-0.977,0.245-1.47,0.347c-0.034,0.008-0.066,0.015-0.099,0.021c-0.016,0.005-0.034,0.008-0.05,0.011
													c-0.075,0.015-0.153,0.03-0.228,0.044c-0.016,0.004-0.033,0.007-0.05,0.01c-0.651,0.12-1.306,0.217-1.963,0.31
													c-0.584,0.082-1.168,0.168-1.755,0.213c-0.678,0.054-1.37,0.03-2.052,0.017c-0.777-0.014-1.546-0.074-2.302-0.26
													C254.899,240.455,254.705,240.431,254.551,240.31z"/>
											</g>
										</g>
										<g>
											<g>
												<path style="fill:#263238;" d="M254.531,240.318c0.158,0.118,0.349,0.14,0.535,0.186
													c0.752,0.181,1.523,0.248,2.303,0.258c0.681,0.011,1.367,0.042,2.045-0.012c0.592-0.046,1.174-0.133,1.757-0.221
													c0.66-0.083,1.315-0.187,1.969-0.302l0.271-0.061c0.021-0.005,0.044,0.001,0.052-0.012
													c0.034,0.003,0.065-0.004,0.107-0.013c0.49-0.11,0.975-0.242,1.464-0.352c0.638-0.133,1.264-0.318,1.878-0.511
													c0.634-0.198,1.266-0.406,1.886-0.666c0.112-0.036,0.212-0.081,0.322-0.127c0.191-0.076,0.379-0.162,0.568-0.249
													c0.827-0.362,1.628-0.794,2.348-1.34c0.187-0.141,0.372-0.292,0.542-0.462c0.064-0.058,0.125-0.127,0.186-0.195
													c0.016-0.026,0.035-0.041,0.051-0.066c-0.64-0.556-1.505-0.799-2.32-0.966c-0.996-0.191-1.998-0.217-3.009-0.186
													c-0.936,0.025-2.025,0.15-2.956,0.295c-0.78,0.132-1.402,0.24-2.169,0.434c-0.839,0.211-1.622,0.432-2.432,0.724
													c-0.82,0.295-1.663,0.638-2.439,1.032c-0.511,0.258-1.003,0.555-1.462,0.899c-0.263,0.191-0.509,0.411-0.743,0.638
													C254.702,239.622,254.531,240.318,254.531,240.318z"/>
											</g>
										</g>
										<path style="opacity:0.3;" d="M254.192,238.684c0.16-0.271,0.342-0.517,0.478-0.668c0.741-0.825,2.474-2.178,6.236-3.418
											c1.285-0.423,2.614-0.721,3.958-0.874c3.481-0.395,5.908,0.023,6.897,0.436c0.188,0.078,0.458,0.222,0.719,0.398
											c0.514,0.347,0.678,1.028,0.378,1.57c-0.064,0.087-0.132,0.165-0.204,0.237c-0.001-0.001-0.001-0.001-0.002-0.001
											c-2.377-1.657-7.739-0.842-9.49-0.518c-1.721,0.459-6.913,2.025-8.348,4.543c-0.001,0-0.001,0.001-0.001,0.002
											c-0.097-0.034-0.192-0.075-0.287-0.126C254.021,239.903,253.877,239.218,254.192,238.684z"/>
									</g>
								</g>
							</g>
						</g>
						<g>
							<path style="fill:#F7978D;" d="M253.811,245.001c0,0,1.994,4.65,1.505,5.209l-2.22,2.535c0,0-5.029,4.943-10.196,5.874
								c-1.805,0.322-3.622-0.591-4.537-2.187l-0.459-0.803c-0.199-0.361-0.359-0.74-0.471-1.142
								c-0.621-2.185,0.072-3.462,1.864-4.837l5.119-4.116c0.462-0.358,1.021-0.567,1.604-0.601l6.159-1.793
								C252.981,243.097,253.36,243.694,253.811,245.001z"/>
						</g>
						<path style="fill:#407BFF;" d="M235.191,252.517c0,0,1.757,0.982,2.718,3.109c0.961,2.128,2.125,4.774,2.125,4.774
							l2.187-1.975c0,0-0.688-3.752-2.577-5.645c-1.889-1.894-1.889-1.894-1.889-1.894S236.205,252.138,235.191,252.517z"/>
						<path style="opacity:0.9;fill:#FFFFFF;" d="M235.191,252.517c0,0,1.757,0.982,2.718,3.109
							c0.961,2.128,2.125,4.774,2.125,4.774l2.187-1.975c0,0-0.688-3.752-2.577-5.645c-1.889-1.894-1.889-1.894-1.889-1.894
							S236.205,252.138,235.191,252.517z"/>
					</g>
				</g>
				<g>
					<g>
						<g>
							<g>
								<path style="fill:#F7978D;" d="M232.541,169.876c0.431-0.774,0.559-1.91-0.095-2.495c-1.11-1.1-2.723-1.926-4.252-1.508
									c-2.081,1.686,1.404,2.884,2.247,3.842C230.988,170.307,232.071,170.727,232.541,169.876z"/>
								<g>
									<path style="fill:#407BFF;" d="M217.323,165.444c-4.973,1.882-7.974,6.156-6.692,9.542
										c1.282,3.387,6.359,4.603,11.333,2.72c4.983-1.886,7.973-6.156,6.692-9.542S222.306,163.559,217.323,165.444z
										 M219.096,170.659c-1.518,0.575-2.92,0.604-3.126,0.059c-0.206-0.545,0.864-1.451,2.382-2.025
										c1.528-0.578,2.93-0.608,3.136-0.063C221.695,169.175,220.624,170.081,219.096,170.659z"/>
									<path style="fill:#263238;" d="M212.236,176.094c0.273-0.196,0.27-0.608,0.472-0.876c0.256-0.34,0.776-0.356,1.169-0.194
										c0.393,0.162,0.715,0.458,1.086,0.665c1.231,0.687,2.981,0.172,3.644-1.072c0.12-0.226,0.212-0.474,0.391-0.656
										c0.506-0.512,1.351-0.243,2.068-0.185c1.168,0.094,2.363-0.548,2.929-1.573c0.176-0.319,0.304-0.68,0.579-0.918
										c0.591-0.512,1.522-0.217,2.258-0.48c0.756-0.27,1.177-1.081,1.367-1.861c0.1-0.41,0.159-0.832,0.238-1.247
										c-1.558-3.024-6.371-4.048-11.115-2.252c-4.066,1.539-6.81,4.675-6.976,7.62c0.05-0.104,0.097-0.21,0.167-0.305
										c-0.07,0.095-0.117,0.201-0.167,0.305c-0.037,0.657,0.05,1.305,0.285,1.923c0.124,0.328,0.294,0.63,0.486,0.916
										c0.118,0.08,0.241,0.154,0.377,0.206C211.735,176.201,212.027,176.244,212.236,176.094z M218.352,168.693
										c1.528-0.578,2.93-0.608,3.136-0.063c0.206,0.545-0.864,1.451-2.392,2.029c-1.518,0.575-2.92,0.604-3.126,0.059
										C215.764,170.174,216.834,169.268,218.352,168.693z"/>
								</g>
								<path style="fill:#F7978D;" d="M229.198,167.061l0.021,0.051c-0.055,0.011-1.558,0.311-4.702,0.175
									c-1.982-0.086-3.536,1.296-3.549,3.188l-0.004,0.673c-0.011,1.603,1.099,3.128,2.712,3.739l9.104,1.834l6.319,0.246
									l2.338-5.05L229.198,167.061z"/>
								<path style="opacity:0.3;enable-background:new    ;" d="M256.217,194.926l2.892,4.748c2.182,3.582,5.389,6.352,9.21,7.989
									l0,0c0,0,2.889,0.214,4.659-0.864C274.733,205.73,256.217,194.926,256.217,194.926z"/>
							</g>
							<path style="fill:#407BFF;" d="M238.341,177.933c0,0,23.926,35.37,31.606,33.54c7.409-1.766,15.431-8.978-29.547-41.381
								L238.341,177.933z"/>
							<path style="opacity:0.7;fill:#FFFFFF;" d="M238.341,177.933c0,0,23.926,35.37,31.606,33.54
								c7.409-1.766,15.431-8.978-29.547-41.381L238.341,177.933z"/>
						</g>
						<g>
							<path style="fill:#407BFF;" d="M238.504,178.358c0.177-1.672,0.941-3.295,2.02-4.558c0.181-0.212,0.375-0.412,0.576-0.603
								c0.211-0.286,0.456-0.549,0.726-0.776c0.259-0.218,0.557-0.382,0.861-0.535c0.092-0.087,0.159-0.149,0.159-0.149
								l-2.425-1.622c0,0-3.178,2.587-4.386,5.45c-0.358,0.849-0.443,2.041-0.455,2.842c0.506-0.042,1.008-0.12,1.515-0.143
								C237.567,178.243,238.035,178.297,238.504,178.358z"/>
							<path style="opacity:0.9;fill:#FFFFFF;" d="M238.504,178.358c0.177-1.672,0.941-3.295,2.02-4.558
								c0.181-0.212,0.375-0.412,0.576-0.603c0.211-0.286,0.456-0.549,0.726-0.776c0.259-0.218,0.557-0.382,0.861-0.535
								c0.092-0.087,0.159-0.149,0.159-0.149l-2.425-1.622c0,0-3.178,2.587-4.386,5.45c-0.358,0.849-0.443,2.041-0.455,2.842
								c0.506-0.042,1.008-0.12,1.515-0.143C237.567,178.243,238.035,178.297,238.504,178.358z"/>
						</g>
					</g>
				</g>
				<g>
					<g>
						<g>
							<polygon style="opacity:0.2;" points="385.233,357.823 388.147,359.471 394.191,350.382 391.442,348.222 							"/>
							<g>
								<g>
									<g>
										<g id="_x3C_Group_x3E__3_">
											<g>
												<g>
													<g>
														<path style="fill:#407BFF;" d="M391.908,347.503l-7.452,11.525c0,0-32.025-6.87-67.723-40.792l0.108-0.605
															c-20.517,4.977-78.82,4.454-88.36-5.861c-5.013-5.658-8.073-12.471-8.905-19.823l32.584-10.641
															c0,0,45.924,4.732,68.273,15.506C343.889,305.701,391.908,347.503,391.908,347.503z"/>
													</g>
												</g>
											</g>
										</g>
									</g>
								</g>
								<g>
									<g>
										<g>
											<g id="_x3C_Group_x3E__4_">
												<g>
													<g>
														<g>
															<path style="fill:#407BFF;" d="M391.908,347.503l-7.452,11.525c0,0-32.025-6.87-67.723-40.792l0.108-0.605
																c-20.517,4.977-78.82,4.454-88.36-5.861c-5.013-5.658-8.073-12.471-8.905-19.823l32.584-10.641
																c0,0,45.924,4.732,68.273,15.506C343.889,305.701,391.908,347.503,391.908,347.503z"/>
														</g>
													</g>
												</g>
											</g>
										</g>
									</g>
									<g>
										<defs>
											<path id="XMLID_3_" d="M391.908,347.503l-7.452,11.525c0,0-32.025-6.87-67.723-40.792l0.108-0.605
												c-20.517,4.977-78.82,4.454-88.36-5.861c-5.013-5.658-8.073-12.471-8.905-19.823l32.584-10.641
												c0,0,45.924,4.732,68.273,15.506C343.889,305.701,391.908,347.503,391.908,347.503z"/>
										</defs>
										<use xlink:href="#XMLID_3_"  style="overflow:visible;opacity:0.6;"/>
										<clipPath id="XMLID_00000033328399619390799450000011901805658015286690_">
											<use xlink:href="#XMLID_3_"  style="overflow:visible;opacity:0.6;"/>
										</clipPath>
										<path style="opacity:0.3;clip-path:url(#XMLID_00000033328399619390799450000011901805658015286690_);" d="
											M321.957,323.053c0,0,14.971,10.735,32.434,18.053c17.463,7.318,34.097,11.685,34.097,11.685l3.42-5.287
											C391.908,347.503,303.562,308.569,321.957,323.053z"/>
									</g>
									<g>
										<path style="fill:#407BFF;" d="M199.504,292.766c0,0,0.772,20.905,8.24,30.473l50.875-26.59l-0.476-1.65
											c-1.311-4.546,0.178-9.437,3.799-12.481l0,0l0,0c-3.578-0.475-7.498-0.378-10.307-3.258l0,0
											C251.636,279.259,241.976,287.912,199.504,292.766z"/>
									</g>
									<g style="opacity:0.6;">
										<path d="M199.504,292.766c0,0,0.772,20.905,8.24,30.473l50.875-26.59l-0.476-1.65c-1.311-4.546,0.178-9.437,3.799-12.481
											l0,0l0,0c-3.578-0.475-7.498-0.378-10.307-3.258l0,0C251.636,279.259,241.976,287.912,199.504,292.766z"/>
									</g>
								</g>
								<g>
									<g>
										<g id="_x3C_Group_x3E__2_">
											<g>
												<g>
													<defs>
														<polygon id="XMLID_2_" points="394.019,336.359 396.379,337.5 397.246,337.916 405.28,341.796 406.084,342.186 
															405.347,351.944 405.318,352.369 404.584,352.144 401.333,351.142 394.523,349.053 393.019,348.593 389.818,347.61 
															390.44,345.949 394.012,336.372 														"/>
													</defs>
													<use xlink:href="#XMLID_2_"  style="overflow:visible;fill:#FFC3BD;"/>
													<clipPath id="XMLID_00000072275886143826418400000017312299116212952724_">
														<use xlink:href="#XMLID_2_"  style="overflow:visible;"/>
													</clipPath>
													<polygon style="opacity:0.2;clip-path:url(#XMLID_00000072275886143826418400000017312299116212952724_);" points="
														396.218,337.568 392.027,348.591 391.809,349.156 388.397,348.06 389.045,346.257 392.767,335.861 395.293,337.108 
																											"/>
												</g>
												<path style="fill:#263238;" d="M424.01,333.654c-0.411,0.81-0.825,1.61-1.224,2.384c0,0,0.003,0.01-0.007,0.013
													c0.003,0.01-0.007,0.013-0.015,0.026c-0.022,0.039-0.034,0.075-0.049,0.1c-0.182,0.333-0.632,1.198-1.238,2.333
													c-0.189,0.346-0.368,0.689-0.557,1.035c-0.287,0.547-0.595,1.133-0.922,1.735c-0.223,0.421-0.432,0.816-0.65,1.213
													c-0.466,0.891-0.901,1.729-1.305,2.527c-2.591,5.124-3.337,7.181-5.318,11.266c-0.525,0.994-1.72,1.408-2.669,0.925
													l-7.111-4.196l-1.326-0.783c0,0-0.01,0.003-0.013-0.008c-0.372-0.204-0.498-0.704-0.267-1.094l3.949-9.333
													c0.349-0.64,2.442-2.477,3.089-2.785c3.658-1.817,6.592-2.531,12.421-9.968
													C422.078,327.378,426.202,329.304,424.01,333.654z"/>
												<path style="opacity:0.2;" d="M402.947,353.016c0,0,14.66-7.243,16.403-10.522c-0.466,0.891-0.901,1.729-1.305,2.527
													c-2.591,5.124-3.337,7.181-5.318,11.266c-0.525,0.994-1.72,1.408-2.669,0.925L402.947,353.016z"/>
											</g>
											<g>
												<g>
													<g>
														<path style="fill:#407BFF;" d="M394.334,335.522l-0.315,0.837l-0.007,0.013l-3.572,9.577l-0.622,1.661l-0.523,1.401
															l-3.476-1.1l-20.707-6.571c-14.996-2.693-43.156-18.287-43.156-18.287c-19.907,9.729-91.08,21.111-103.179,12.687
															c-6.413-4.67-11.087-10.965-13.591-18.31l13.803-7.391c18.537-9.926,39.244-15.064,60.272-15.037
															c15.652,0.02,33.291,0.784,44.946,3.542C350.252,302.375,394.334,335.522,394.334,335.522z"/>
													</g>
												</g>
											</g>
										</g>
									</g>
								</g>
							</g>
							<g>
								<g>
									<defs>
										<polygon id="XMLID_5_" points="401.48,356.11 398.685,365.433 395.228,363.477 385.233,357.823 391.442,348.222 
											392.914,349.379 394.191,350.382 400.813,355.583 										"/>
									</defs>
									<use xlink:href="#XMLID_5_"  style="overflow:visible;fill:#FFC3BD;"/>
									<clipPath id="XMLID_00000026125973660565297100000009024157280923991478_">
										<use xlink:href="#XMLID_5_"  style="overflow:visible;"/>
									</clipPath>
									<polygon style="opacity:0.2;clip-path:url(#XMLID_00000026125973660565297100000009024157280923991478_);" points="
										392.488,349.033 390.352,347.414 384.598,356.163 383.597,357.68 386.608,359.332 386.936,358.859 393.269,349.629 
																			"/>
								</g>
								<path style="fill:#263238;" d="M419.907,351.839c-2.93,3.603-5.752,6.762-7.878,9.359c-3.455,4.237-4.577,5.993-7.247,9.394
									c-0.704,0.814-1.885,0.962-2.682,0.318l-6.831-6.366c0,0,0,0-0.013-0.007c-0.292-0.269-0.312-0.743-0.028-1.061
									c-0.003-0.01,0.007-0.013,0.007-0.013l5.578-7.881c0.456-0.528,2.788-1.808,3.456-1.958
									c3.776-0.944,6.648-1.009,13.599-6.736c0.674-0.566,1.729-0.374,2.436,0.337
									C421.194,348.129,421.55,349.831,419.907,351.839z"/>
							</g>
						</g>
						<g>
							<g>
								<g>
									<path style="fill:#407BFF;" d="M394.334,335.522l-0.315,0.837l-0.007,0.013l-3.572,9.577l-0.622,1.661l-0.523,1.401
										l-3.476-1.1l-20.707-6.571c-14.996-2.693-43.156-18.287-43.156-18.287c-19.907,9.729-91.08,21.111-103.179,12.687
										c-6.413-4.67-11.448-7.169-15.61-21.576l0,0c17.331-12.144,37.902-18.854,59.063-19.163
										c5.685-0.083,11.389-0.006,17.031,0.001c15.652,0.02,33.291,0.784,44.946,3.542
										C350.252,302.375,394.334,335.522,394.334,335.522z"/>
								</g>
							</g>
							<g style="opacity:0.6;">
								<g>
									<path d="M394.334,335.522l-0.315,0.837l-0.007,0.013l-3.572,9.577l-0.622,1.661l-0.523,1.401l-3.476-1.1l-20.707-6.571
										c-14.996-2.693-43.156-18.287-43.156-18.287c-19.907,9.729-91.08,21.111-103.179,12.687
										c-6.413-4.67-11.448-7.169-15.61-21.576l0,0c17.331-12.144,37.902-18.854,59.063-19.163
										c5.685-0.083,11.389-0.006,17.031,0.001c15.652,0.02,33.291,0.784,44.946,3.542
										C350.252,302.375,394.334,335.522,394.334,335.522z"/>
								</g>
							</g>
						</g>
					</g>
					<path style="opacity:0.3;" d="M257.824,289.81c0,0-2.905,5.839-21.562,8.849c-18.657,3.01,21.383-2.362,41.527-3.709
						C277.788,294.949,262.62,293.319,257.824,289.81z"/>
				</g>
			</g>
			<g style="opacity:0.7;">
				<g>
					<path style="fill:#D4D6D7;" d="M338.599,174.107c-6.251-7.112-15.808-7.407-24.421-7.163c-3.126,0.1-6.417,0.263-9.108,2.175
						c-2.691,1.924-4.468,6.229-3.01,9.562c1.426,3.271,5.569,5.413,4.678,8.952c-7.203,4.075-15.637,2.8-23.485,4.48
						c-6.225,1.331-12.159,4.6-17.06,9.402c-1.338,1.316-2.675,2.894-2.975,4.936c-0.491,3.453,2.003,6.053,4.708,7.817
						c0.494,0.322,0.408,1.199-0.129,1.399c-1.883,0.704-3.721,1.581-5.256,3.038c-0.011,0.01-0.021,0.02-0.032,0.03
						c-0.951,0.897-0.332,2.757,0.875,2.675c0.147-0.01,0.295-0.015,0.445-0.017c3.261-0.026,5.923,2.091,5.938,4.727
						c0.015,2.636-2.623,4.796-5.884,4.823c-0.808,0.007-0.263,1.208,0.878,1.547c2.271,0.69,4.661,0.36,6.967-0.081
						c2.751-0.532,5.727-1.414,7.431-4.064c1.704-2.662,1.014-7.531-1.733-8.118c5.589-0.319,11.153-1.222,16.611-2.696
						c2.388-0.641,4.991-1.595,6.282-4.104c1.29-2.497-0.038-6.764-2.479-6.434c7.18-2.669,14.668-3.936,21.891-6.37
						c7.233-2.446,14.417-6.247,19.463-12.928c1.11-1.476,2.135-3.151,2.425-5.105C342.096,179.425,340.536,176.304,338.599,174.107
						z"/>
				</g>
			</g>
		</g>
	</g>
</g>
</svg>
